<?xml version="1.0" encoding="iso-8859-1"?>
<!-- Generator: Adobe Illustrator 17.1.0, SVG Export Plug-In . SVG Version: 6.00 Build 0)  -->
<!DOCTYPE svg PUBLIC "-//W3C//DTD SVG 1.1//EN" "http://www.w3.org/Graphics/SVG/1.1/DTD/svg11.dtd">
<svg version="1.1" id="Layer_1" xmlns="http://www.w3.org/2000/svg" xmlns:xlink="http://www.w3.org/1999/xlink" x="0px" y="0px"
	 viewBox="0 0 1076 668" style="enable-background:new 0 0 1076 668;" xml:space="preserve">
<linearGradient id="SVGID_1_" gradientUnits="userSpaceOnUse" x1="537.9802" y1="-1.0115" x2="537.9802" y2="667.0114" gradientTransform="matrix(-1 -0.0017 -0.0017 1 1076.5463 2.9147)">
	<stop  offset="0" style="stop-color:#CCE0F4"/>
	<stop  offset="0.0641" style="stop-color:#C3DCF2"/>
	<stop  offset="0.1706" style="stop-color:#A9D2EE"/>
	<stop  offset="0.3066" style="stop-color:#80C2E7"/>
	<stop  offset="0.4649" style="stop-color:#47ACDE"/>
	<stop  offset="0.5674" style="stop-color:#1E9CD7"/>
	<stop  offset="0.8652" style="stop-color:#0075BE"/>
	<stop  offset="0.9944" style="stop-color:#005B97"/>
</linearGradient>
<polygon style="display:none;fill:url(#SVGID_1_);" points="0.576,0.074 1076.575,1.927 1075.424,669.926 -0.575,668.073 "/>
<g>
	
		<ellipse transform="matrix(-0.1667 -0.986 0.986 -0.1667 -33.7963 485.6654)" style="fill:#B3B3B3;" cx="188.326" cy="257.114" rx="20.3" ry="16.053"/>
	
		<ellipse transform="matrix(-0.1667 -0.986 0.986 -0.1667 25.3804 481.4944)" style="fill:#B3B3B3;" cx="216.151" cy="230.022" rx="33.307" ry="30.271"/>
	
		<ellipse transform="matrix(-0.1667 -0.986 0.986 -0.1667 -22.7089 515.0486)" style="fill:#B3B3B3;" cx="206.286" cy="267.12" rx="13.106" ry="11.313"/>
	
		<ellipse transform="matrix(-0.1667 -0.986 0.986 -0.1667 17.8023 511.749)" style="fill:#B3B3B3;" cx="225.147" cy="248.352" rx="22.862" ry="18.805"/>
	
		<ellipse transform="matrix(-0.1667 -0.986 0.986 -0.1667 59.5057 518.2964)" style="fill:#B3B3B3;" cx="248.765" cy="234.003" rx="12.712" ry="9.785"/>
	
		<ellipse transform="matrix(-0.1667 -0.986 0.986 -0.1667 36.7005 538.043)" style="fill:#B3B3B3;" cx="245.707" cy="253.513" rx="18.294" ry="15.195"/>
	
		<ellipse transform="matrix(-0.1667 -0.986 0.986 -0.1667 85.5751 489.8192)" style="fill:#B3B3B3;" cx="249.767" cy="208.749" rx="27.789" ry="27.519"/>
	
		<ellipse transform="matrix(-0.1667 -0.986 0.986 -0.1667 76.9865 535.8074)" style="fill:#B3B3B3;" cx="264.905" cy="235.372" rx="13.599" ry="11.833"/>
</g>
<g>
	<polygon style="fill:#808080;" points="243,416 145,416 243,303.972 	"/>
	<rect x="146" y="414" style="fill:#808080;" width="97" height="159"/>
	<rect x="174" y="284" style="fill:#808080;" width="27" height="110"/>
</g>
<g>
	<polygon style="fill:#808080;" points="339,416 241,416 339,303.972 	"/>
	<rect x="242" y="414" style="fill:#808080;" width="97" height="159"/>
	<rect x="270" y="284" style="fill:#808080;" width="27" height="110"/>
</g>
<g>
	<polygon style="fill:#808080;" points="437,416 339,416 437,303.972 	"/>
	<rect x="340" y="414" style="fill:#808080;" width="97" height="159"/>
	<rect x="368" y="284" style="fill:#808080;" width="27" height="110"/>
</g>
<rect y="573" style="fill:#4D4D4D;" width="1076" height="95"/>
<rect x="1" y="315" style="fill:#666666;" width="129" height="259"/>
<rect x="130" y="414" style="fill:#666666;" width="129" height="160"/>
<rect x="308" y="370" style="fill:#666666;" width="129" height="204"/>
<rect x="436" y="339" style="fill:#666666;" width="129" height="235"/>
<rect x="577" y="394" style="fill:#666666;" width="129" height="180"/>
<rect x="705" y="358" style="fill:#666666;" width="129" height="216"/>
<rect x="833" y="309" style="fill:#666666;" width="129" height="265"/>
<rect x="961" y="309" style="fill:#666666;" width="129" height="265"/>
<g>
	
		<ellipse transform="matrix(-0.1667 -0.986 0.986 -0.1667 81.5276 581.1233)" style="fill:#B3B3B3;" cx="286.324" cy="256.111" rx="20.3" ry="16.053"/>
	
		<ellipse transform="matrix(-0.1667 -0.986 0.986 -0.1667 140.7043 576.9522)" style="fill:#B3B3B3;" cx="314.15" cy="229.02" rx="33.307" ry="30.271"/>
	
		<ellipse transform="matrix(-0.1667 -0.986 0.986 -0.1667 92.615 610.5064)" style="fill:#B3B3B3;" cx="304.284" cy="266.118" rx="13.106" ry="11.313"/>
	
		<ellipse transform="matrix(-0.1667 -0.986 0.986 -0.1667 133.1262 607.2068)" style="fill:#B3B3B3;" cx="323.146" cy="247.349" rx="22.862" ry="18.805"/>
	
		<ellipse transform="matrix(-0.1667 -0.986 0.986 -0.1667 174.8296 613.7543)" style="fill:#B3B3B3;" cx="346.764" cy="233.001" rx="12.712" ry="9.785"/>
	
		<ellipse transform="matrix(-0.1667 -0.986 0.986 -0.1667 152.0244 633.5009)" style="fill:#B3B3B3;" cx="343.706" cy="252.511" rx="18.294" ry="15.195"/>
	
		<ellipse transform="matrix(-0.1667 -0.986 0.986 -0.1667 200.899 585.277)" style="fill:#B3B3B3;" cx="347.765" cy="207.746" rx="27.789" ry="27.519"/>
	
		<ellipse transform="matrix(-0.1667 -0.986 0.986 -0.1667 192.3103 631.2651)" style="fill:#B3B3B3;" cx="362.904" cy="234.369" rx="13.599" ry="11.833"/>
</g>
<g>
	
		<ellipse transform="matrix(-0.1667 -0.986 0.986 -0.1667 204.0324 684.6495)" style="fill:#B3B3B3;" cx="391.323" cy="256.108" rx="20.3" ry="16.053"/>
	
		<ellipse transform="matrix(-0.1667 -0.986 0.986 -0.1667 263.2092 680.4785)" style="fill:#B3B3B3;" cx="419.149" cy="229.017" rx="33.307" ry="30.271"/>
	
		<ellipse transform="matrix(-0.1667 -0.986 0.986 -0.1667 215.1199 714.0327)" style="fill:#B3B3B3;" cx="409.283" cy="266.115" rx="13.106" ry="11.313"/>
	
		<ellipse transform="matrix(-0.1667 -0.986 0.986 -0.1667 255.6311 710.733)" style="fill:#B3B3B3;" cx="428.144" cy="247.346" rx="22.862" ry="18.805"/>
	
		<ellipse transform="matrix(-0.1667 -0.986 0.986 -0.1667 297.3344 717.2805)" style="fill:#B3B3B3;" cx="451.763" cy="232.998" rx="12.712" ry="9.785"/>
	
		<ellipse transform="matrix(-0.1667 -0.986 0.986 -0.1667 274.5293 737.0271)" style="fill:#B3B3B3;" cx="448.704" cy="252.508" rx="18.294" ry="15.195"/>
	
		<ellipse transform="matrix(-0.1667 -0.986 0.986 -0.1667 323.4038 688.8032)" style="fill:#B3B3B3;" cx="452.764" cy="207.743" rx="27.789" ry="27.519"/>
	
		<ellipse transform="matrix(-0.1667 -0.986 0.986 -0.1667 314.8153 734.7914)" style="fill:#B3B3B3;" cx="467.903" cy="234.367" rx="13.599" ry="11.833"/>
</g>
<g style="opacity:0.68;">
	<g>
		<path style="fill:#CCCCCC;" d="M73,86.5c37.469,0,74.938,0,112.406,0c62.531,0,125.062,0,187.593,0c18.667,0,37.334,0,56,0
			c13.628,0,25-11.372,25-25s-11.372-25-25-25c-37.469,0-74.938,0-112.406,0c-62.531,0-125.062,0-187.593,0c-18.667,0-37.334,0-56,0
			c-13.628,0-25,11.372-25,25S59.372,86.5,73,86.5L73,86.5z"/>
	</g>
</g>
<g style="opacity:0.68;">
	<g>
		<path style="fill:#CCCCCC;" d="M217,136.5c37.469,0,74.938,0,112.406,0c62.531,0,125.062,0,187.593,0c18.667,0,37.334,0,56,0
			c13.628,0,25-11.372,25-25s-11.372-25-25-25c-37.469,0-74.938,0-112.406,0c-62.531,0-125.062,0-187.593,0c-18.667,0-37.334,0-56,0
			c-13.628,0-25,11.372-25,25S203.372,136.5,217,136.5L217,136.5z"/>
	</g>
</g>
<g style="opacity:0.68;">
	<g>
		<path style="fill:#CCCCCC;" d="M763,328.972c37.469,0,74.938,0,112.406,0c62.531,0,125.062,0,187.593,0c18.667,0,37.334,0,56,0
			c13.628,0,25-11.372,25-25s-11.372-25-25-25c-37.469,0-74.938,0-112.406,0c-62.531,0-125.062,0-187.593,0c-18.667,0-37.334,0-56,0
			c-13.628,0-25,11.372-25,25S749.372,328.972,763,328.972L763,328.972z"/>
	</g>
</g>
<g style="opacity:0.52;">
	<g>
		<path style="fill:#CCCCCC;" d="M789.79,117.5c47.935,0,95.871,0,143.806,0c1.468,0,2.936,0,4.405,0c13.628,0,25-11.372,25-25
			s-11.372-25-25-25c-47.935,0-95.87,0-143.806,0c-1.468,0-2.936,0-4.405,0c-13.628,0-25,11.372-25,25S776.162,117.5,789.79,117.5
			L789.79,117.5z"/>
	</g>
</g>
</svg>
