<?xml version="1.0" encoding="iso-8859-1"?>
<!-- Generator: Adobe Illustrator 17.1.0, SVG Export Plug-In . SVG Version: 6.00 Build 0)  -->
<!DOCTYPE svg PUBLIC "-//W3C//DTD SVG 1.1//EN" "http://www.w3.org/Graphics/SVG/1.1/DTD/svg11.dtd">
<svg version="1.1" id="Layer_1" xmlns="http://www.w3.org/2000/svg" xmlns:xlink="http://www.w3.org/1999/xlink" x="0px" y="0px"
	 viewBox="0 0 1076 668" style="enable-background:new 0 0 1076 668;" xml:space="preserve">
<linearGradient id="SVGID_1_" gradientUnits="userSpaceOnUse" x1="537.9878" y1="668.9874" x2="537.9878" y2="0.9884" gradientTransform="matrix(-1 -0.0017 0.0017 -1 1075.4106 670.9147)">
	<stop  offset="0" style="stop-color:#CCE0F4"/>
	<stop  offset="0.0641" style="stop-color:#C3DCF2"/>
	<stop  offset="0.1706" style="stop-color:#A9D2EE"/>
	<stop  offset="0.3066" style="stop-color:#80C2E7"/>
	<stop  offset="0.4649" style="stop-color:#47ACDE"/>
	<stop  offset="0.5674" style="stop-color:#1E9CD7"/>
	<stop  offset="0.8652" style="stop-color:#0075BE"/>
	<stop  offset="0.9944" style="stop-color:#005B97"/>
</linearGradient>
<polygon style="display:none;fill:url(#SVGID_1_);" points="0.576,0.074 1076.575,1.927 1075.424,669.926 -0.575,668.073 "/>
<rect y="521" style="fill:#736357;" width="1076" height="148"/>
<g>
	<polygon style="fill:#534741;" points="800,618 880,618 840,197 	"/>
	<polyline style="fill:#534741;" points="843.428,314.33 832.462,332.239 757.055,273.466 839.294,311.505 	"/>
	<polyline style="fill:#534741;" points="857.379,374.492 840.011,362.687 902.305,290.16 860.397,370.497 	"/>
	<polyline style="fill:#534741;" points="841.63,400.782 828.951,417.523 791.011,375.304 839.442,398.812 	"/>
</g>
<g>
	<polygon style="fill:#534741;" points="911,537 991,537 951,116 	"/>
	<polyline style="fill:#534741;" points="958.379,233.492 941.011,221.687 982.342,180.002 960.294,231.12 	"/>
	<polyline style="fill:#534741;" points="956.174,273.479 940.659,287.63 884.583,210.195 952.99,269.616 	"/>
	<polyline style="fill:#534741;" points="962.659,341.988 943.474,333.447 991.934,251.032 964.921,337.522 	"/>
</g>
<g>
	<polygon style="fill:#534741;" points="665,558 745,558 705,67 	"/>
	<polyline style="fill:#534741;" points="708.428,203.838 697.462,224.726 622.055,156.18 704.294,200.544 	"/>
	<polyline style="fill:#534741;" points="722.379,274.004 705.011,260.236 767.305,175.65 725.397,269.345 	"/>
	<polyline style="fill:#534741;" points="706.63,304.665 693.951,324.189 656.011,274.95 704.442,302.367 	"/>
</g>
<g>
	<polyline style="fill:none;stroke:#C69C6D;stroke-miterlimit:10;" points="1,626 57,595 114,618 	"/>
	<polyline style="fill:none;stroke:#C69C6D;stroke-miterlimit:10;" points="88.17,607.578 114,595 119,571 	"/>
	<polyline style="fill:none;stroke:#C69C6D;stroke-miterlimit:10;" points="114,595 153,610.5 202,602.75 	"/>
	<polyline style="fill:none;stroke:#C69C6D;stroke-miterlimit:10;" points="29,610.5 48,644 29,669 	"/>
</g>
<g>
	<polyline style="fill:none;stroke:#C69C6D;stroke-miterlimit:10;" points="1076.573,658.104 1013.212,667.181 968.105,625.428 	"/>
	<polyline style="fill:none;stroke:#C69C6D;stroke-miterlimit:10;" points="988.545,644.348 959.932,646.926 946.73,667.583 	"/>
	<polyline style="fill:none;stroke:#C69C6D;stroke-miterlimit:10;" points="959.932,646.926 928.985,618.579 880.43,608.412 	"/>
	<polyline style="fill:none;stroke:#C69C6D;stroke-miterlimit:10;" points="1044.892,662.643 1039.037,624.578 1065.68,607.961 	"/>
</g>
<g>
	<polyline style="fill:none;stroke:#C69C6D;stroke-miterlimit:10;" points="389.816,522.672 386.323,586.584 336.553,622.652 	"/>
	<polyline style="fill:none;stroke:#C69C6D;stroke-miterlimit:10;" points="359.106,606.308 356.038,634.873 373.713,651.861 	"/>
	<polyline style="fill:none;stroke:#C69C6D;stroke-miterlimit:10;" points="356.038,634.873 322.185,659.677 302.715,705.306 	"/>
	<polyline style="fill:none;stroke:#C69C6D;stroke-miterlimit:10;" points="388.069,554.628 349.594,552.925 338.51,523.545 	"/>
</g>
<g>
	<g>
		<ellipse style="fill:#4D4D4D;" cx="107" cy="414.939" rx="46" ry="6.447"/>
		<rect x="61" y="415" style="fill:#4D4D4D;" width="92" height="129"/>
		<ellipse style="fill:#4D4D4D;" cx="107" cy="543.585" rx="46" ry="6.447"/>
	</g>
	<path style="fill:none;stroke:#FFFFFF;stroke-miterlimit:10;" d="M61,446.667c0,0,45,12.667,92,0"/>
	<path style="fill:none;stroke:#FFFFFF;stroke-miterlimit:10;" d="M61,505.667c0,0,45,12.667,92,0"/>
	<ellipse style="fill:#FFFFFF;stroke:#FFFFFF;stroke-miterlimit:10;" cx="107" cy="479.333" rx="20.667" ry="19.667"/>
	<g>
		<polygon style="fill:#4D4D4D;" points="100.772,461.445 87.928,472.817 108.045,481.335 		"/>
		<polygon style="fill:#4D4D4D;" points="127.331,474.995 116.313,462.349 106.086,481.304 		"/>
		<polygon style="fill:#4D4D4D;" points="96.244,497.359 113.475,499.032 107.256,478.801 		"/>
	</g>
</g>
<g>
	<g>
		<ellipse style="fill:#4D4D4D;" cx="192" cy="434.939" rx="46" ry="6.447"/>
		<rect x="146" y="435" style="fill:#4D4D4D;" width="92" height="129"/>
		<ellipse style="fill:#4D4D4D;" cx="192" cy="563.585" rx="46" ry="6.447"/>
	</g>
	<path style="fill:none;stroke:#FFFFFF;stroke-miterlimit:10;" d="M146,466.667c0,0,45,12.667,92,0"/>
	<path style="fill:none;stroke:#FFFFFF;stroke-miterlimit:10;" d="M146,525.667c0,0,45,12.667,92,0"/>
	<ellipse style="fill:#FFFFFF;stroke:#FFFFFF;stroke-miterlimit:10;" cx="192" cy="499.333" rx="20.667" ry="19.667"/>
	<g>
		<polygon style="fill:#4D4D4D;" points="185.772,481.445 172.928,492.817 193.045,501.335 		"/>
		<polygon style="fill:#4D4D4D;" points="212.331,494.995 201.313,482.349 191.086,501.304 		"/>
		<polygon style="fill:#4D4D4D;" points="181.244,517.359 198.475,519.032 192.256,498.801 		"/>
	</g>
</g>
<g>
	<g>
		<ellipse style="fill:#4D4D4D;" cx="132" cy="474.939" rx="46" ry="6.447"/>
		<rect x="86" y="475" style="fill:#4D4D4D;" width="92" height="129"/>
		<ellipse style="fill:#4D4D4D;" cx="132" cy="603.585" rx="46" ry="6.447"/>
	</g>
	<path style="fill:none;stroke:#FFFFFF;stroke-miterlimit:10;" d="M86,506.667c0,0,45,12.667,92,0"/>
	<path style="fill:none;stroke:#FFFFFF;stroke-miterlimit:10;" d="M86,565.667c0,0,45,12.667,92,0"/>
	<ellipse style="fill:#FFFFFF;stroke:#FFFFFF;stroke-miterlimit:10;" cx="132" cy="539.333" rx="20.667" ry="19.667"/>
	<g>
		<polygon style="fill:#4D4D4D;" points="125.772,521.445 112.928,532.817 133.045,541.335 		"/>
		<polygon style="fill:#4D4D4D;" points="152.331,534.995 141.313,522.349 131.086,541.304 		"/>
		<polygon style="fill:#4D4D4D;" points="121.244,557.359 138.475,559.032 132.256,538.801 		"/>
	</g>
</g>
<g>
	<g>
		
			<ellipse transform="matrix(6.745616e-004 1 -1 6.745616e-004 923.3127 244.5016)" style="fill:#4D4D4D;" cx="339.323" cy="584.219" rx="46" ry="6.447"/>
		
			<rect x="228.762" y="519.762" transform="matrix(6.745616e-004 1 -1 6.745616e-004 858.8389 309.1061)" style="fill:#4D4D4D;" width="92" height="129"/>
		
			<ellipse transform="matrix(6.745616e-004 1 -1 6.745616e-004 794.8402 373.2344)" style="fill:#4D4D4D;" cx="210.677" cy="584.305" rx="46" ry="6.447"/>
	</g>
	<path style="fill:none;stroke:#FFFFFF;stroke-miterlimit:10;" d="M307.564,538.24c0,0-12.636,45.009,0.062,92"/>
	<path style="fill:none;stroke:#FFFFFF;stroke-miterlimit:10;" d="M248.564,538.28c0,0-12.636,45.009,0.062,92"/>
	
		<ellipse transform="matrix(6.745616e-004 1 -1 6.745616e-004 859.0053 308.9393)" style="fill:#FFFFFF;stroke:#FFFFFF;stroke-miterlimit:10;" cx="274.929" cy="584.262" rx="20.667" ry="19.667"/>
	<g>
		<polygon style="fill:#4D4D4D;" points="292.813,578.022 281.433,565.186 272.927,585.309 		"/>
		<polygon style="fill:#4D4D4D;" points="279.28,604.59 291.92,593.564 272.957,583.349 		"/>
		<polygon style="fill:#4D4D4D;" points="256.896,573.518 255.235,590.75 275.461,584.518 		"/>
	</g>
</g>
<g style="opacity:0.5;">
	<g>
		<path style="fill:#4D4D4D;" d="M106,112.5c45.827,0,91.654,0,137.481,0c37.506,0,75.012,0,112.519,0c13.628,0,25-11.372,25-25
			s-11.372-25-25-25c-45.827,0-91.654,0-137.481,0c-37.506,0-75.012,0-112.519,0c-13.628,0-25,11.372-25,25S92.372,112.5,106,112.5
			L106,112.5z"/>
	</g>
</g>
<g style="opacity:0.5;">
	<g>
		<path style="fill:#4D4D4D;" d="M265,171.5c45.827,0,91.654,0,137.481,0c37.506,0,75.012,0,112.519,0c13.628,0,25-11.372,25-25
			s-11.372-25-25-25c-45.827,0-91.654,0-137.481,0c-37.506,0-75.012,0-112.519,0c-13.628,0-25,11.372-25,25S251.372,171.5,265,171.5
			L265,171.5z"/>
	</g>
</g>
<g style="opacity:0.5;">
	<g>
		<path style="fill:#4D4D4D;" d="M755,98.5c45.827,0,91.654,0,137.482,0c37.506,0,75.012,0,112.518,0c13.628,0,25-11.372,25-25
			s-11.372-25-25-25c-45.827,0-91.654,0-137.482,0c-37.506,0-75.012,0-112.518,0c-13.628,0-25,11.372-25,25S741.372,98.5,755,98.5
			L755,98.5z"/>
	</g>
</g>
</svg>
