<?xml version="1.0" encoding="iso-8859-1"?>
<!-- Generator: Adobe Illustrator 17.1.0, SVG Export Plug-In . SVG Version: 6.00 Build 0)  -->
<!DOCTYPE svg PUBLIC "-//W3C//DTD SVG 1.1//EN" "http://www.w3.org/Graphics/SVG/1.1/DTD/svg11.dtd">
<svg version="1.1" id="Layer_1" xmlns="http://www.w3.org/2000/svg" xmlns:xlink="http://www.w3.org/1999/xlink" x="0px" y="0px"
	 viewBox="0 0 1076 668" style="enable-background:new 0 0 1076 668;" xml:space="preserve">
<linearGradient id="SVGID_1_" gradientUnits="userSpaceOnUse" x1="537.9802" y1="-1.0115" x2="537.9802" y2="667.0114" gradientTransform="matrix(-1 -0.0017 -0.0017 1 1076.5463 2.9147)">
	<stop  offset="0" style="stop-color:#CCE0F4"/>
	<stop  offset="0.0641" style="stop-color:#C3DCF2"/>
	<stop  offset="0.1706" style="stop-color:#A9D2EE"/>
	<stop  offset="0.3066" style="stop-color:#80C2E7"/>
	<stop  offset="0.4649" style="stop-color:#47ACDE"/>
	<stop  offset="0.5674" style="stop-color:#1E9CD7"/>
	<stop  offset="0.8652" style="stop-color:#0075BE"/>
	<stop  offset="0.9944" style="stop-color:#005B97"/>
</linearGradient>
<polygon style="display:none;fill:url(#SVGID_1_);" points="0.576,0.074 1076.575,1.927 1075.424,669.926 -0.575,668.073 "/>
<g style="opacity:0.98;">
	
		<rect x="776.874" y="246.23" transform="matrix(-0.9502 -0.3116 0.3116 -0.9502 1581.3369 960.1216)" style="fill:#C4C4C4;" width="180.998" height="214.997"/>
	
		<ellipse transform="matrix(0.3116 -0.9502 0.9502 0.3116 381.9641 1029.3373)" style="fill:#C4C4C4;" cx="901.393" cy="251.051" rx="70.999" ry="90.166"/>
	<path style="fill:#C4C4C4;" d="M918.606,487.912c-2.065,6.297-9.157,9.626-15.443,7.564L754.261,446.64
		c-6.286-2.061-9.707-8.838-7.641-15.135l7.168-21.855c2.065-6.297,8.835-9.731,15.121-7.67l148.902,48.835
		c6.286,2.061,10.029,8.943,7.963,15.241L918.606,487.912z"/>
	
		<rect x="901.348" y="130.211" transform="matrix(-0.9502 -0.3116 0.3116 -0.9502 1762.5437 608.0403)" style="fill:#C4C4C4;" width="56.999" height="65.999"/>
</g>
<polygon style="opacity:0.76;fill:#C4C4C4;enable-background:new    ;" points="233.994,67.906 251.743,80.274 197.239,123.166 
	202.039,158.883 278.997,116.843 297.911,121.233 132.459,208.77 80.413,128.221 189.563,103.619 "/>
<g style="opacity:0.34;">
	
		<rect x="545.873" y="161.65" transform="matrix(0.3365 0.9417 -0.9417 0.3365 545.7836 -409.7744)" style="fill:#C4C4C4;" width="35.613" height="41.534"/>
	
		<ellipse transform="matrix(-0.9417 0.3365 -0.3365 -0.9417 1119.968 184.6793)" style="fill:#C4C4C4;" cx="543.982" cy="189.385" rx="13.716" ry="17.74"/>
	<path style="fill:#C4C4C4;" d="M577.991,158.41c1.206-0.431,2.56,0.276,2.998,1.502l10.374,29.034
		c0.438,1.226-0.184,2.568-1.39,2.999l-4.184,1.495c-1.206,0.431-2.538-0.214-2.976-1.439l-10.374-29.034
		c-0.438-1.226,0.162-2.631,1.368-3.062L577.991,158.41z"/>
	
		<rect x="521.599" y="189.073" transform="matrix(0.3365 0.9417 -0.9417 0.3365 533.8551 -366.7825)" style="fill:#C4C4C4;" width="11.215" height="12.75"/>
</g>
<polygon style="opacity:0.92;fill:#C4C4C4;enable-background:new    ;" points="182.134,634.954 187.638,595.957 291.482,621.668 
	341.305,573.478 222.333,515.638 215.074,484.303 466.602,611.961 384.348,777.806 267.904,655.043 "/>
<g style="opacity:0.34;">
	
		<rect x="101.452" y="512.368" transform="matrix(-0.86 -0.5103 0.5103 -0.86 -50.2379 1052.4871)" style="fill:#C4C4C4;" width="35.612" height="41.533"/>
	
		<ellipse transform="matrix(0.5103 -0.86 0.86 0.5103 -379.4196 364.0739)" style="fill:#C4C4C4;" cx="129.977" cy="515.199" rx="13.716" ry="17.74"/>
	<path style="fill:#C4C4C4;" d="M123.593,560.747c-0.653,1.101-2.148,1.421-3.267,0.757L93.81,545.771
		c-1.119-0.664-1.497-2.095-0.844-3.196l2.267-3.821c0.653-1.101,2.09-1.455,3.21-0.791l26.516,15.733
		c1.119,0.664,1.554,2.129,0.901,3.23L123.593,560.747z"/>
	
		<rect x="133.416" y="493.45" transform="matrix(-0.86 -0.5103 0.5103 -0.86 3.5231 1000.6174)" style="fill:#C4C4C4;" width="11.215" height="12.75"/>
</g>
<polygon style="opacity:0.92;fill:#C4C4C4;enable-background:new    ;" points="934.113,8.445 938.681,-10.811 983.814,-3.908 
	1008.731,-30.023 958.552,-51.731 956.989,-66.575 1062.786,-18.065 1017,67 971.453,13.59 "/>
<g style="opacity:0.72;">
	<g>
		<path style="fill:#CBF1F5;" d="M772,636c49.973,0,99.946,0,149.919,0c10.694,0,21.387,0,32.081,0c13.628,0,25-11.372,25-25
			s-11.372-25-25-25c-49.973,0-99.946,0-149.919,0c-10.694,0-21.387,0-32.081,0c-13.628,0-25,11.372-25,25S758.372,636,772,636
			L772,636z"/>
	</g>
</g>
<g style="opacity:0.72;">
	<g>
		<path style="fill:#CBF1F5;" d="M849,586c49.973,0,99.946,0,149.919,0c10.694,0,21.387,0,32.081,0c19.346,0,19.346-30,0-30
			c-49.973,0-99.946,0-149.919,0c-10.694,0-21.387,0-32.081,0C829.654,556,829.654,586,849,586L849,586z"/>
	</g>
</g>
<g style="opacity:0.72;">
	<g>
		<path style="fill:#CBF1F5;" d="M61,316c23.389,0,46.778,0,70.167,0c13.628,0,25-11.372,25-25s-11.372-25-25-25
			c-23.389,0-46.778,0-70.167,0c-13.628,0-25,11.372-25,25S47.372,316,61,316L61,316z"/>
	</g>
</g>
<g style="opacity:0.72;">
	<g>
		<path style="fill:#CBF1F5;" d="M493.114,524c33.295,0,66.591,0,99.886,0c13.628,0,25-11.372,25-25s-11.372-25-25-25
			c-33.295,0-66.591,0-99.886,0c-13.628,0-25,11.372-25,25S479.486,524,493.114,524L493.114,524z"/>
	</g>
</g>
<g style="opacity:0.72;">
	<g>
		<path style="fill:#CBF1F5;" d="M356,473.5c49.973,0,99.946,0,149.919,0c10.694,0,21.387,0,32.081,0c10.902,0,20-9.098,20-20
			s-9.098-20-20-20c-49.973,0-99.946,0-149.919,0c-10.694,0-21.387,0-32.081,0c-10.902,0-20,9.098-20,20S345.098,473.5,356,473.5
			L356,473.5z"/>
	</g>
</g>
<ellipse transform="matrix(-0.0032 -1 1 -0.0032 130.871 1036.451)" style="fill:#CBF1F5;" cx="582.005" cy="452.999" rx="16" ry="17"/>
<ellipse transform="matrix(-0.0032 -1 1 -0.0032 384.3807 477.1485)" style="fill:#CBF1F5;" cx="430.002" cy="46.998" rx="16" ry="17"/>
<ellipse transform="matrix(-0.0032 -1 1 -0.0032 842.2596 1191.5594)" style="fill:#CBF1F5;" cx="1015.006" cy="175.995" rx="16" ry="17"/>
<ellipse transform="matrix(-0.0032 -1 1 -0.0032 -554.8168 668.9613)" style="fill:#CBF1F5;" cx="56.004" cy="611.003" rx="16" ry="17"/>
<ellipse transform="matrix(-0.0032 -1 1 -0.0032 -499.9143 663.6879)" style="fill:#CBF1F5;" cx="80.827" cy="581.003" rx="9.975" ry="9.196"/>
<ellipse transform="matrix(-0.0032 -1 1 -0.0032 -224.0895 278.6287)" style="fill:#CBF1F5;" cx="26.824" cy="251.001" rx="9.975" ry="9.196"/>
<ellipse transform="matrix(-0.0032 -1 1 -0.0032 373.4081 427.2351)" style="fill:#CBF1F5;" cx="399.639" cy="27.51" rx="8.46" ry="8.387"/>
<ellipse transform="matrix(-0.0032 -1 1 -0.0032 432.8333 821.4456)" style="fill:#CBF1F5;" cx="625.827" cy="194.998" rx="9.975" ry="9.196"/>
<ellipse transform="matrix(-0.0032 -1 1 -0.0032 523.1172 1416.2621)" style="fill:#CBF1F5;" cx="967.427" cy="447.408" rx="8.388" ry="9.797"/>
</svg>
