<?xml version="1.0" encoding="iso-8859-1"?>
<!-- Generator: Adobe Illustrator 17.1.0, SVG Export Plug-In . SVG Version: 6.00 Build 0)  -->
<!DOCTYPE svg PUBLIC "-//W3C//DTD SVG 1.1//EN" "http://www.w3.org/Graphics/SVG/1.1/DTD/svg11.dtd">
<svg version="1.1" id="Layer_1" xmlns="http://www.w3.org/2000/svg" xmlns:xlink="http://www.w3.org/1999/xlink" x="0px" y="0px"
	 viewBox="0 0 1086 400" style="enable-background:new 0 0 1086 400;" xml:space="preserve">
<g>
	<path style="fill:#736357;" d="M468.211,282h567.099C1035.31,282,757.419,76,468.211,282z"/>
	<g>
		<g>
			<path style="fill:#736357;" d="M475.793,329.927c27.108,0,54.215,0,81.323,0c60.39,0,120.781,0,181.171,0
				c62.274,0,124.549,0,186.823,0c32.759,0,65.519,0,98.278,0c0.457,0,0.913,0,1.37,0c13.628,0,25-11.372,25-25s-11.372-25-25-25
				c-27.108,0-54.215,0-81.323,0c-60.39,0-120.781,0-181.171,0c-62.274,0-124.549,0-186.823,0c-32.759,0-65.519,0-98.278,0
				c-0.457,0-0.913,0-1.37,0c-13.628,0-25,11.372-25,25S462.165,329.927,475.793,329.927L475.793,329.927z"/>
		</g>
	</g>
</g>
<g>
	<polygon style="fill:#534741;" points="911.753,305 977.382,305 944.567,50.371 	"/>
	<polyline style="fill:#534741;" points="947.379,119.619 938.383,130.451 876.523,94.904 943.988,117.911 	"/>
	<polyline style="fill:#534741;" points="958.825,156.006 944.577,148.867 995.679,105.001 961.3,153.59 	"/>
	<polyline style="fill:#534741;" points="945.904,171.907 935.503,182.032 904.378,156.497 944.11,170.715 	"/>
</g>
<g>
	<polygon style="fill:#534741;" points="821.268,240 872.25,240 846.759,52.149 	"/>
	<polyline style="fill:#534741;" points="851.461,105.188 840.393,99.921 866.732,81.321 852.681,104.13 	"/>
	<polyline style="fill:#534741;" points="850.056,123.031 840.168,129.345 804.433,94.794 848.027,121.307 	"/>
	<polyline style="fill:#534741;" points="854.188,153.6 841.963,149.789 872.845,113.015 855.63,151.607 	"/>
</g>
<g>
	<polygon style="fill:#534741;" points="540.581,276 577.508,276 559.045,78.667 	"/>
	<polyline style="fill:#534741;" points="560.627,132.102 555.565,140.496 520.759,112.948 558.719,130.778 	"/>
	<polyline style="fill:#534741;" points="567.067,160.301 559.05,154.768 587.803,120.773 568.46,158.429 	"/>
	<polyline style="fill:#534741;" points="559.797,172.624 553.945,180.471 536.432,160.682 558.787,171.7 	"/>
</g>
<g>
	<g>
		<path style="fill:#4D4D4D;" d="M535.571,276.567c-0.027,1.974-13.023,3.419-29.029,3.228c-16.006-0.191-28.959-1.946-28.932-3.92
			s13.023-3.419,29.029-3.228C522.644,272.838,535.598,274.593,535.571,276.567z"/>
		<polygon style="fill:#4D4D4D;" points="533.84,347.531 476.867,346.852 477.816,276.733 534.788,277.413 		"/>
		<path style="fill:#4D4D4D;" d="M534.606,347.887c-0.027,1.974-13.023,3.419-29.029,3.228c-16.006-0.191-28.959-1.946-28.932-3.92
			s13.023-3.419,29.029-3.228C521.679,344.158,534.633,345.913,534.606,347.887z"/>
	</g>
	<path style="fill:none;stroke:#FFFFFF;stroke-miterlimit:10;" d="M477.372,293.465c0,0,28.256,7.361,57.961,0.692"/>
	<path style="fill:none;stroke:#FFFFFF;stroke-miterlimit:10;" d="M476.929,326.174c0,0,28.256,7.361,57.961,0.692"/>
	<path style="fill:#FFFFFF;stroke:#FFFFFF;stroke-miterlimit:10;" d="M519.128,312.076c-0.081,6.021-5.977,10.833-13.168,10.748
		c-7.191-0.086-12.954-5.037-12.873-11.058s5.977-10.833,13.168-10.748C513.446,301.104,519.209,306.055,519.128,312.076z"/>
	<g>
		<polygon style="fill:#4D4D4D;" points="502.318,301.957 494.141,308.165 506.751,313.038 		"/>
		<polygon style="fill:#4D4D4D;" points="518.948,309.669 512.102,302.575 505.517,313.007 		"/>
		<polygon style="fill:#4D4D4D;" points="499.196,321.833 510.039,322.89 506.273,311.628 		"/>
	</g>
</g>
<g>
	<g>
		<ellipse style="fill:#4D4D4D;" cx="446.605" cy="256.686" rx="27.376" ry="3.894"/>
		<rect x="419" y="257" style="fill:#4D4D4D;" width="56" height="77"/>
		<ellipse style="fill:#4D4D4D;" cx="446.605" cy="334.383" rx="27.376" ry="3.894"/>
	</g>
	<path style="fill:none;stroke:#FFFFFF;stroke-miterlimit:10;" d="M419.23,275.848c0,0,26.781,7.65,54.752,0"/>
	<path style="fill:none;stroke:#FFFFFF;stroke-miterlimit:10;" d="M419.23,311.481c0,0,26.781,7.65,54.752,0"/>
	<ellipse style="fill:#FFFFFF;stroke:#FFFFFF;stroke-miterlimit:10;" cx="446.605" cy="295.577" rx="12.299" ry="11.878"/>
	<g>
		<polygon style="fill:#4D4D4D;" points="442.899,284.773 435.255,291.641 447.228,296.786 		"/>
		<polygon style="fill:#4D4D4D;" points="458.705,292.957 452.148,285.319 446.061,296.768 		"/>
		<polygon style="fill:#4D4D4D;" points="440.204,306.464 450.459,307.474 446.758,295.256 		"/>
	</g>
</g>
<g>
	<g>
		<ellipse style="fill:#4D4D4D;" cx="473.517" cy="303.011" rx="21.993" ry="3.162"/>
		<rect x="452" y="304" style="fill:#4D4D4D;" width="44" height="62"/>
		<ellipse style="fill:#4D4D4D;" cx="473.517" cy="366.105" rx="21.993" ry="3.162"/>
	</g>
	<path style="fill:none;stroke:#FFFFFF;stroke-miterlimit:10;" d="M451.523,318.571c0,0,21.515,6.212,43.987,0"/>
	<path style="fill:none;stroke:#FFFFFF;stroke-miterlimit:10;" d="M451.523,347.508c0,0,21.515,6.212,43.987,0"/>
	<ellipse style="fill:#FFFFFF;stroke:#FFFFFF;stroke-miterlimit:10;" cx="473.517" cy="334.593" rx="9.881" ry="9.645"/>
	<g>
		<polygon style="fill:#4D4D4D;" points="470.539,325.819 464.398,331.396 474.017,335.574 		"/>
		<polygon style="fill:#4D4D4D;" points="483.237,332.465 477.97,326.263 473.08,335.559 		"/>
		<polygon style="fill:#4D4D4D;" points="468.374,343.433 476.612,344.254 473.639,334.332 		"/>
	</g>
</g>
<g>
	<g>
		
			<ellipse transform="matrix(7.386962e-004 1 -1 7.386962e-004 1372.5931 -706.7289)" style="fill:#4D4D4D;" cx="1039.922" cy="333.439" rx="27.028" ry="4.148"/>
		<polygon style="fill:#4D4D4D;" points="956.908,360.519 956.868,306.462 1039.863,306.411 1039.903,360.468 		"/>
		
			<ellipse transform="matrix(7.386962e-004 1 -1 7.386962e-004 1289.9377 -623.9106)" style="fill:#4D4D4D;" cx="957.155" cy="333.49" rx="27.028" ry="4.148"/>
	</g>
	<path style="fill:none;stroke:#FFFFFF;stroke-miterlimit:10;" d="M1019.489,306.423c0,0-8.13,26.446,0.04,54.057"/>
	<path style="fill:none;stroke:#FFFFFF;stroke-miterlimit:10;" d="M981.53,306.447c0,0-8.13,26.446,0.04,54.057"/>
	
		<ellipse transform="matrix(7.386962e-004 1 -1 7.386962e-004 1331.2196 -665.2739)" style="fill:#FFFFFF;stroke:#FFFFFF;stroke-miterlimit:10;" cx="998.493" cy="333.465" rx="12.143" ry="12.653"/>
	<g>
		<polygon style="fill:#4D4D4D;" points="1009.999,329.798 1002.677,322.256 997.205,334.08 		"/>
		<polygon style="fill:#4D4D4D;" points="1001.292,345.409 1009.424,338.93 997.224,332.928 		"/>
		<polygon style="fill:#4D4D4D;" points="986.891,327.152 985.822,337.277 998.835,333.615 		"/>
	</g>
</g>
<g style="opacity:0.5;">
	<g>
		<path style="fill:#4D4D4D;" d="M573.32,75.159c26.724,0,53.448,0,80.172,0c13.628,0,25-11.372,25-25s-11.372-25-25-25
			c-26.724,0-53.448,0-80.172,0c-13.628,0-25,11.372-25,25S559.692,75.159,573.32,75.159L573.32,75.159z"/>
	</g>
</g>
<g style="opacity:0.5;">
	<g>
		<path style="fill:#4D4D4D;" d="M624.31,92.885c26.724,0,53.448,0,80.172,0c13.628,0,25-11.372,25-25s-11.372-25-25-25
			c-26.724,0-53.448,0-80.172,0c-13.628,0-25,11.372-25,25S610.682,92.885,624.31,92.885L624.31,92.885z"/>
	</g>
</g>
<g style="opacity:0.5;">
	<g>
		<path style="fill:#4D4D4D;" d="M781.448,70.953c26.724,0,53.448,0,80.172,0c13.628,0,25-11.372,25-25s-11.372-25-25-25
			c-26.724,0-53.448,0-80.172,0c-13.628,0-25,11.372-25,25S767.82,70.953,781.448,70.953L781.448,70.953z"/>
	</g>
</g>
</svg>
