<?xml version="1.0" encoding="iso-8859-1"?>
<!-- Generator: Adobe Illustrator 17.1.0, SVG Export Plug-In . SVG Version: 6.00 Build 0)  -->
<!DOCTYPE svg PUBLIC "-//W3C//DTD SVG 1.1//EN" "http://www.w3.org/Graphics/SVG/1.1/DTD/svg11.dtd">
<svg version="1.1" id="Layer_1" xmlns="http://www.w3.org/2000/svg" xmlns:xlink="http://www.w3.org/1999/xlink" x="0px" y="0px"
	 viewBox="0 0 1076 668" style="enable-background:new 0 0 1076 668;" xml:space="preserve">
<linearGradient id="SVGID_1_" gradientUnits="userSpaceOnUse" x1="537.9878" y1="668.9874" x2="537.9878" y2="0.9884" gradientTransform="matrix(-1 -0.0017 0.0017 -1 1075.4106 670.9147)">
	<stop  offset="0" style="stop-color:#CCE0F4"/>
	<stop  offset="0.0641" style="stop-color:#C3DCF2"/>
	<stop  offset="0.1706" style="stop-color:#A9D2EE"/>
	<stop  offset="0.3066" style="stop-color:#80C2E7"/>
	<stop  offset="0.4649" style="stop-color:#47ACDE"/>
	<stop  offset="0.5674" style="stop-color:#1E9CD7"/>
	<stop  offset="0.8652" style="stop-color:#0075BE"/>
	<stop  offset="0.9944" style="stop-color:#005B97"/>
</linearGradient>
<polygon style="display:none;fill:url(#SVGID_1_);" points="0.576,0.074 1076.575,1.927 1075.424,669.926 -0.575,668.073 "/>
<g>
	
		<ellipse transform="matrix(0.986 -0.1667 0.1667 0.986 -40.2211 34.9846)" style="fill:#B3B3B3;" cx="188.321" cy="257.122" rx="16.053" ry="20.3"/>
	
		<ellipse transform="matrix(0.986 -0.1667 0.1667 0.986 -35.3166 39.2437)" style="fill:#B3B3B3;" cx="216.148" cy="230.031" rx="30.271" ry="33.307"/>
	
		<ellipse transform="matrix(0.986 -0.1667 0.1667 0.986 -41.6379 38.1181)" style="fill:#B3B3B3;" cx="206.281" cy="267.129" rx="11.313" ry="13.106"/>
	
		<ellipse transform="matrix(0.986 -0.1667 0.1667 0.986 -38.2459 40.9993)" style="fill:#B3B3B3;" cx="225.143" cy="248.361" rx="18.805" ry="22.862"/>
	
		<ellipse transform="matrix(0.986 -0.1667 0.1667 0.986 -35.524 44.7352)" style="fill:#B3B3B3;" cx="248.762" cy="234.013" rx="9.785" ry="12.712"/>
	
		<ellipse transform="matrix(0.986 -0.1667 0.1667 0.986 -38.8186 44.4983)" style="fill:#B3B3B3;" cx="245.703" cy="253.523" rx="15.195" ry="18.294"/>
	
		<ellipse transform="matrix(0.986 -0.1667 0.1667 0.986 -31.3007 44.5491)" style="fill:#B3B3B3;" cx="249.764" cy="208.758" rx="27.519" ry="27.789"/>
	
		<ellipse transform="matrix(0.986 -0.1667 0.1667 0.986 -35.5264 47.4446)" style="fill:#B3B3B3;" cx="264.902" cy="235.382" rx="11.833" ry="13.599"/>
</g>
<g>
	<polygon style="fill:#808080;" points="243,416 145,416 243,303.972 	"/>
	<rect x="146" y="414" style="fill:#808080;" width="97" height="159"/>
	<rect x="174" y="284" style="fill:#808080;" width="27" height="110"/>
</g>
<g>
	<polygon style="fill:#808080;" points="339,416 241,416 339,303.972 	"/>
	<rect x="242" y="414" style="fill:#808080;" width="97" height="159"/>
	<rect x="270" y="284" style="fill:#808080;" width="27" height="110"/>
</g>
<g>
	<polygon style="fill:#808080;" points="437,416 339,416 437,303.972 	"/>
	<rect x="340" y="414" style="fill:#808080;" width="97" height="159"/>
	<rect x="368" y="284" style="fill:#808080;" width="27" height="110"/>
</g>
<rect y="573" style="fill:#4D4D4D;" width="1076" height="95"/>
<rect x="1" y="315" style="fill:#666666;" width="129" height="259"/>
<rect x="130" y="414" style="fill:#666666;" width="129" height="160"/>
<rect x="308" y="370" style="fill:#666666;" width="129" height="204"/>
<rect x="436" y="358" style="fill:#666666;" width="129" height="216"/>
<rect x="577" y="394" style="fill:#666666;" width="129" height="180"/>
<rect x="705" y="358" style="fill:#666666;" width="129" height="216"/>
<rect x="833" y="309" style="fill:#666666;" width="129" height="265"/>
<rect x="961" y="309" style="fill:#666666;" width="129" height="265"/>
<g>
	
		<ellipse transform="matrix(0.986 -0.1667 0.1667 0.986 -38.6836 51.3046)" style="fill:#B3B3B3;" cx="286.321" cy="256.122" rx="16.053" ry="20.3"/>
	
		<ellipse transform="matrix(0.986 -0.1667 0.1667 0.986 -33.7791 55.5637)" style="fill:#B3B3B3;" cx="314.148" cy="229.031" rx="30.271" ry="33.307"/>
	
		<ellipse transform="matrix(0.986 -0.1667 0.1667 0.986 -40.1004 54.4381)" style="fill:#B3B3B3;" cx="304.281" cy="266.129" rx="11.313" ry="13.106"/>
	
		<ellipse transform="matrix(0.986 -0.1667 0.1667 0.986 -36.7084 57.3193)" style="fill:#B3B3B3;" cx="323.143" cy="247.361" rx="18.805" ry="22.862"/>
	
		<ellipse transform="matrix(0.986 -0.1667 0.1667 0.986 -33.9865 61.0552)" style="fill:#B3B3B3;" cx="346.762" cy="233.013" rx="9.785" ry="12.712"/>
	
		<ellipse transform="matrix(0.986 -0.1667 0.1667 0.986 -37.2811 60.8183)" style="fill:#B3B3B3;" cx="343.703" cy="252.523" rx="15.195" ry="18.294"/>
	
		<ellipse transform="matrix(0.986 -0.1667 0.1667 0.986 -29.7632 60.8691)" style="fill:#B3B3B3;" cx="347.764" cy="207.758" rx="27.519" ry="27.789"/>
	
		<ellipse transform="matrix(0.986 -0.1667 0.1667 0.986 -33.989 63.7646)" style="fill:#B3B3B3;" cx="362.902" cy="234.382" rx="11.833" ry="13.599"/>
</g>
<g>
	
		<ellipse transform="matrix(0.986 -0.1667 0.1667 0.986 -37.2149 68.8053)" style="fill:#B3B3B3;" cx="391.321" cy="256.122" rx="16.053" ry="20.3"/>
	
		<ellipse transform="matrix(0.986 -0.1667 0.1667 0.986 -32.3104 73.0644)" style="fill:#B3B3B3;" cx="419.148" cy="229.031" rx="30.271" ry="33.307"/>
	
		<ellipse transform="matrix(0.986 -0.1667 0.1667 0.986 -38.6317 71.9388)" style="fill:#B3B3B3;" cx="409.281" cy="266.129" rx="11.313" ry="13.106"/>
	
		<ellipse transform="matrix(0.986 -0.1667 0.1667 0.986 -35.2397 74.82)" style="fill:#B3B3B3;" cx="428.143" cy="247.361" rx="18.805" ry="22.862"/>
	
		<ellipse transform="matrix(0.986 -0.1667 0.1667 0.986 -32.5178 78.5559)" style="fill:#B3B3B3;" cx="451.762" cy="233.013" rx="9.785" ry="12.712"/>
	
		<ellipse transform="matrix(0.986 -0.1667 0.1667 0.986 -35.8124 78.319)" style="fill:#B3B3B3;" cx="448.703" cy="252.523" rx="15.195" ry="18.294"/>
	
		<ellipse transform="matrix(0.986 -0.1667 0.1667 0.986 -28.2945 78.3698)" style="fill:#B3B3B3;" cx="452.764" cy="207.758" rx="27.519" ry="27.789"/>
	
		<ellipse transform="matrix(0.986 -0.1667 0.1667 0.986 -32.5202 81.2653)" style="fill:#B3B3B3;" cx="467.902" cy="234.382" rx="11.833" ry="13.599"/>
</g>
<g>
	<g>
		<path style="fill:#CCCCCC;" d="M73,88.5c37.469,0,74.938,0,112.406,0c62.531,0,125.062,0,187.593,0c18.667,0,37.334,0,56,0
			c13.628,0,25-11.372,25-25s-11.372-25-25-25c-37.469,0-74.938,0-112.406,0c-62.531,0-125.062,0-187.593,0c-18.667,0-37.334,0-56,0
			c-13.628,0-25,11.372-25,25S59.372,88.5,73,88.5L73,88.5z"/>
	</g>
</g>
<g>
	<g>
		<path style="fill:#CCCCCC;" d="M217,135.5c37.469,0,74.938,0,112.406,0c62.531,0,125.062,0,187.593,0c18.667,0,37.334,0,56,0
			c13.628,0,25-11.372,25-25s-11.372-25-25-25c-37.469,0-74.938,0-112.406,0c-62.531,0-125.062,0-187.593,0c-18.667,0-37.334,0-56,0
			c-13.628,0-25,11.372-25,25S203.372,135.5,217,135.5L217,135.5z"/>
	</g>
</g>
<g>
	<g>
		<path style="fill:#CCCCCC;" d="M753,101.5c37.469,0,74.938,0,112.406,0c62.531,0,125.062,0,187.593,0c18.667,0,37.334,0,56,0
			c13.628,0,25-11.372,25-25s-11.372-25-25-25c-37.469,0-74.938,0-112.406,0c-62.531,0-125.062,0-187.593,0c-18.667,0-37.334,0-56,0
			c-13.628,0-25,11.372-25,25S739.372,101.5,753,101.5L753,101.5z"/>
	</g>
</g>
<g style="opacity:0.52;">
	<g>
		<path style="fill:#CCCCCC;" d="M393.79,438.5c47.935,0,95.871,0,143.806,0c1.468,0,2.936,0,4.405,0c13.628,0,25-11.372,25-25
			s-11.372-25-25-25c-47.935,0-95.871,0-143.806,0c-1.468,0-2.936,0-4.405,0c-13.628,0-25,11.372-25,25S380.162,438.5,393.79,438.5
			L393.79,438.5z"/>
	</g>
</g>
</svg>
