<?xml version="1.0" encoding="iso-8859-1"?>
<!-- Generator: Adobe Illustrator 17.1.0, SVG Export Plug-In . SVG Version: 6.00 Build 0)  -->
<!DOCTYPE svg PUBLIC "-//W3C//DTD SVG 1.1//EN" "http://www.w3.org/Graphics/SVG/1.1/DTD/svg11.dtd">
<svg version="1.1" id="Layer_1" xmlns="http://www.w3.org/2000/svg" xmlns:xlink="http://www.w3.org/1999/xlink" x="0px" y="0px"
	 viewBox="0 0 1076 668" style="enable-background:new 0 0 1076 668;" xml:space="preserve">
<linearGradient id="SVGID_1_" gradientUnits="userSpaceOnUse" x1="537.9878" y1="668.9874" x2="537.9878" y2="0.9884" gradientTransform="matrix(-1 -0.0017 0.0017 -1 1075.4106 670.9147)">
	<stop  offset="0" style="stop-color:#CCE0F4"/>
	<stop  offset="0.0641" style="stop-color:#C3DCF2"/>
	<stop  offset="0.1706" style="stop-color:#A9D2EE"/>
	<stop  offset="0.3066" style="stop-color:#80C2E7"/>
	<stop  offset="0.4649" style="stop-color:#47ACDE"/>
	<stop  offset="0.5674" style="stop-color:#1E9CD7"/>
	<stop  offset="0.8652" style="stop-color:#0075BE"/>
	<stop  offset="0.9944" style="stop-color:#005B97"/>
</linearGradient>
<polygon style="display:none;fill:url(#SVGID_1_);" points="0.576,0.074 1076.575,1.927 1075.424,669.926 -0.575,668.073 "/>
<g>
	<ellipse style="fill:#28C3D4;" cx="534.71" cy="340.718" rx="240.738" ry="234.738"/>
	<path style="fill:#75D850;" d="M354.918,399.652c0,0,8.465-68.238,70.137-81.406c61.672-13.169,29.022,65.843,87.067,40.703
		c58.045-25.14,70.137,34.717,59.254,74.223s-45.952,76.618-83.439,51.478s-118.508-57.463-141.483-53.872
		S354.918,399.652,354.918,399.652z"/>
	<path style="fill:#75D850;" d="M352.977,225.951c0,0,24.499-87.84,120.638-106.937s74.499,24.145,102.605,2.975
		s108.643,84.253-12.678,112.835s-187.241,82.565-188.516,82.03C373.75,316.319,287.909,288.17,352.977,225.951z"/>
	<path style="fill:#75D850;" d="M466.689,547.889c0,0,174.979,57.181,274.421-118.86s-77.298-20.856-84.398-9.27
		s-117.426,39.992-71.025,62.85S431.753,533.006,466.689,547.889z"/>
	<path style="fill:#75D850;" d="M604,301.622c0,0,7.761,44.129,48.391,28.796c40.63-15.333,5.478-31.414,33.782-23.56
		s-9.587-45.625-24.195-39.641c-14.609,5.984-51.13-2.842-57.978,32.985"/>
</g>
<g style="opacity:0.57;">
	<g>
		<path style="fill:#FFFFFF;" d="M210,341.5c48.786,0,97.572,0,146.358,0c20.881,0,41.761,0,62.642,0c13.628,0,25-11.372,25-25
			s-11.372-25-25-25c-48.786,0-97.572,0-146.358,0c-20.881,0-41.761,0-62.642,0c-13.628,0-25,11.372-25,25S196.372,341.5,210,341.5
			L210,341.5z"/>
	</g>
</g>
<g style="opacity:0.57;">
	<g>
		<path style="fill:#FFFFFF;" d="M650,465.5c48.786,0,97.572,0,146.358,0c20.881,0,41.761,0,62.642,0c13.628,0,25-11.372,25-25
			s-11.372-25-25-25c-48.786,0-97.572,0-146.358,0c-20.881,0-41.761,0-62.642,0c-13.628,0-25,11.372-25,25S636.372,465.5,650,465.5
			L650,465.5z"/>
	</g>
</g>
<g style="opacity:0.57;">
	<g>
		<path style="fill:#FFFFFF;" d="M479,524.5c48.786,0,97.572,0,146.358,0c20.881,0,41.761,0,62.642,0c13.628,0,25-11.372,25-25
			s-11.372-25-25-25c-48.786,0-97.572,0-146.358,0c-20.881,0-41.761,0-62.642,0c-13.628,0-25,11.372-25,25S465.372,524.5,479,524.5
			L479,524.5z"/>
	</g>
</g>
<g style="opacity:0.57;">
	<g>
		<path style="fill:#FFFFFF;" d="M696.5,256.5c34.833,0,69.667,0,104.5,0c13.628,0,25-11.372,25-25s-11.372-25-25-25
			c-34.833,0-69.667,0-104.5,0c-13.628,0-25,11.372-25,25S682.872,256.5,696.5,256.5L696.5,256.5z"/>
	</g>
</g>
</svg>
