<svg xmlns="http://www.w3.org/2000/svg" viewBox="0 0 1920 429" id="el_CdbrpG1Zt"><style>@-webkit-keyframes kf_el_9ttlz69zpb_an_TSFM1zt_m{0%{-webkit-transform: translate(1312.550048828125px, 185.99002075195312px) translate(-1312.550048828125px, -185.99002075195312px) translate(0px, 0px);transform: translate(1312.550048828125px, 185.99002075195312px) translate(-1312.550048828125px, -185.99002075195312px) translate(0px, 0px);}50%{-webkit-transform: translate(1312.550048828125px, 185.99002075195312px) translate(-1312.550048828125px, -185.99002075195312px) translate(-200px, 0px);transform: translate(1312.550048828125px, 185.99002075195312px) translate(-1312.550048828125px, -185.99002075195312px) translate(-200px, 0px);}100%{-webkit-transform: translate(1312.550048828125px, 185.99002075195312px) translate(-1312.550048828125px, -185.99002075195312px) translate(0px, 0px);transform: translate(1312.550048828125px, 185.99002075195312px) translate(-1312.550048828125px, -185.99002075195312px) translate(0px, 0px);}}@keyframes kf_el_9ttlz69zpb_an_TSFM1zt_m{0%{-webkit-transform: translate(1312.550048828125px, 185.99002075195312px) translate(-1312.550048828125px, -185.99002075195312px) translate(0px, 0px);transform: translate(1312.550048828125px, 185.99002075195312px) translate(-1312.550048828125px, -185.99002075195312px) translate(0px, 0px);}50%{-webkit-transform: translate(1312.550048828125px, 185.99002075195312px) translate(-1312.550048828125px, -185.99002075195312px) translate(-200px, 0px);transform: translate(1312.550048828125px, 185.99002075195312px) translate(-1312.550048828125px, -185.99002075195312px) translate(-200px, 0px);}100%{-webkit-transform: translate(1312.550048828125px, 185.99002075195312px) translate(-1312.550048828125px, -185.99002075195312px) translate(0px, 0px);transform: translate(1312.550048828125px, 185.99002075195312px) translate(-1312.550048828125px, -185.99002075195312px) translate(0px, 0px);}}@-webkit-keyframes kf_el_8UhV0nG2Qh_an_JfvvokzK-{0%{-webkit-transform: translate(168.16998291015625px, 71px) translate(-168.16998291015625px, -71px) translate(0px, 0px);transform: translate(168.16998291015625px, 71px) translate(-168.16998291015625px, -71px) translate(0px, 0px);}50%{-webkit-transform: translate(168.16998291015625px, 71px) translate(-168.16998291015625px, -71px) translate(200px, 0px);transform: translate(168.16998291015625px, 71px) translate(-168.16998291015625px, -71px) translate(200px, 0px);}100%{-webkit-transform: translate(168.16998291015625px, 71px) translate(-168.16998291015625px, -71px) translate(0px, 0px);transform: translate(168.16998291015625px, 71px) translate(-168.16998291015625px, -71px) translate(0px, 0px);}}@keyframes kf_el_8UhV0nG2Qh_an_JfvvokzK-{0%{-webkit-transform: translate(168.16998291015625px, 71px) translate(-168.16998291015625px, -71px) translate(0px, 0px);transform: translate(168.16998291015625px, 71px) translate(-168.16998291015625px, -71px) translate(0px, 0px);}50%{-webkit-transform: translate(168.16998291015625px, 71px) translate(-168.16998291015625px, -71px) translate(200px, 0px);transform: translate(168.16998291015625px, 71px) translate(-168.16998291015625px, -71px) translate(200px, 0px);}100%{-webkit-transform: translate(168.16998291015625px, 71px) translate(-168.16998291015625px, -71px) translate(0px, 0px);transform: translate(168.16998291015625px, 71px) translate(-168.16998291015625px, -71px) translate(0px, 0px);}}#el_CdbrpG1Zt *{-webkit-animation-duration: 6s;animation-duration: 6s;-webkit-animation-iteration-count: infinite;animation-iteration-count: infinite;-webkit-animation-timing-function: cubic-bezier(0, 0, 1, 1);animation-timing-function: cubic-bezier(0, 0, 1, 1);}#el_CN_i7zbCZi{fill: #424242;-webkit-transform: translate(0.04px, -71px);transform: translate(0.04px, -71px);}#el_cuE6MTqj0D{fill: #424242;-webkit-transform: translate(0.04px, -71px);transform: translate(0.04px, -71px);}#el_oy1TpRwjuj{fill: #545454;-webkit-transform: translate(0.04px, -71px);transform: translate(0.04px, -71px);}#el_FpJJvH2sKs{fill: #545454;-webkit-transform: translate(0.04px, -71px);transform: translate(0.04px, -71px);}#el_WxIQq1prxj{fill: #727272;-webkit-transform: translate(0.04px, -71px);transform: translate(0.04px, -71px);}#el_8UhV0nG2Qh{fill: #c1ced3;-webkit-transform: translate(0.04px, -71px);transform: translate(0.04px, -71px);}#el_9ttlz69zpb{fill: #c1ced3;-webkit-transform: translate(0.04px, -71px);transform: translate(0.04px, -71px);}#el_8UhV0nG2Qh_an_JfvvokzK-{-webkit-animation-fill-mode: backwards;animation-fill-mode: backwards;-webkit-transform: translate(168.16998291015625px, 71px) translate(-168.16998291015625px, -71px) translate(0px, 0px);transform: translate(168.16998291015625px, 71px) translate(-168.16998291015625px, -71px) translate(0px, 0px);-webkit-animation-name: kf_el_8UhV0nG2Qh_an_JfvvokzK-;animation-name: kf_el_8UhV0nG2Qh_an_JfvvokzK-;-webkit-animation-timing-function: cubic-bezier(0, 0, 1, 1);animation-timing-function: cubic-bezier(0, 0, 1, 1);}#el_9ttlz69zpb_an_TSFM1zt_m{-webkit-animation-fill-mode: backwards;animation-fill-mode: backwards;-webkit-transform: translate(1312.550048828125px, 185.99002075195312px) translate(-1312.550048828125px, -185.99002075195312px) translate(0px, 0px);transform: translate(1312.550048828125px, 185.99002075195312px) translate(-1312.550048828125px, -185.99002075195312px) translate(0px, 0px);-webkit-animation-name: kf_el_9ttlz69zpb_an_TSFM1zt_m;animation-name: kf_el_9ttlz69zpb_an_TSFM1zt_m;-webkit-animation-timing-function: cubic-bezier(0, 0, 1, 1);animation-timing-function: cubic-bezier(0, 0, 1, 1);}</style><defs/><title>city</title><g id="el_J6um4Hs30E" data-name="Layer 1"><path d="M1232.47,150.4l-15.38,15.52v61.24c-.12,51.9-.36,61.6-1.81,63.54s-1.8,6.55-1.8,21v18.55h-4c-3.37,0-5.41-1.57-14.3-10.67L1184.64,309l-.24-22.43c-.36-22.19-.36-22.44-3-22.8-2.4-.36-2.76-1.09-2.76-5.82,0-4.49-.36-5.34-2.41-5.34s-2.4-.84-2.4-7.27c0-5.58-.36-7.28-1.68-7.28s-1.92-1.82-2.17-6.42l-.36-6.31-6.24-.36-6.37-.37v6.79c0,4.85-.48,6.92-1.8,7.4s-1.81,2.55-1.81,6.67c0,5.09-.36,5.94-2.4,5.94-2.28,0-2.4.85-2.4,26.68v26.68h-3.49c-3.36,0-3.6.24-4,5.7s-.6,5.82-4.45,6.54c-2.4.49-6.25,3-9.85,6.67L1121,329.5V299.55c0-28.86-.12-29.95-2.28-29.95-1.68,0-2.53-1-2.77-3.39-.36-3.16-.6-3.28-7-3.28s-6.61.12-7,3.28c-.36,2.66-1.09,3.39-3.37,3.39h-2.88v35.17h-13.22v-17.1l-5,.36c-4.2.25-5.16.85-5.16,2.79a2.7,2.7,0,0,1-2.65,2.79c-2.4.37-2.76,1.09-2.76,5.82v5.34h-21.27L1040,298.7c-4.57-5-5.53-6.79-5.53-10.67,0-3.63-.84-5.45-4.21-8.73-3.12-3-4.2-5.09-4.2-8.12,0-3.76-.24-4-4.21-4-3.72,0-4.2-.37-4.2-3,0-2.91-.36-3-7.21-3s-7.21.12-7.21,2.91c0,2.06-.72,3.16-2.53,3.4-2.4.36-2.52,1.09-2.64,16.73l-.24,16.37-3.24.37c-3.25.36-3.37.6-3.37,8s0,7.52-6.61,14.07L978,329.5V261.23l-8.66-.36-8.77-.36-.36-4.61-.36-4.49H937.48L931.23,258l-6.12,6.67v46.2h-4.57c-3.12,0-5.41.85-6.73,2.3a10.65,10.65,0,0,1-6,2.79c-3.72.37-3.72.37-4.08,8l-.36,7.64-9.25-.37-9.26-.36-.6-14.55-.6-14.55-6.85-.37-7-.36V211.4H858.78c-10.33,0-11.29.24-14.42,3.27-3.36,3.15-3.36,3.39-3.36,18.19v15l-5-.37-5.17-.36-.36-40.87-.24-40.86-9.37-.37-9.25-.36-.36-7c-.24-3.76-1-6.92-1.56-6.92s-6.49,5.22-12.86,11.65l-11.66,11.64-.6,62.57-.6,62.69H770.71L770.34,288c-.24-8.85-.72-11.15-2-11.15-1.56,0-1.8-2.91-1.8-17v-17h-3.6a8.85,8.85,0,0,1-6.49-3c-2.53-2.79-3.73-3-12.38-3-8.41,0-9.85.36-12.13,2.79-2.53,2.67-2.65,3.88-2.65,26.07V289H714.83v23.16l-10.45-.36-10.57-.36-.37-48.87-.24-48.75H666.89l-.36,3.88c-.24,3-1,4.12-3,4.37l-2.77.36v96.89h-3.48c-3.37,0-3.61.24-4,5.7l-.36,5.82-6.85.36-7,.37v-9.22c0-8.85-.12-9.09-3-9.09h-3V289h-3.61c-3.36,0-3.6-.24-3.6-4.85,0-4.36-.36-4.85-2.89-4.85s-3-.73-3.36-4l-.36-3.88H611.5c-6.13,0-7.81.36-7.81,1.82,0,1.21-1.56,2.06-4.81,2.42l-4.8.61-.36,11.88L593.35,300l-5-.37-5-.36-.36-13.1-.36-13h-7c-5.77,0-7.33.48-9.73,3s-4,3-9.85,3h-7v21.83c0,16.61-.36,21.83-1.44,22.07-.85,0-2.41.12-3.37.24s-1.92,1.58-2.16,4.12l-.36,4-13.46-.37-13.46-.36L514.41,305c-.24-21.71-.6-25.71-2-25.71-1.2,0-1.8-1.21-1.8-3.64,0-3.63-.12-3.63-6.61-3.63-6.25,0-6.61.24-6.61,2.91,0,2.18-.72,3-2.64,3.39s-2.89,1.34-3.13,3.64c-.24,1.94-.84,3.4-1.44,3.4s-1.32,10.06-1.44,22.67l-.36,22.8H472.72l-.6-9-.6-8.86-10.22-.24-10.21-.12-.36-33.11c-.24-32-.36-33-2.64-33a2.17,2.17,0,0,1-2.41-2.42c0-2.19-.84-2.43-7.33-2.43-4,0-7,.49-6.61,1.09,1.33,2.19-.72,5-3.6,5h-2.88V289H412l-.24,20.86-.36,21-3.85.36-4,.37V278.09H398.7c-3.84,0-5,.48-5.53,2.42a3.31,3.31,0,0,1-2.88,2.43c-2,0-2.28,1.58-2.52,23.89-.36,23.89-.36,24-3,24.37l-2.76.37V500H1920V289h-16.82l-.24,20.86-.36,21h-18l-.36-40.38L1884,250.2h-6.37c-5.76,0-6.72.36-10.81,4.61l-4.44,4.61v44.13h-3.49c-4.69,0-9.73,5.95-9.73,11.65,0,3.27-.48,4.12-2.41,4.12-2.28,0-2.4-.85-2.4-25.47V268.39h-5.77c-7.69,0-10.81,3.15-11.29,11.52l-.36,6.06-6.85.37-7,.36-.24-23.4c-.36-22.44-.48-23.41-2.76-23.41-1.56,0-2.53-1-2.77-2.79-.36-2.3-1.08-2.79-4.2-2.42s-4,1-4.21,3.64c-.36,3-1,3.39-4.68,3.39h-4.33l.6,38.44c.36,21.22.36,41.47.12,44.87l-.72,6.43h-28.48V298.7H1750.7l-.36-14.3-.36-14.19-10.45-.37-10.58-.36v54.69h-8.41V309.74c0-14.19-.12-14.55-3.12-17-2.41-1.82-4.93-2.54-9.62-2.54h-6.48V257.48H1685.7v18.06c0,16.13-.25,18.31-2.41,21.1-1.8,2.31-2.4,4.85-2.4,11v8h-13.1l-.36-17.95-.36-17.82-7.45-.37-7.57-.36v3.64c0,3.52-.24,3.64-5.65,4l-5.76.36-.36,14.19-.36,14.31h-13.1V282.94h-6.37c-5.29,0-7,.49-9.25,3s-4,3-9.61,3c-8.42,0-12,3-12,10.07v4.48h-13.1l-.36-16.12-.36-16-11.65-.36-11.78-.37v20.62l-8.65.36-8.77.36-.36,14.19-.36,14.31h-21.51v-4.24c0-3.4-1-5.1-5.41-9.22-5.16-4.73-5.4-5.33-5.4-11.52V289H1485v9.46c0,7.76-.48,10-2.16,11.52-3.84,3.52-8.89,2.55-13.82-2.54-4.2-4.25-4.44-5.1-4.44-12.13v-7.52h-8.41v-34H1437v77.73l-7.45-.37-7.57-.36-.36-17.1-.36-17.1-3.48-3.39c-3.49-3.4-3.61-3.88-3.61-14.31,0-14.31-.6-15.4-9.61-15.4h-7.21v42l-3.6,3.51-3.61,3.52V290.22h-3.6c-3,0-3.61-.49-3.61-2.91,0-3.88-.84-4.37-7.09-3.52-3.72.48-5.4,1.33-5.77,2.91s-1.8,2.3-4.08,2.3h-3.48l-.25,20.86-.36,21h-14.41l-.37-25.83-.24-25.71h-3.36c-2.4,0-4.93-1.7-9.25-6.06-5.65-5.7-6.25-6.06-12.26-6.06s-6.37.12-6.37,3c0,2.67-.48,3-4.8,3H1306v9.7h-6.61c-6.49,0-6.61,0-6.61,3.64,0,3.27-.36,3.64-3.6,3.64h-3.6v41.23h-8.9c-7,0-9-.37-9.61-1.95-.36-1.09-.72-8.6-.72-16.85,0-11.76-.36-15.16-1.8-16.37s-1.8-4.12-1.8-11.64V274.45h-14.42l-.24-69.72-.36-69.73Z" id="el_CN_i7zbCZi"/><path d="M379.15,331c-2.72-.37-2.72-.49-3.09-24.41-.25-22.34-.49-23.92-2.6-23.92a3.41,3.41,0,0,1-3-2.43c-.49-1.94-1.73-2.42-5.69-2.42h-5.07v53.54l-4.08-.36-4-.37-.37-21-.25-20.89H337.46V247.45h-3c-3,0-5.07-2.79-3.71-5,.37-.6-2.72-1.09-6.8-1.09-6.68,0-7.55.24-7.55,2.43a2.2,2.2,0,0,1-2.47,2.43c-2.35,0-2.48,1-2.73,33l-.37,33.15-10.51.12-10.52.24-.62,8.87-.62,9H272.51l-.37-22.82c-.12-12.63-.74-22.71-1.48-22.71s-1.24-1.46-1.49-3.4c-.25-2.31-1.11-3.4-3.22-3.64s-2.72-1.22-2.72-3.4c0-2.67-.37-2.92-6.8-2.92-6.68,0-6.81,0-6.81,3.65,0,2.43-.61,3.64-1.85,3.64-1.49,0-1.86,4-2.11,25.74l-.37,25.86-13.85.37-13.86.36-.37-4c-.25-2.55-1.11-4-2.23-4.12a33.14,33.14,0,0,0-3.46-.25c-1.11-.24-1.49-5.46-1.49-22.09V279h-7.17c-6.06,0-7.67-.49-10.15-3s-4.08-3-10-3h-7.17l-.37,13-.37,13.11-5.2.37-5.2.36-.37-11.9-.37-11.9-4.95-.6c-3.34-.37-4.95-1.22-4.95-2.43,0-1.46-1.73-1.82-8-1.82h-8l-.37,3.88c-.37,3.28-.87,4-3.46,4s-3,.49-3,4.86c0,4.61-.25,4.85-3.72,4.85h-3.71V313h-3.09c-3,0-3.09.24-3.09,9.1v9.23l-7.18-.36-7-.37-.37-5.83c-.37-5.46-.62-5.7-4.08-5.7H95v-97l-2.85-.37c-2.1-.24-2.84-1.33-3.09-4.37l-.37-3.89H61.58l-.25,48.81L61,311.2l-10.89.36-10.76.36V288.73H24.46V265.42c0-22.22-.12-23.43-2.72-26.1-2.35-2.43-3.84-2.8-12.5-2.8-4.9,0-7.48.08-9.24.61V500H382V331.35Z" id="el_cuE6MTqj0D"/></g><g id="el_yciQAWECCM" data-name="Layer 3"><g id="el_6UrbPx5S5v"><g id="el_tITX6QfrpW"><path id="el_oy1TpRwjuj" d="M196,419.35V339.5l4.71-.08,4.71-.09.08-5.79c.06-5.08.13-5.85.56-6.21s.46-.43,0-.81c-.7-.58-.62-1.86.2-3.31.58-1,.75-1.86,1-4.77.15-1.94.26-3.75.26-4s0-1.22.12-2.14a3.33,3.33,0,0,0-.4-2.4,3.12,3.12,0,0,1-.52-1.56,6.18,6.18,0,0,0-.56-2l-.56-1.23.62-.48a2.43,2.43,0,0,1,1.27-.49c.35,0,.65-.1.66-.23s.06-.66.12-1.18.16-3.05.25-5.64.23-5.69.32-6.92c.12-1.8.06-2.3-.31-2.64s-.41-.78-.26-2.32a9.51,9.51,0,0,1,1.44-4.15,10.3,10.3,0,0,1,2.15-2.85,9.62,9.62,0,0,1,6.11-1.2c2.41.23,2.68.08,3-1.6.15-.83.07-1-.63-1.39s-.79-.6-.72-1.52a3.16,3.16,0,0,1,.36-1.39c.41-.46,20-.57,28.55-.16,6.38.3,11.55.7,13.77,1a1.76,1.76,0,0,0,1.19-.18c.24-.22.65-.16,1.34.2.94.5,1,.59,1,2.17a4.53,4.53,0,0,1-.33,2c-.25.28-.24.68,0,1.7.2.74.4,1.5.44,1.7s1.53.41,4.26.52c2.3.1,6.39.39,9.1.66s6.69.64,8.86.82,4.11.39,4.33.48c.52.21.19,4.43-.4,5.16a2.28,2.28,0,0,0-.42,1.25,3.05,3.05,0,0,1-.73,1.59c-.69.81-.74,1.1-1,5.81-.16,2.73-.3,6.44-.33,8.25l-.05,3.29,1.07.1c1.3.12,1.57.71.81,1.78a5.59,5.59,0,0,0-.77,1.81,5.65,5.65,0,0,1-.86,1.89c-.57.75-.68,1.27-.73,3.45,0,1.4-.1,3.47-.14,4.59s-.08,4.31-.08,7.08-.1,6-.24,7.05c-.34,2.72,0,5.59.82,6.3a2,2,0,0,0,1.08.55c.66,0,.45-1.95-.29-2.69-.53-.54-.52-.57.28-1.51s.84-1.1,1-5c.11-2.24.24-5.34.28-6.89.15-6,.48-9.7.92-10.26s1-.55,5.32-.55c5.12,0,6,.19,6,1.3,0,.39.14.59.35.49,3.79-1.67,5.32-1.79,24.05-1.79,9.15,0,16.7-.11,16.78-.25s.17-2.17.22-4.51l.09-4.27,2.39-.16c1.32-.09,3.64-.17,5.16-.18a15,15,0,0,0,3-.2,11.08,11.08,0,0,0,.25-3.15c0-3.92.29-4.54,2.45-5.22a39,39,0,0,1,5.85-.88,46,46,0,0,1,9-.2c3.63.17,4.94-.22,4.94-1.48a1.31,1.31,0,0,1,.57-1.11c.4-.24,4.88-.32,14.7-.25l14.12.1.14,1.88.14,1.87,5.63.2c3.09.1,6.84.2,8.32.22,2.07,0,2.78.14,3.06.51a1.72,1.72,0,0,0,2.54-.14c.41-.85,1.13-.79,1.82.14.51.68.86.79,3,.94,5.59.39,8.48.76,8.89,1.14s.42,1.1.32,4.89c-.13,5,0,5.56,1.31,4.8a1,1,0,0,1,1.33.08c.83.58,3.84.88,4.12.4a8.72,8.72,0,0,0,.34-2.06l.14-1.72,12.52,0c10.18,0,12.66,0,13.29.4.89.5.85.24.78,5.53-.05,3.44,0,4.11.44,4.62.64.8.91.76,1.29-.18s.81-1,1.65,0a1.69,1.69,0,0,0,1.25.7c.71-.11.9-1.63,1.12-9,.09-2.85.22-5.52.29-5.95a84.74,84.74,0,0,0,.95-9.87c0-1,.1-5.26.28-9.39s.45-10.06.59-13.16.26-7.55.27-9.9c0-4.94.19-6.13.88-6.55a9.27,9.27,0,0,1,2.65-.37,5.76,5.76,0,0,0,2.39-.39,34.25,34.25,0,0,0,.39-5c.08-2.59.29-7.87.46-11.75.3-7,.51-13.61.67-21.6.15-7,.5-15.12.71-16.28.17-.95.33-1.12,1.37-1.41a3.2,3.2,0,0,0,1.58-.94,3.28,3.28,0,0,1,1.77-.94l1.36-.32,0-3.29c0-1.81.18-6.32.34-10,.49-10.92.56-12.56.92-22.08.19-5,.37-10.7.41-12.68.15-9.15.54-16.58.89-17a4.24,4.24,0,0,1,3.18-.15c.32.17.59,0,.9-.51s.46-1.79.51-5.22c.08-4.41.28-5.33,1.14-5.33a44.91,44.91,0,0,0,6.12-.94,2.65,2.65,0,0,0,.7-1.28,4.79,4.79,0,0,1,4-3.11c1.44,0,1.68.37,1.29,2-.48,1.93.36,2.62,1.93,1.58.79-.51.83-.51,1.51.2s.85.72,3.45.56a38.21,38.21,0,0,1,5.64.15l2.87.32,1.58-1.6c2.15-2.19,3.25-2.15,2.69.11-.15.61-.16,1.18,0,1.27.48.33,4.57.47,4.89.17a4,4,0,0,1,1.45-.5,2.22,2.22,0,0,1,2.12.57,5.51,5.51,0,0,0,3.1,1l5.88.54a16.5,16.5,0,0,1,4.4.78,2.94,2.94,0,0,0,1.41.42c1.39,0,4.36.58,4.67.93s.34,2.67,0,6.06a26.51,26.51,0,0,0,0,4c.22,2.1.54,2.33,1.76,1.26.81-.72,1.83-.81,2.28-.22a9.18,9.18,0,0,1,.36,2.74c.06,2.55-.42,18.22-.85,27.7-.15,3.27-.27,6.23-.26,6.58s-.15,4.85-.35,10c-.4,10.52-.4,10.81-.32,13.54.05,1.7.13,2,.6,2,.91,0,1.43.35,1.43,1,0,.33-.17.6-.36.6-.46,0-1.9,1.8-1.9,2.37,0,.23.17.36.36.27s.49.24.68.79c.31.93,1,1.26,1.35.64.1-.18.37-.19.65,0a9.5,9.5,0,0,0,1.3.54,1.87,1.87,0,0,1,1,.74c.11.26.35.8.53,1.2s.27.83,0,1.17c-.53.7-.81,8.21-.36,9.49a2.61,2.61,0,0,1,.2,1.35,4.74,4.74,0,0,0-.24,1.3c0,.54-.2,1.7-.36,2.56a56,56,0,0,0-.34,6.24,49,49,0,0,1-.19,4.94c-.08.14-.19,2.52-.26,5.29s-.25,5.91-.4,7a33.82,33.82,0,0,0-.11,5.22l.18,3.29,1.16-.12a3.45,3.45,0,0,0,1.54-.47,5,5,0,0,1,1.55-.69l1.16-.32.2-5.16c.1-2.83.26-7.55.33-10.47.12-4.71.59-17.87,1.26-35.47.14-3.71.33-5.85.55-6.1.45-.5,3.94-.73,4.35-.28a1,1,0,0,0,.61.35c.73,0,1-2,1.15-10.17.11-4.65.24-9.16.3-10s.23-5.24.38-9.72c.34-10,.46-13.54.84-23.48.16-4.31.36-10,.44-12.64a47.18,47.18,0,0,1,.31-5.11c.29-.52,1.52-.89,3.1-.93,1.16,0,1.59-.17,1.8-.6a31,31,0,0,0,.27-5.25c0-3.48.1-4.76.37-5a14.51,14.51,0,0,1,3.73-.69c3.94-.4,6-.81,6.43-1.24s2.22-.36,2.93.19c.47.37,1,.45,2.24.33l1.88-.2c.16,0,3,0,6.37.09l6.08.13.75-1c.76-1.06,1.55-1.38,1.6-.66,0,.22.05.74.07,1.17,0,.78,0,.79,3.19.88,2.74.07,3.26,0,4.07-.55,1.4-1,2.66-.85,3.17.25.41.88.43.89,4.57,1.27,8.14.75,9.41,1,11.24,1.94a10,10,0,0,0,2.09.91,5.5,5.5,0,0,1,2.75,1.62,8,8,0,0,1,0,3.28c-.15,1.53-.27,3.92-.27,5.32,0,2.93.23,3.34,1.87,3.19.85-.08,1.15-.28,1.44-1,.21-.47.5-.86.65-.86.69,0,.88,1.8.65,6.26-.13,2.5-.26,6-.28,7.83-.13,8.57-.4,15.74-.67,18.16a49.11,49.11,0,0,0-.23,5.64c0,1.64-.1,6.78-.32,11.43-.41,9-.64,15.93-.69,21l0,3.14,1.38-.09c1.64-.09,1.9-.28,1.18-.86s-.4-1.41.45-1.39a3.82,3.82,0,0,1,1.71,1c1.28,1.23,1.26.8.75,12.43-.2,4.57-.4,9.85-.44,11.75s-.21,7.25-.38,11.9c-.45,12.07-.66,18.77-.69,21.29,0,2.07,0,2.2.63,2.3a1.59,1.59,0,0,0,1.19-.44c.43-.43.84-.5,2-.34a3.28,3.28,0,0,1,1.78.65,7.25,7.25,0,0,1,.24,2.59c0,1.17-.14,4.67-.23,7.77s-.24,8.1-.32,11.12-.28,9.42-.45,14.24-.35,10.46-.41,12.53-.16,5.52-.22,7.67-.19,6.6-.29,9.87-.24,8.63-.32,11.9c-.36,14.95-.59,20.05-1,20.81s-.34,2.44-.19,9.08c.21,9.11.29,9.5,2,10.13a1.3,1.3,0,0,0,1.55-.34c.93-.76,2.94-1,8-1l3.64,0,.76.91a2.54,2.54,0,0,0,1.2.91,5,5,0,0,0,1.73-1.25c1.28-1.23,1.34-1.25,3.5-1.25a5.37,5.37,0,0,1,3.57.84,12.08,12.08,0,0,1,2.3,1.87,4.4,4.4,0,0,0,1.69,1.22c.42.11,1.08.31,1.46.45a13.6,13.6,0,0,0,1.49.45c.58.15.82.43,1,1.14a2.72,2.72,0,0,0,2.23,2.17c1.4,0,1.43-.27,1.5-16.75,0-8.44.12-17.11.17-19.26.16-6.72.71-18.88.86-19.16s1.88-.33,2.75,0a1,1,0,0,0,1.28-.24c.46-.42.59-1,.65-2.72l.08-2.19,1.12.08c.62,0,2.08.08,3.24.08a12.62,12.62,0,0,1,3,.32c1.47.53,2.29,0,2.52-1.73a2.47,2.47,0,0,1,.72-1.75c.49-.29.53-.75.53-5.75,0-4.44.08-5.5.42-5.82s.43-1.06.43-2.93c0-2.22.1-2.67.69-3.47l.68-.93,7.21,0c5,0,7.3.14,7.53.39s.3,1.53.25,3.8l-.06,3.44h2.7c2,0,2.91.13,3.49.51a1.46,1.46,0,0,0,2.47-.89c.28-1.18,1-1.59.84-.52-.06.68.06.75,2,1a13.09,13.09,0,0,1,3,.69l.93.43.08,8.09.07,8.08,7.85.08c5.35.06,8,.2,8.24.44s.37,1,.32,2.51c-.06,2,0,2.22.69,3s.86.79,1.51.54a1.63,1.63,0,0,0,1-1.14c.28-1.16.7-10.53,1-21.71.36-14.63,1-30.89,1.26-32.41a36.2,36.2,0,0,0,.53-10.29c-.42-4.78.45-34.18,1-35.48a2.53,2.53,0,0,1,1.44-1.22,4.69,4.69,0,0,0,1.32-.64,2.57,2.57,0,0,1,1.46-.07,3.6,3.6,0,0,0,2.48-.49c1.48-.77,1.67-.79,2.38-.3s1.44.14,1.44-.63a1.39,1.39,0,0,1,.35-.91c.44-.39,6-1.15,6.38-.87.2.13.15.45-.15,1-.43.74-.42.75.64.95.59.11,1.52.33,2.06.49a11.21,11.21,0,0,0,2.43.28c1.3,0,1.47-.08,1.62-.75a2.9,2.9,0,0,0,0-1.25.52.52,0,0,1,.31-.7c.27-.12,5,.05,10.5.36,8.87.5,10.12.64,11,1.18l.93.61-.73.75c-.41.42-.69.92-.63,1.12.14.46,1.6.92,2.22.71s5.34-.22,9.52,0c2.8.15,3.7.32,4.42.81a2.46,2.46,0,0,1,.86,3.19c-.61,1.06-.78,3.52-.29,4.3.32.49.37,1.14.22,2.75-.1,1.16-.17,3.92-.15,6.15,0,3.15-.07,4.28-.42,5.11a5.14,5.14,0,0,0-.3,2.69c.51,5,.51,5.4.06,6.6-.53,1.41-.59,4.32-.11,5.18.26.46.25,1.11,0,2.89-.58,3.77-.68,5.61-.35,6,.49.54.39,4-.14,4.86a2.89,2.89,0,0,0-.28,2c.42,3.33.51,6.18.21,6.58s-.42,3-.17,6.45a7.07,7.07,0,0,1-.16,3,5.61,5.61,0,0,0-.15,2.7c.27,2.63.2,5.54-.15,6.26a17.47,17.47,0,0,0-.09,4.49c.14,2.78.1,4-.13,4.33a4.26,4.26,0,0,0-.16,2.28c.46,5.07.46,6.1,0,7.22a4.22,4.22,0,0,0-.29,2.41c.11.71.26,2.35.34,3.64a7,7,0,0,0,.45,2.56,1.35,1.35,0,0,0,1-.09c.56-.24.83-.16,1.36.4s.66,1,.66,2.68,0,2,.7,2.28.71.52.71,1.37a2.3,2.3,0,0,0,.35,1.38,10.84,10.84,0,0,0,2.88.68c2.71.4,4.22,1,4.65,1.9a2.23,2.23,0,0,0,1.11.89c.69.26.85.5.85,1.26a1.77,1.77,0,0,1-.31,1.16c-.2.13,0,.49.45,1s.67.88.45,1.12c-.56.62-.32,1.34,1,2.84l1.28,1.48,3.15-.15c1.74-.08,3.34-.19,3.58-.23a4.29,4.29,0,0,1,1.33.16c.9.23.92.21.92-.85a2.29,2.29,0,0,1,.35-1.39,9.74,9.74,0,0,1,2.92-.5c2.08-.16,2.64-.11,2.92.27s.88.46,2,.46c2.18,0,3.33.64,3.33,1.86,0,.86.07.91,1.48,1.08.81.09,1.6.17,1.75.16a48.9,48.9,0,0,1,5.21.19l3,.32c.78.09,1.85.16,2.38.17a2.68,2.68,0,0,1,1.27.26,7.84,7.84,0,0,0,2.35.29c2.71.07,3,.29,3.24,2.27s.55,2.48,1.9,2.48a3.64,3.64,0,0,1,2.11.79,3.83,3.83,0,0,0,1.54.78,1.79,1.79,0,0,0,1.39-1.28c0-.16.25-.29.56-.29s.56.17.56.36.74.3,2.75.12c3.55-.31,3.25-.35,5.69.61,4.45,1.73,6.31,2,15,2.07.61,0,.91.31,1.59,1.63,1.22,2.38,4.07,5.48,5.89,6.41a4.26,4.26,0,0,0,3.26.55,30.21,30.21,0,0,1,3.78-.17c2.8.07,4.73-.6,6-2.09,1.73-2,2-3,2.12-6.51.17-8.35.27-10.06.64-10.81.21-.43.47-1,.57-1.25.31-.74,1.33-.73,2.28,0,.72.57,1.31.7,3.53.78,1.89.06,2.81.22,3.14.55a2.88,2.88,0,0,0,1.46.58c.92.1,1,.05,1-.83,0-1.26.36-4.37.61-6.09s.91-2,4.84-1.55c5,.6,6.1,1,7.23,2.46s2.25,2.2,3.52,2.21a16.72,16.72,0,0,1,3,.57l2.11.57,0,1.79c0,3,.78,3.31,7.26,3.32,4.44,0,7.5.43,8.52,1.17s1.17,2.94.4,4c-1.12,1.59-.71,2.65,1.3,3.42,1.21.47,1.41,1,1.45,3.69,0,1.51.15,1.95.75,2.61s.87.73,1.19.57a10.25,10.25,0,0,1,1.86-.45c1.18-.18,1.53-.42,2.57-1.75l1.2-1.54,2.94.08a10.1,10.1,0,0,0,5-.71c1.37-.54,2.18-.7,2.5-.51a7.59,7.59,0,0,0,1.58.5,5.66,5.66,0,0,1,2.21,1.21c1,.87,1.08,1.1.92,1.93-.83,4.26-.38,5.17,2.51,5.17,2.51,0,2.86-.52,3.09-4.62.37-6.49,1-8.51,2.53-8.54a15,15,0,0,0,2.56-.63c4.44-1.39,4.49-1.4,14.37-1.37,5.28,0,9.81.12,10.06.23.43.18.46,5.59.46,70.35V499.2H196V419.35Zm491.49-28.88c-.18-.2-.42-.26-.53-.13s0,.35.2.51c.52.36.76.09.33-.38Zm-117.22-191c-1-1.2.47-2.95,1.49-1.81.68.75.23,2.44-.66,2.44a1.67,1.67,0,0,1-.83-.63Z"/><path id="el_FpJJvH2sKs" d="M1136.61,499.54c-1.21-.61-1.81-.62-39.59-.62h-38.37v-83.3l-.13-76.56,4.54.24,1.68-.51,3.17.1c1.68.05,2.27.69,2.27,2.64a3.69,3.69,0,0,0,.36,2c.21.19,5,.42,11.88.57,14.63.32,14.6.32,18.26.57a11.2,11.2,0,0,0,4-.17c.68-.28,1.62-.29,3.69,0,2.29.27,2.9.25,3.56-.12.86-.5,1.69-.12,1.43.65-.19.55.44,1.07,1.29,1.07,4.11,0,5.23.73,5,3.34-.09.86-.24,2.77-.34,4.23-.24,3.55,0,3.85,2.68,4a7.21,7.21,0,0,0,2.63-.2,8.71,8.71,0,0,1,3-.79c.53,0,.73.11.79.65s.27.71,1.13.72a7.28,7.28,0,0,1,2.16.46,6.27,6.27,0,0,0,1.79.46,4.17,4.17,0,0,1,1.54.45c1.17.58,4.58,1.2,5.28.95a1,1,0,0,1,.9.1,23.33,23.33,0,0,0,4.55.68,17.44,17.44,0,0,1,4.85.83,3.27,3.27,0,0,0,1.6.44c.54,0,1,.13,1.14.3a2.5,2.5,0,0,0,1.52.23,4.75,4.75,0,0,1,2,.31,13.74,13.74,0,0,0,2.92.71,8.15,8.15,0,0,1,2.52.65,8.12,8.12,0,0,1,.29,2.73c0,1.81.11,2.41.38,2.35a1.51,1.51,0,0,1,.91.24c.46.28.61.2.88-.46.18-.44.4-.8.49-.81l2.42-.11a12.92,12.92,0,0,0,2.75-.34c.54-.26,1.63.65,2.27,1.87.23.45.36,6.88.46,23l.14,22.39,5.57.08,5.56.09.27.78.26.77h4.63a22.8,22.8,0,0,0,4.79-.27c.08-.15.16-7.48.17-16.28,0-11.2.11-16,.32-16s.24-.35.14-.91a2.08,2.08,0,0,1,.36-1.66,4.33,4.33,0,0,0,.63-1.83l.09-1.08,5.19-.15,5.19-.16.23-1.25a4.91,4.91,0,0,1,.5-1.54,25.55,25.55,0,0,1,5.27-.22c4.49.06,5.13.14,6.26.75a9.29,9.29,0,0,0,3,.85l1.68.16.43,1.41c.62,2,.66,2.08,2.59,2.33a5.26,5.26,0,0,1,2.2.65c.58.59,14.42.72,15,.15a4.06,4.06,0,0,0,.48-2c.08-1.52.13-1.63.92-1.82a45.16,45.16,0,0,1,8.42,0c1.62.19,1.69.24,2.38,1.61a9.33,9.33,0,0,1,.86,4.07l.16,2.66,13.92.19c7.66.11,14.28.3,14.71.43.92.28,1.09.54,1.48,2.2l.3,1.25,7.16.19c3.93.11,7.47.28,7.86.39a40.8,40.8,0,0,0,4.78.29l4.08.09.14,4.69.14,4.68h4.78l.08-12.72c.06-10.8.13-12.79.49-13.11s2.18-.43,6.11-.53c3.14-.08,5.85-.19,6-.26s.37-.91.42-2.09l.09-2,11.39,0c6.26,0,11.52.07,11.67.2a53.32,53.32,0,0,0,6.19.6l6.47.43c.45.05.59.34.7,1.45l.14,1.4,1.19,0c.74,0,1.24-.13,1.33-.38a.77.77,0,0,1,.7-.41,1.56,1.56,0,0,0,1-.81c.38-.65.63-.78,1.26-.64a2.48,2.48,0,0,0,1.54-.26,76.37,76.37,0,0,0,5.71-5.73c5.64-6,7.81-8.22,8.16-8.22s2.84,2.44,5.73,5.95c1.63,2,4.15,5,5.61,6.7,2.43,2.85,2.68,3.06,3.22,2.69.87-.6,1.4-.19,1.6,1.24.14,1,.37,1.38.89,1.65.84.43.86.7.13,1.73-.46.66-.56,1.27-.56,3.52v2.72l1.36,1.62a10.32,10.32,0,0,1,2.48,4.54c.39,1.14.74,1.62,1.42,1.94a1.62,1.62,0,0,1,.65,2.72c-.36.32-.56.67-.46.79a7.54,7.54,0,0,0,2.25.3c3.33.14,4.18.43,4.44,1.52.13.51.23,9.72.22,20.48,0,11.23.11,19.66.25,19.83a1.91,1.91,0,0,0,1.21.18l1-.1.14-2.51.14-2.5,4.92-.16,4.92-.16.14-1.09c.12-.88.28-1.12.85-1.2a2,2,0,0,0,.91-.33c.12-.13.22-7.34.22-16,0-15.49,0-16.35,1-20.31.37-1.63.9-2,1.29-.82l.28.81,3.73-.08,3.73-.09.14-3.29.14-3.29,5.49-.15,5.48-.16.18-12.94c.15-10.74.25-13,.6-13.46.53-.69.83-3.94.41-4.41a1.66,1.66,0,0,0-1.07-.35c-.83,0-1.62-.8-1.22-1.24a2.06,2.06,0,0,1,1-.38c.68-.1.71-.2.91-3.24.11-1.72.3-4.18.42-5.48l.22-2.34,2.39-.21c1.32-.11,3.63-.22,5.15-.23A12,12,0,0,0,1464,342c.33-.19.59-.84.72-1.79.15-1.16.25-1.37.46-.95a3.11,3.11,0,0,1,.19,1.39c-.06.61.06.88.42,1,.78.17,1.32-.53,1.32-1.7,0-.58.13-1.06.28-1.06s.29.49.29,1.08a2,2,0,0,0,.32,1.3,20.54,20.54,0,0,0,3.69.46c2.67.19,3.61.14,4.53-.22a5.65,5.65,0,0,1,2.59-.3,7.24,7.24,0,0,0,2.25-.08c.82-.25.82-.25,1-3.29.26-4.82,1.29-5.07,1.58-.38.17,2.68.2,2.76,1,3.06a2.84,2.84,0,0,1,1.23,1.22c.4.88.49.91,2.73,1,1.27,0,2.82,0,3.44,0l8.14-.16,7-.13.23-.93a15.45,15.45,0,0,0,0-3.33c-.18-2.39-.17-2.42.81-3.92,2.69-4.11,3.41-7.78,2.68-13.72-.07-.59.15-.64,4.29-.88,5.53-.33,5.25,0,5.32-5.81,0-3.09.15-4.38.43-4.73a2.92,2.92,0,0,0,.48-1.26c.07-.59.29-.81.87-.88s.77-.27.77-.85a1.35,1.35,0,0,1,.61-1.12c.9-.53,6.89-.62,8.25-.12a23.93,23.93,0,0,0,6,.79,1.57,1.57,0,0,1,1.51.89c.54.82.76.91,2.19.9,1.84,0,5.17.23,12.28.87,2.78.25,6.58.52,8.43.58l3.38.12v3.81c0,3.74,0,3.81.7,4.19s.71.62.71,1.79c0,1.73.27,2.29.94,1.89a.82.82,0,0,1,.9,0,4.69,4.69,0,0,0,1.78.29h1.38l-.16,2.81c-.23,3.95-.18,4,4.13,4.21a22.25,22.25,0,0,1,3.48.33c.25.27-.5,1-1.21,1.24-1.12.31-1.37,1.28-1.47,5.66,0,2.24-.13,5.48-.19,7.2-.25,7.13-.44,13.86-.58,20.36-.08,3.79-.21,9.21-.29,12-.49,17.05-.8,53.41-.5,57.31l.22,3,3.42.09,3.42.08.7,1a5.47,5.47,0,0,1,.8,1.64c.08.43.4.66,1.09.77.87.14,1,.28,1.12,1.25l.14,1.1h17.16l.14-2.82.15-2.82,1.12-.15,1.13-.16.08-2c.07-1.73.16-2,.73-2.25s.65-.37.83-6.48c.1-3.42.28-6.77.39-7.44.25-1.42-.42-1.27,6.8-1.56a19.16,19.16,0,0,0,4.33-.46c.3-.34,1.13-24.52,2-58.76.09-3.1.28-10.64.44-16.75s.33-14.85.39-19.42.26-12.67.44-18c.38-10.73.32-10.47,2.24-10.5a6.73,6.73,0,0,0,2.12-.51,5.51,5.51,0,0,1,2-.46c1,0,1.57-.44,1.57-1.38a1.34,1.34,0,0,1,.27-.92,44.4,44.4,0,0,1,6.48-1c2.12-.21,2.25-.29,2.25-1.42a10.35,10.35,0,0,1,.29-2.12,75.86,75.86,0,0,0,.49-7.7l.2-6.57.71-.22c.38-.12,2.92-.52,5.62-.88,8.62-1.14,13.31-1.89,13.62-2.16a11.5,11.5,0,0,1,3.06-.46,13.85,13.85,0,0,0,3.28-.51,4.32,4.32,0,0,1,1.76-.33c1,0,2.82-.29,9.65-1.6.77-.14,2.17-.36,3.09-.47a7.52,7.52,0,0,0,2.25-.58c.78-.51,10.08-.61,12.24-.14a8.08,8.08,0,0,0,2.64.16c1.24-.26,1.26-.44,1.47-9.27.08-3.7.19-7.08.23-7.51s.09-2.69.12-5c0-5.15.17-5.43,2.33-5.49l7.13-.24c14.76-.53,18.77-.62,29-.69,20.13-.12,22.77-.18,23.13-.51a1.72,1.72,0,0,1,1.27-.12,11.45,11.45,0,0,0,2,.23c3,.07,38.3-.42,38.61-.53a.84.84,0,0,0,.35-.75,13.54,13.54,0,0,1,2.43-3.46l2.42-2.83,13.4.08,13.4.08.08,66.23c0,43.28,0,67-.21,68.59-.3,2.47-.56,11.2-.68,22.63-.07,6.61-.09,6.84-.69,7.3-.34.26-.61.58-.61.7,0,.34,3.39,1.89,4.36,2l.84.09v3.2a12.82,12.82,0,0,0,.29,3.51,8.28,8.28,0,0,0,2.81.4l2.53.09,0,18.14c0,12-.17,18.86-.38,20.29-.25,1.65-.25,2.25,0,2.6a1.92,1.92,0,0,1,.13,1.47c-.28,1.4-.19,12.83.11,13.16a38.68,38.68,0,0,0,6.12.17l5.88-.08.14-1.23c.16-1.35.57-1.71,1.12-1s1.1.62,1.31,0c.1-.28.72-.54,1.56-.67s1.46-.36,1.52-.55.17-7.54.25-16.32.23-17.17.35-18.64l.22-2.66,4.08-.15c2.25-.09,11.74-.09,21.1,0l17,.15.14,7.36.14,7.36,7.53.08,7.52.09v68.23l-84.32.18c-46.38.1-90.52.18-98.11.17l-305.21-.16c-249-.12-291.55-.08-292.27.29-1.52.79-2.21.82-3.48.17Zm420.73-177.22a2.5,2.5,0,0,1,1.25-1c.62-.1.63-.12.08-.45-.88-.53-6.61-.77-6.61-.27a1.36,1.36,0,0,0,.43.8.84.84,0,0,1,.3.79c-.24.69,1.85,1.11,2.22.45.27-.49,1.27-.37,1.27.15,0,.73.39.56,1.06-.44Zm9.91-.05c0-1.27-3.4-1.72-3.62-.48-.08.52,0,.57.92.41.58-.1,1-.05,1,.12,0,.36,1.16.91,1.48.7A1.11,1.11,0,0,0,1567.25,322.27Zm-19.38-.74c.34.24,2.5-.76,2.5-1.16,0-.14-.29-.33-.63-.42a25.84,25.84,0,0,0-5.46-.26c-.6.26-.07,1,.71,1a1.29,1.29,0,0,1,1.1.63c.29.52.46.57.92.3a1,1,0,0,1,.86-.13Zm13.61-.2a.61.61,0,0,0-.49-.54c-.49-.11-.69.56-.3,1S1561.48,321.83,1561.48,321.33Zm-174.83,34.94a.37.37,0,0,1,.49-.41c.27.06.5.24.5.41s-.23.35-.5.41S1386.65,356.59,1386.65,356.27Z"/></g></g></g><g id="el_2a0IMw4x9V" data-name="Layer 2"><path d="M248.65,137.08a114.83,114.83,0,0,0-11.48,2.48c-1.36.7-1.41,2.32-.3,8.14a26.12,26.12,0,0,1,.6,4.29c-.1,0-3.53.71-7.68,1.47a65.86,65.86,0,0,0-8.44,1.87c-.91.45-1,2.12-1,45.8v45.3l-5.77-.3c-6.87-.4-7.38-.15-7.38,3.74,0,2.28-.1,2.48-1.16,2.48-1.92,0-2.88,1.51-2.88,4.45v2.63h-2.88c-3.39,0-5.92,1.06-7.44,3.18-1.06,1.42-1.06,1.82-1.21,48.69-.1,41.3-.2,47.22-.86,47.22s-.76-.71-.76-3c0-1.92-.25-3.18-.71-3.53s-4.8-.56-15.16-.46l-14.46.15-.1-37.41c-.15-31.14-.26-37.66-.86-38.83-1-2-3.44-3.28-6.78-3.69l-2.88-.35v-2.58a6.24,6.24,0,0,0-.61-3.24c-.4-.4-3.23-.6-9.35-.6h-8.69l-.16-33c-.15-30.53-.2-33.11-1.06-34.37-1.36-2.08-3.08-2.94-6.42-3.24l-3-.3v-3c0-2.73-.1-3-1.32-3.43-.7-.31-7.07-.51-14.25-.51-15.37,0-15.27,0-15.27,4.25v2.68l-3.59.25c-2.48.2-4,.61-4.9,1.26-2.89,2.13-2.89,1.82-3,28.82l-.15,24.92H71c-7.23,0-7.33.06-7.33,4.61,0,1.76-.15,2.52-.5,2.17s-.56-4.55-.61-9.56l-.15-9.1-25.69-.15-25.63-.1-.5,1.32c-.31.8-.51,30.43-.51,81.59v80.34l-4.9.15-5,.15L.06,450.68,0,500.58H594l-.1-93.88-.15-93.94-25.28-.3c-13.9-.15-25.68-.1-26.14.15-.86.41-.91,2.23-.91,27.71v27.3H533c-4.7,0-8.8.2-9.2.45s-.81,1.62-1,3.29l-.21,2.83h-1.87c-3.48.05-5.81.86-7.38,2.68l-1.51,1.77V339c0-38.67,0-39.69-1-40.39-.7-.51-2.47-.71-5.86-.71h-4.9l-.31-44.09c-.2-24.21-.35-51-.35-59.35,0-14.66,0-15.37-1-15.87-.66-.31-9.3-.51-24.62-.51H450.27l-10.06,1.77a91.68,91.68,0,0,0-11,2.38c-1.22.75-1.27,2.22-.31,7.22a25.58,25.58,0,0,1,.61,3.7c-.1.05-2.73.55-5.92,1.16-7.53,1.31-8.94,1.82-9.35,3.13-.2.61-.25,13.5-.15,28.67l.2,27.55-3.29.15a11,11,0,0,0-3.89.71c-.5.41-.66,5.21-.66,22.45,0,14.31-.15,21.94-.5,21.94s-.51-2.83-.51-7.53c0-5.72-.15-7.64-.7-8.09s-7.74-.51-26.14-.46l-25.48.15L353,303l-.11,20.12H342.73v-76.7l-1.06-1c-1-.91-1.82-1-13.14-.81l-12.09.21V191c0-53.23,0-53.89-1-54.9s-1.67-1-28.66-1l-27.71,0Z" id="el_WxIQq1prxj"/></g><g id="el_OP1kPPpB0s" data-name="Layer 4"><g id="el_PHbtN5g8Bp" data-name="☁️"><g id="el_8UhV0nG2Qh_an_JfvvokzK-" data-animator-group="true" data-animator-type="0"><path d="M255.76,128.84c0,1.76-3.54,3.53-7.08,3.53-45.12,2.2-80.51,24.72-80.51,52.09C168.17,213.6,208,237,258.41,237H600.8c54,0,98.2-25.16,98.2-55.63,0-29.14-40.7-53.42-92-55.18-3.54,0-7.08-1.33-8-3.54C587.53,93.07,534.44,71,472.51,71c-40.69,0-77,9.27-100,23.84-2.65,1.77-7.08,2.21-9.73,1.77A149.15,149.15,0,0,0,333.61,94C292.92,93.52,259.3,109,255.76,128.84Z" id="el_8UhV0nG2Qh"/></g></g><g id="el_9ttlz69zpb_an_TSFM1zt_m" data-animator-group="true" data-animator-type="0"><path d="M1312.55,272c0,23.76,38.67,43,86.36,43h323.73c27.83,0,50.36-5.26,50.36-19.12s-22.53-25.08-50.36-25.08a97.89,97.89,0,0,0-14.52,1.18c0-.19.13-.38.13-.58,0-16.16-26.31-29.26-58.75-29.26-1.36,0-2.66.15-4,.2.06-.68.44-1.31.44-2,0-30-48.84-54.35-109.14-54.35-54.41,0-99.17,19.94-107.4,45.9a164,164,0,0,0-30.46-2.9C1351.21,229,1312.55,248.24,1312.55,272Z" id="el_9ttlz69zpb"/></g></g></svg>