<?xml version="1.0" encoding="iso-8859-1"?>
<!-- Generator: Adobe Illustrator 17.1.0, SVG Export Plug-In . SVG Version: 6.00 Build 0)  -->
<!DOCTYPE svg PUBLIC "-//W3C//DTD SVG 1.1//EN" "http://www.w3.org/Graphics/SVG/1.1/DTD/svg11.dtd">
<svg version="1.1" id="Layer_1" xmlns="http://www.w3.org/2000/svg" xmlns:xlink="http://www.w3.org/1999/xlink" x="0px" y="0px"
	 viewBox="0 0 500 500" style="enable-background:new 0 0 500 500;" xml:space="preserve">
<ellipse style="fill:#FFFFFF;" cx="250.088" cy="247.882" rx="175.382" ry="169.118"/>
<path style="fill:#00989A;" d="M102.119,182.317c0,0,11.016-47.601,106.033-81.383s57.148,2.303,65.41,59.118
	s2.066,66.795-95.017,101.729s-117.738,21.881-76.427-75.625"/>
<path style="fill:#00989A;" d="M211,395.059c0,0,100.954-52.075,144.706-55.294s21.754-9.844,37.647-15.294
	c15.893-5.451-32.353,61.765-84.706,70.588C256.294,403.882,278.059,423.882,211,395.059z"/>
<path style="fill:#00989A;" d="M188.062,279.882c0,0,42.831,41.686,71.385,41.115s-38.271,52.536-63.264,32.55
	s-40.135-42.828-20.667-62.244"/>
<path style="fill:#00989A;" d="M279.218,255.846c0,0,21.274-45.521,16.299-72.632s48.816,3.012,47.603,9.372
	c-1.213,6.359,78.651,51.211,53.076,60.248c-25.575,9.037,40.754,63.93-24.766,51.211c-65.519-12.719-86.146-3.682-98.279-10.041
	S267.893,257.185,279.218,255.846z"/>
<path style="fill:#00989A;" d="M375.538,164.727c0,0-45.044-20.427-56.446-34.669s-9.128-4.785-15.066-8.767
	c-5.938-3.981,33.349-6.011,49.079,9.647S372.226,133.493,375.538,164.727z"/>
</svg>
