<svg id="Layer_1" data-name="Layer 1" xmlns="http://www.w3.org/2000/svg" viewBox="0 0 579.04 186.88"><defs><style>.cls-1{fill:#8f9989;}.cls-2,.cls-4,.cls-6,.cls-8{fill-opacity:0;}.cls-2{stroke:#8f9989;}.cls-3{fill:#6b7a64;}.cls-4{stroke:#6b7a64;}.cls-5{fill:#7b8a74;}.cls-6{stroke:#7b8a74;}.cls-7{fill:#9ea899;}.cls-8{stroke:#9ea899;}.cls-10,.cls-11,.cls-12,.cls-13,.cls-9{isolation:isolate;}.cls-10,.cls-11,.cls-12,.cls-13{font-size:67px;stroke:#000;font-family:BungeeInline-Regular, Bungee Inline;}.cls-10,.cls-11{stroke-miterlimit:10;}.cls-11,.cls-13{letter-spacing:-0.02em;}</style></defs><title>logoBlack</title><path id="d1a2ElwxJ7" class="cls-1" d="M84.26,81.53,104.56,141H23.38l20.3-59.41L64,22.15Z" transform="translate(0 0)"/><path class="cls-2" d="M84.26,81.53,104.56,141H23.38l20.3-59.41L64,22.15Z" transform="translate(0 0)"/><path id="a1tpnWwra1" class="cls-3" d="M61.59,71l20.3,59.41H.7L21,71,41.3,11.58Z" transform="translate(0 0)"/><path class="cls-4" d="M61.59,71l20.3,59.41H.7L21,71,41.3,11.58Z" transform="translate(0 0)"/><path id="a3cGJ6aYRP" class="cls-3" d="M35.38,141.83H47.23v28.68H35.38Z" transform="translate(0 0)"/><path class="cls-4" d="M35.38,141.83H47.23v28.68H35.38Z" transform="translate(0 0)"/><path id="b2qVART6Ce" class="cls-5" d="M61.59,61l20.3,59.41H.7L21,61,41.29,1.55Z" transform="translate(0 0)"/><path class="cls-6" d="M61.59,61l20.3,59.41H.7L21,61,41.29,1.55Z" transform="translate(0 0)"/><path id="aGqty9A6i" class="cls-1" d="M58,125H69.9v56.1H58Z" transform="translate(0 0)"/><path class="cls-2" d="M58,125H69.9v56.1H58Z" transform="translate(0 0)"/><path id="aG9GPgJco" class="cls-7" d="M84.26,71.53,104.56,131H23.38l20.3-59.41L64,12.15Z" transform="translate(0 0)"/><path class="cls-8" d="M84.26,71.53,104.56,131H23.38l20.3-59.41L64,12.15Z" transform="translate(0 0)"/><g id="f7ZBpAnC"><g class="cls-9"><text class="cls-10" transform="translate(54.47 125.01)">ENVI</text><text class="cls-10" transform="translate(54.47 125.01)">ENVI</text><text class="cls-11" transform="translate(238.18 125.01)">P</text><text class="cls-11" transform="translate(238.18 125.01)">P</text></g><text class="cls-10" transform="translate(283.88 125.01)">R</text><text class="cls-10" transform="translate(283.88 125.01)">R</text><text class="cls-10" transform="translate(333.32 125.01)">OBLEM</text><text class="cls-10" transform="translate(333.32 125.01)">OBLEM</text><g class="cls-9"><text class="cls-10" transform="translate(54.47 125.01)">ENVI</text><text class="cls-12" transform="translate(54.47 125.01)">ENVI</text><text class="cls-11" transform="translate(238.18 125.01)">P</text><text class="cls-13" transform="translate(238.18 125.01)">P</text></g><text class="cls-10" transform="translate(283.88 125.01)">R</text><text class="cls-12" transform="translate(283.88 125.01)">R</text><text class="cls-10" transform="translate(333.32 125.01)">OBLEM</text><text class="cls-12" transform="translate(333.32 125.01)">OBLEM</text></g></svg>