<svg height="512" viewBox="0 0 512 512" width="512" xmlns="http://www.w3.org/2000/svg"><path d="m360 296h128v192h-128z" fill="#7eb457"/><path d="m360 432h128v56h-128z" fill="#69a340"/><path d="m214.209 221.578a25.456 25.456 0 0 0 -2.1 37.878l35.891 35.889h-200a24 24 0 0 0 -24 24 24 24 0 0 0 24 24h112v144h200v-192h-40l-71.889-71.889a25.456 25.456 0 0 0 -33.902-1.878z" fill="#feb784"/><g fill="#fec093"><path d="m320 295.345-71.889-71.889c-.035-.035-.076-.058-.111-.092a25.449 25.449 0 0 0 -35.889 36.092l35.889 35.889v8.655a96 96 0 0 0 96 96h16v-104.655z"/><rect height="48" rx="24" width="96" x="136" y="344"/><rect height="48" rx="24" width="96" x="136" y="392"/><rect height="48" rx="24" width="96" x="136" y="440"/></g><path d="m216 400h-56a8 8 0 0 1 0-16h56a8 8 0 0 1 0 16z" fill="#faae78"/><path d="m216 448h-56a8 8 0 0 1 0-16h56a8 8 0 0 1 0 16z" fill="#faae78"/><path d="m224 124a99.274 99.274 0 0 1 -114.29 98.86l-61.71 89.14 26.92-100.93a99.982 99.982 0 1 1 149.08-87.07z" fill="#4db7e5"/><circle cx="408" cy="440" fill="#e0e0de" r="24"/><path d="m224 124a99.742 99.742 0 0 1 -14.57 52h-93.43a52 52 0 1 1 0-104h93.43a99.446 99.446 0 0 1 14.57 52z" fill="#fec093"/><path d="m220.62 149.84a98.943 98.943 0 0 1 -11.19 26.16h-93.43a52.029 52.029 0 0 1 -50.37-64.95 63.3 63.3 0 0 0 58.36 38.79z" fill="#feb784"/><path d="m116.686 128.001h22.627v15.998h-22.627z" fill="#348fd9" transform="matrix(.707 -.707 .707 .707 -58.676 130.343)"/><path d="m88 112h16v16h-16z" fill="#348fd9"/><path d="m152 136h16v16h-16z" fill="#348fd9"/><path d="m136.001 92.686h15.998v22.627h-15.998z" fill="#348fd9" transform="matrix(.707 -.707 .707 .707 -31.362 132.284)"/><path d="m320 408a7.975 7.975 0 0 1 -2.531-.414 113.155 113.155 0 0 1 -77.469-107.481v-4.105a8 8 0 0 1 16 0v4.105a97.171 97.171 0 0 0 66.531 92.305 8 8 0 0 1 -2.531 15.59z" fill="#faae78"/></svg>