<svg xmlns="http://www.w3.org/2000/svg" viewBox="0 0 1920 388" id="el_k4YUjKul_"><style>@-webkit-keyframes kf_el_pBssEntgggk_an_XCtbxxSVf{21.11%{opacity: 0;}55.56%{opacity: 1;}93.33%{opacity: 0;}0%{opacity: 0;}100%{opacity: 0;}}@keyframes kf_el_pBssEntgggk_an_XCtbxxSVf{21.11%{opacity: 0;}55.56%{opacity: 1;}93.33%{opacity: 0;}0%{opacity: 0;}100%{opacity: 0;}}@-webkit-keyframes kf_el_pBssEntgggk_an_nOyQjrieu{23.33%{-webkit-transform: translate(1390.4400634765625px, 74px) translate(-1390.4400634765625px, -74px) translate(0px, 50px);transform: translate(1390.4400634765625px, 74px) translate(-1390.4400634765625px, -74px) translate(0px, 50px);}91.11%{-webkit-transform: translate(1390.4400634765625px, 74px) translate(-1390.4400634765625px, -74px) translate(0px, -50px);transform: translate(1390.4400634765625px, 74px) translate(-1390.4400634765625px, -74px) translate(0px, -50px);}0%{-webkit-transform: translate(1390.4400634765625px, 74px) translate(-1390.4400634765625px, -74px) translate(0px, 50px);transform: translate(1390.4400634765625px, 74px) translate(-1390.4400634765625px, -74px) translate(0px, 50px);}100%{-webkit-transform: translate(1390.4400634765625px, 74px) translate(-1390.4400634765625px, -74px) translate(0px, -50px);transform: translate(1390.4400634765625px, 74px) translate(-1390.4400634765625px, -74px) translate(0px, -50px);}}@keyframes kf_el_pBssEntgggk_an_nOyQjrieu{23.33%{-webkit-transform: translate(1390.4400634765625px, 74px) translate(-1390.4400634765625px, -74px) translate(0px, 50px);transform: translate(1390.4400634765625px, 74px) translate(-1390.4400634765625px, -74px) translate(0px, 50px);}91.11%{-webkit-transform: translate(1390.4400634765625px, 74px) translate(-1390.4400634765625px, -74px) translate(0px, -50px);transform: translate(1390.4400634765625px, 74px) translate(-1390.4400634765625px, -74px) translate(0px, -50px);}0%{-webkit-transform: translate(1390.4400634765625px, 74px) translate(-1390.4400634765625px, -74px) translate(0px, 50px);transform: translate(1390.4400634765625px, 74px) translate(-1390.4400634765625px, -74px) translate(0px, 50px);}100%{-webkit-transform: translate(1390.4400634765625px, 74px) translate(-1390.4400634765625px, -74px) translate(0px, -50px);transform: translate(1390.4400634765625px, 74px) translate(-1390.4400634765625px, -74px) translate(0px, -50px);}}@-webkit-keyframes kf_el_ezLcrIMn5uZ_an_niua5nP3q{15.56%{opacity: 0;}44.44%{opacity: 1;}74.44%{opacity: 0;}0%{opacity: 0;}100%{opacity: 0;}}@keyframes kf_el_ezLcrIMn5uZ_an_niua5nP3q{15.56%{opacity: 0;}44.44%{opacity: 1;}74.44%{opacity: 0;}0%{opacity: 0;}100%{opacity: 0;}}@-webkit-keyframes kf_el_ezLcrIMn5uZ_an_KnSDUD7dH{17.78%{-webkit-transform: translate(1225.43994140625px, 249.33999633789062px) translate(-1225.43994140625px, -249.33999633789062px) translate(0px, 0px);transform: translate(1225.43994140625px, 249.33999633789062px) translate(-1225.43994140625px, -249.33999633789062px) translate(0px, 0px);}71.11%{-webkit-transform: translate(1225.43994140625px, 249.33999633789062px) translate(-1225.43994140625px, -249.33999633789062px) translate(0px, -200px);transform: translate(1225.43994140625px, 249.33999633789062px) translate(-1225.43994140625px, -249.33999633789062px) translate(0px, -200px);}0%{-webkit-transform: translate(1225.43994140625px, 249.33999633789062px) translate(-1225.43994140625px, -249.33999633789062px) translate(0px, 0px);transform: translate(1225.43994140625px, 249.33999633789062px) translate(-1225.43994140625px, -249.33999633789062px) translate(0px, 0px);}100%{-webkit-transform: translate(1225.43994140625px, 249.33999633789062px) translate(-1225.43994140625px, -249.33999633789062px) translate(0px, -200px);transform: translate(1225.43994140625px, 249.33999633789062px) translate(-1225.43994140625px, -249.33999633789062px) translate(0px, -200px);}}@keyframes kf_el_ezLcrIMn5uZ_an_KnSDUD7dH{17.78%{-webkit-transform: translate(1225.43994140625px, 249.33999633789062px) translate(-1225.43994140625px, -249.33999633789062px) translate(0px, 0px);transform: translate(1225.43994140625px, 249.33999633789062px) translate(-1225.43994140625px, -249.33999633789062px) translate(0px, 0px);}71.11%{-webkit-transform: translate(1225.43994140625px, 249.33999633789062px) translate(-1225.43994140625px, -249.33999633789062px) translate(0px, -200px);transform: translate(1225.43994140625px, 249.33999633789062px) translate(-1225.43994140625px, -249.33999633789062px) translate(0px, -200px);}0%{-webkit-transform: translate(1225.43994140625px, 249.33999633789062px) translate(-1225.43994140625px, -249.33999633789062px) translate(0px, 0px);transform: translate(1225.43994140625px, 249.33999633789062px) translate(-1225.43994140625px, -249.33999633789062px) translate(0px, 0px);}100%{-webkit-transform: translate(1225.43994140625px, 249.33999633789062px) translate(-1225.43994140625px, -249.33999633789062px) translate(0px, -200px);transform: translate(1225.43994140625px, 249.33999633789062px) translate(-1225.43994140625px, -249.33999633789062px) translate(0px, -200px);}}@-webkit-keyframes kf_el_pfpLfbU5R_U_an_1t2mFfBWZ{41.11%{opacity: 0;}64.44%{opacity: 1;}90%{opacity: 0;}0%{opacity: 0;}100%{opacity: 0;}}@keyframes kf_el_pfpLfbU5R_U_an_1t2mFfBWZ{41.11%{opacity: 0;}64.44%{opacity: 1;}90%{opacity: 0;}0%{opacity: 0;}100%{opacity: 0;}}@-webkit-keyframes kf_el_pfpLfbU5R_U_an_HWGQLT6EM{45.56%{-webkit-transform: translate(1164.43994140625px, 191.33999633789062px) translate(-1164.43994140625px, -191.33999633789062px) translate(0px, 0px);transform: translate(1164.43994140625px, 191.33999633789062px) translate(-1164.43994140625px, -191.33999633789062px) translate(0px, 0px);}86.67%{-webkit-transform: translate(1164.43994140625px, 191.33999633789062px) translate(-1164.43994140625px, -191.33999633789062px) translate(0px, -180px);transform: translate(1164.43994140625px, 191.33999633789062px) translate(-1164.43994140625px, -191.33999633789062px) translate(0px, -180px);}0%{-webkit-transform: translate(1164.43994140625px, 191.33999633789062px) translate(-1164.43994140625px, -191.33999633789062px) translate(0px, 0px);transform: translate(1164.43994140625px, 191.33999633789062px) translate(-1164.43994140625px, -191.33999633789062px) translate(0px, 0px);}100%{-webkit-transform: translate(1164.43994140625px, 191.33999633789062px) translate(-1164.43994140625px, -191.33999633789062px) translate(0px, -180px);transform: translate(1164.43994140625px, 191.33999633789062px) translate(-1164.43994140625px, -191.33999633789062px) translate(0px, -180px);}}@keyframes kf_el_pfpLfbU5R_U_an_HWGQLT6EM{45.56%{-webkit-transform: translate(1164.43994140625px, 191.33999633789062px) translate(-1164.43994140625px, -191.33999633789062px) translate(0px, 0px);transform: translate(1164.43994140625px, 191.33999633789062px) translate(-1164.43994140625px, -191.33999633789062px) translate(0px, 0px);}86.67%{-webkit-transform: translate(1164.43994140625px, 191.33999633789062px) translate(-1164.43994140625px, -191.33999633789062px) translate(0px, -180px);transform: translate(1164.43994140625px, 191.33999633789062px) translate(-1164.43994140625px, -191.33999633789062px) translate(0px, -180px);}0%{-webkit-transform: translate(1164.43994140625px, 191.33999633789062px) translate(-1164.43994140625px, -191.33999633789062px) translate(0px, 0px);transform: translate(1164.43994140625px, 191.33999633789062px) translate(-1164.43994140625px, -191.33999633789062px) translate(0px, 0px);}100%{-webkit-transform: translate(1164.43994140625px, 191.33999633789062px) translate(-1164.43994140625px, -191.33999633789062px) translate(0px, -180px);transform: translate(1164.43994140625px, 191.33999633789062px) translate(-1164.43994140625px, -191.33999633789062px) translate(0px, -180px);}}@-webkit-keyframes kf_el_2Zgbf9YhVjW_an_ytNDONo5x{4.44%{opacity: 0;}33.33%{opacity: 1;}97.78%{opacity: 0;}0%{opacity: 0;}100%{opacity: 0;}}@keyframes kf_el_2Zgbf9YhVjW_an_ytNDONo5x{4.44%{opacity: 0;}33.33%{opacity: 1;}97.78%{opacity: 0;}0%{opacity: 0;}100%{opacity: 0;}}@-webkit-keyframes kf_el_2Zgbf9YhVjW_an_D8q1NRK1O{7.78%{-webkit-transform: translate(951.02001953125px, 108.00000762939453px) translate(-951.02001953125px, -108.00000762939453px) translate(0px, 0px);transform: translate(951.02001953125px, 108.00000762939453px) translate(-951.02001953125px, -108.00000762939453px) translate(0px, 0px);}92.22%{-webkit-transform: translate(951.02001953125px, 108.00000762939453px) translate(-951.02001953125px, -108.00000762939453px) translate(0px, -100px);transform: translate(951.02001953125px, 108.00000762939453px) translate(-951.02001953125px, -108.00000762939453px) translate(0px, -100px);}0%{-webkit-transform: translate(951.02001953125px, 108.00000762939453px) translate(-951.02001953125px, -108.00000762939453px) translate(0px, 0px);transform: translate(951.02001953125px, 108.00000762939453px) translate(-951.02001953125px, -108.00000762939453px) translate(0px, 0px);}100%{-webkit-transform: translate(951.02001953125px, 108.00000762939453px) translate(-951.02001953125px, -108.00000762939453px) translate(0px, -100px);transform: translate(951.02001953125px, 108.00000762939453px) translate(-951.02001953125px, -108.00000762939453px) translate(0px, -100px);}}@keyframes kf_el_2Zgbf9YhVjW_an_D8q1NRK1O{7.78%{-webkit-transform: translate(951.02001953125px, 108.00000762939453px) translate(-951.02001953125px, -108.00000762939453px) translate(0px, 0px);transform: translate(951.02001953125px, 108.00000762939453px) translate(-951.02001953125px, -108.00000762939453px) translate(0px, 0px);}92.22%{-webkit-transform: translate(951.02001953125px, 108.00000762939453px) translate(-951.02001953125px, -108.00000762939453px) translate(0px, -100px);transform: translate(951.02001953125px, 108.00000762939453px) translate(-951.02001953125px, -108.00000762939453px) translate(0px, -100px);}0%{-webkit-transform: translate(951.02001953125px, 108.00000762939453px) translate(-951.02001953125px, -108.00000762939453px) translate(0px, 0px);transform: translate(951.02001953125px, 108.00000762939453px) translate(-951.02001953125px, -108.00000762939453px) translate(0px, 0px);}100%{-webkit-transform: translate(951.02001953125px, 108.00000762939453px) translate(-951.02001953125px, -108.00000762939453px) translate(0px, -100px);transform: translate(951.02001953125px, 108.00000762939453px) translate(-951.02001953125px, -108.00000762939453px) translate(0px, -100px);}}@-webkit-keyframes kf_el_7KbbW-5Uy_L_an_9gk2iRQG5{27.78%{opacity: 0;}48.89%{opacity: 1;}73.33%{opacity: 0;}0%{opacity: 0;}100%{opacity: 0;}}@keyframes kf_el_7KbbW-5Uy_L_an_9gk2iRQG5{27.78%{opacity: 0;}48.89%{opacity: 1;}73.33%{opacity: 0;}0%{opacity: 0;}100%{opacity: 0;}}@-webkit-keyframes kf_el_7KbbW-5Uy_L_an_mjhyKZs8T{30%{-webkit-transform: translate(793.760009765625px, 0px) translate(-793.760009765625px, 0px) translate(0px, 100px);transform: translate(793.760009765625px, 0px) translate(-793.760009765625px, 0px) translate(0px, 100px);}67.78%{-webkit-transform: translate(793.760009765625px, 0px) translate(-793.760009765625px, 0px) translate(0px, 0px);transform: translate(793.760009765625px, 0px) translate(-793.760009765625px, 0px) translate(0px, 0px);}0%{-webkit-transform: translate(793.760009765625px, 0px) translate(-793.760009765625px, 0px) translate(0px, 100px);transform: translate(793.760009765625px, 0px) translate(-793.760009765625px, 0px) translate(0px, 100px);}100%{-webkit-transform: translate(793.760009765625px, 0px) translate(-793.760009765625px, 0px) translate(0px, 0px);transform: translate(793.760009765625px, 0px) translate(-793.760009765625px, 0px) translate(0px, 0px);}}@keyframes kf_el_7KbbW-5Uy_L_an_mjhyKZs8T{30%{-webkit-transform: translate(793.760009765625px, 0px) translate(-793.760009765625px, 0px) translate(0px, 100px);transform: translate(793.760009765625px, 0px) translate(-793.760009765625px, 0px) translate(0px, 100px);}67.78%{-webkit-transform: translate(793.760009765625px, 0px) translate(-793.760009765625px, 0px) translate(0px, 0px);transform: translate(793.760009765625px, 0px) translate(-793.760009765625px, 0px) translate(0px, 0px);}0%{-webkit-transform: translate(793.760009765625px, 0px) translate(-793.760009765625px, 0px) translate(0px, 100px);transform: translate(793.760009765625px, 0px) translate(-793.760009765625px, 0px) translate(0px, 100px);}100%{-webkit-transform: translate(793.760009765625px, 0px) translate(-793.760009765625px, 0px) translate(0px, 0px);transform: translate(793.760009765625px, 0px) translate(-793.760009765625px, 0px) translate(0px, 0px);}}@-webkit-keyframes kf_el_V1yEWxLFoO3_an_xLbKXSFKQ{17.78%{opacity: 0;}45.56%{opacity: 1;}92.22%{opacity: 0;}0%{opacity: 0;}100%{opacity: 0;}}@keyframes kf_el_V1yEWxLFoO3_an_xLbKXSFKQ{17.78%{opacity: 0;}45.56%{opacity: 1;}92.22%{opacity: 0;}0%{opacity: 0;}100%{opacity: 0;}}@-webkit-keyframes kf_el_V1yEWxLFoO3_an_4s3UixBOY{20%{-webkit-transform: translate(551px, 137px) translate(-551px, -137px) translate(0px, 0px);transform: translate(551px, 137px) translate(-551px, -137px) translate(0px, 0px);}86.67%{-webkit-transform: translate(551px, 137px) translate(-551px, -137px) translate(0px, -120px);transform: translate(551px, 137px) translate(-551px, -137px) translate(0px, -120px);}0%{-webkit-transform: translate(551px, 137px) translate(-551px, -137px) translate(0px, 0px);transform: translate(551px, 137px) translate(-551px, -137px) translate(0px, 0px);}100%{-webkit-transform: translate(551px, 137px) translate(-551px, -137px) translate(0px, -120px);transform: translate(551px, 137px) translate(-551px, -137px) translate(0px, -120px);}}@keyframes kf_el_V1yEWxLFoO3_an_4s3UixBOY{20%{-webkit-transform: translate(551px, 137px) translate(-551px, -137px) translate(0px, 0px);transform: translate(551px, 137px) translate(-551px, -137px) translate(0px, 0px);}86.67%{-webkit-transform: translate(551px, 137px) translate(-551px, -137px) translate(0px, -120px);transform: translate(551px, 137px) translate(-551px, -137px) translate(0px, -120px);}0%{-webkit-transform: translate(551px, 137px) translate(-551px, -137px) translate(0px, 0px);transform: translate(551px, 137px) translate(-551px, -137px) translate(0px, 0px);}100%{-webkit-transform: translate(551px, 137px) translate(-551px, -137px) translate(0px, -120px);transform: translate(551px, 137px) translate(-551px, -137px) translate(0px, -120px);}}@-webkit-keyframes kf_el_D5zcyTgHACq_an_X31IXSbhL{0%{opacity: 0;}41.11%{opacity: 1;}82.22%{opacity: 0;}100%{opacity: 0;}}@keyframes kf_el_D5zcyTgHACq_an_X31IXSbhL{0%{opacity: 0;}41.11%{opacity: 1;}82.22%{opacity: 0;}100%{opacity: 0;}}@-webkit-keyframes kf_el_D5zcyTgHACq_an_GpYUi9c1V{7.78%{-webkit-transform: translate(393.17999267578125px, 52.92000198364258px) translate(-393.17999267578125px, -52.92000198364258px) translate(0px, 0px);transform: translate(393.17999267578125px, 52.92000198364258px) translate(-393.17999267578125px, -52.92000198364258px) translate(0px, 0px);}72.22%{-webkit-transform: translate(393.17999267578125px, 52.92000198364258px) translate(-393.17999267578125px, -52.92000198364258px) translate(0px, -50px);transform: translate(393.17999267578125px, 52.92000198364258px) translate(-393.17999267578125px, -52.92000198364258px) translate(0px, -50px);}0%{-webkit-transform: translate(393.17999267578125px, 52.92000198364258px) translate(-393.17999267578125px, -52.92000198364258px) translate(0px, 0px);transform: translate(393.17999267578125px, 52.92000198364258px) translate(-393.17999267578125px, -52.92000198364258px) translate(0px, 0px);}100%{-webkit-transform: translate(393.17999267578125px, 52.92000198364258px) translate(-393.17999267578125px, -52.92000198364258px) translate(0px, -50px);transform: translate(393.17999267578125px, 52.92000198364258px) translate(-393.17999267578125px, -52.92000198364258px) translate(0px, -50px);}}@keyframes kf_el_D5zcyTgHACq_an_GpYUi9c1V{7.78%{-webkit-transform: translate(393.17999267578125px, 52.92000198364258px) translate(-393.17999267578125px, -52.92000198364258px) translate(0px, 0px);transform: translate(393.17999267578125px, 52.92000198364258px) translate(-393.17999267578125px, -52.92000198364258px) translate(0px, 0px);}72.22%{-webkit-transform: translate(393.17999267578125px, 52.92000198364258px) translate(-393.17999267578125px, -52.92000198364258px) translate(0px, -50px);transform: translate(393.17999267578125px, 52.92000198364258px) translate(-393.17999267578125px, -52.92000198364258px) translate(0px, -50px);}0%{-webkit-transform: translate(393.17999267578125px, 52.92000198364258px) translate(-393.17999267578125px, -52.92000198364258px) translate(0px, 0px);transform: translate(393.17999267578125px, 52.92000198364258px) translate(-393.17999267578125px, -52.92000198364258px) translate(0px, 0px);}100%{-webkit-transform: translate(393.17999267578125px, 52.92000198364258px) translate(-393.17999267578125px, -52.92000198364258px) translate(0px, -50px);transform: translate(393.17999267578125px, 52.92000198364258px) translate(-393.17999267578125px, -52.92000198364258px) translate(0px, -50px);}}#el_k4YUjKul_ *{-webkit-animation-duration: 3s;animation-duration: 3s;-webkit-animation-iteration-count: infinite;animation-iteration-count: infinite;-webkit-animation-timing-function: cubic-bezier(0, 0, 1, 1);animation-timing-function: cubic-bezier(0, 0, 1, 1);}#el_vDGTLN7btk{fill: #ddbe9b;-webkit-transform: translate(0px, -112px);transform: translate(0px, -112px);}#el_jVv1PCaa9w{fill: #e1bf92;-webkit-transform: translate(0px, -112px);transform: translate(0px, -112px);}#el_2ficcwV6mY{fill: #e1bf92;-webkit-transform: translate(0px, -112px);transform: translate(0px, -112px);}#el_TsLtTRN5A0{fill: #f6d7b0;-webkit-transform: translate(0px, -112px);transform: translate(0px, -112px);}#el_KpGreZHCAq{fill: #1f591f;-webkit-transform: translate(0px, -112px);transform: translate(0px, -112px);}#el_5U-4q9YiIv{fill: #1f591f;-webkit-transform: translate(0px, -112px);transform: translate(0px, -112px);}#el_PaS7UivHKQ{fill: #1f591f;-webkit-transform: translate(0px, -112px);transform: translate(0px, -112px);}#el_BPmWw_12aN{fill: #1f591f;-webkit-transform: translate(0px, -112px);transform: translate(0px, -112px);}#el_YPEYRP9Y7j{fill: #1f591f;-webkit-transform: translate(0px, -112px);transform: translate(0px, -112px);}#el_6HeOMbaRRI{fill: #1f591f;-webkit-transform: translate(0px, -112px);transform: translate(0px, -112px);}#el_Lek2jonwFG{fill: #1f591f;-webkit-transform: translate(0px, -112px);transform: translate(0px, -112px);}#el_gIznpxDBIW{fill: #1f591f;-webkit-transform: translate(0px, -112px);transform: translate(0px, -112px);}#el_Yy_7Ivbcqw5{fill: #1f591f;-webkit-transform: translate(0px, -112px);transform: translate(0px, -112px);}#el_1e1fL-WhY50{fill: #1f591f;-webkit-transform: translate(0px, -112px);transform: translate(0px, -112px);}#el_aCyNJJ9uyjq{fill: #1f591f;-webkit-transform: translate(0px, -112px);transform: translate(0px, -112px);}#el__mJ3PQCap4I{fill: #1f591f;-webkit-transform: translate(0px, -112px);transform: translate(0px, -112px);}#el_BkQysYvyaix{fill: #1f591f;-webkit-transform: translate(0px, -112px);transform: translate(0px, -112px);}#el_fBSMPHXWiRZ{fill: #1f591f;-webkit-transform: translate(0px, -112px);transform: translate(0px, -112px);}#el_q-Qav0imPGm{fill: #1f591f;-webkit-transform: translate(0px, -112px);transform: translate(0px, -112px);}#el_F3wKXxIgohH{fill: #1f591f;-webkit-transform: translate(0px, -112px);transform: translate(0px, -112px);}#el_igRPOiNBoen{fill: #1f591f;-webkit-transform: translate(0px, -112px);transform: translate(0px, -112px);}#el_MG9Oh35tf8X{fill: #1f591f;-webkit-transform: translate(0px, -112px);transform: translate(0px, -112px);}#el_hJVqyVU_8hF{fill: #1f591f;-webkit-transform: translate(0px, -112px);transform: translate(0px, -112px);}#el_s4ljzQRcycb{fill: #1f591f;-webkit-transform: translate(0px, -112px);transform: translate(0px, -112px);}#el_TCeaP9p2wfM{fill: #1f591f;-webkit-transform: translate(0px, -112px);transform: translate(0px, -112px);}#el_MP1De0vB_nv{fill: #1f591f;-webkit-transform: translate(0px, -112px);transform: translate(0px, -112px);}#el_rmn3MGrRyrA{fill: #1f591f;-webkit-transform: translate(0px, -112px);transform: translate(0px, -112px);}#el_8ds6wDMc_pJ{fill: #1f591f;-webkit-transform: translate(0px, -112px);transform: translate(0px, -112px);}#el_OCOt1qLJ2NA{fill: #1f591f;-webkit-transform: translate(0px, -112px);transform: translate(0px, -112px);}#el_gskk9fd7-3H{fill: #1f591f;-webkit-transform: translate(0px, -112px);transform: translate(0px, -112px);}#el_1AqvyxQL0cI{fill: #1f591f;-webkit-transform: translate(0px, -112px);transform: translate(0px, -112px);}#el_mu05ESPf-fe{fill: #1f591f;-webkit-transform: translate(0px, -112px);transform: translate(0px, -112px);}#el_XLxXYiL4zhl{fill: #1f591f;-webkit-transform: translate(0px, -112px);transform: translate(0px, -112px);}#el_5Y6lc9QBG3G{fill: #1f591f;-webkit-transform: translate(0px, -112px);transform: translate(0px, -112px);}#el_j5xkcwU87vr{fill: #1f591f;-webkit-transform: translate(0px, -112px);transform: translate(0px, -112px);}#el_0JmsFLIxDqp{fill: #1f591f;-webkit-transform: translate(0px, -112px);transform: translate(0px, -112px);}#el_Zq3C_V5eNeJ{fill: #1f591f;-webkit-transform: translate(0px, -112px);transform: translate(0px, -112px);}#el_d-lwvS89PgM{fill: #1f591f;-webkit-transform: translate(0px, -112px);transform: translate(0px, -112px);}#el_XR-luOLw5zC{fill: #1f591f;-webkit-transform: translate(0px, -112px);transform: translate(0px, -112px);}#el_wolv3w8rhOx{fill: #1f591f;-webkit-transform: translate(0px, -112px);transform: translate(0px, -112px);}#el_75BgR9IxvVI{fill: #1f591f;-webkit-transform: translate(0px, -112px);transform: translate(0px, -112px);}#el_oZqLjWQq7VG{fill: #1f591f;-webkit-transform: translate(0px, -112px);transform: translate(0px, -112px);}#el_FF9JFwUlnqj{fill: #1f591f;-webkit-transform: translate(0px, -112px);transform: translate(0px, -112px);}#el_aJ1eAdd8Kdn{fill: #1f591f;-webkit-transform: translate(0px, -112px);transform: translate(0px, -112px);}#el_9CdpYX0UCMo{fill: #1f591f;-webkit-transform: translate(0px, -112px);transform: translate(0px, -112px);}#el_X1t2VeCZcGO{fill: #1f591f;-webkit-transform: translate(0px, -112px);transform: translate(0px, -112px);}#el_gto58BHWiZF{fill: #1f591f;-webkit-transform: translate(0px, -112px);transform: translate(0px, -112px);}#el_2nhxOWcjOdp{fill: #1f591f;-webkit-transform: translate(0px, -112px);transform: translate(0px, -112px);}#el_V45-FLW2ifk{fill: #1f591f;-webkit-transform: translate(0px, -112px);transform: translate(0px, -112px);}#el_cyeLuCL9hbW{fill: #2c772c;-webkit-transform: translate(0px, -112px);transform: translate(0px, -112px);}#el_ZvDG_0aXN28{fill: #2c772c;-webkit-transform: translate(0px, -112px);transform: translate(0px, -112px);}#el_qLyKU8_kSG1{fill: #2c772c;-webkit-transform: translate(0px, -112px);transform: translate(0px, -112px);}#el_N5XX8Hmvi4t{fill: #2c772c;-webkit-transform: translate(0px, -112px);transform: translate(0px, -112px);}#el_aZzczY8Cc4O{fill: #2c772c;-webkit-transform: translate(0px, -112px);transform: translate(0px, -112px);}#el_75zcJ1zsjsG{fill: #2c772c;-webkit-transform: translate(0px, -112px);transform: translate(0px, -112px);}#el_Dz-00dfJE8Z{fill: #2c772c;-webkit-transform: translate(0px, -112px);transform: translate(0px, -112px);}#el_Q3TqHwU2zD5{fill: #2c772c;-webkit-transform: translate(0px, -112px);transform: translate(0px, -112px);}#el_cPROR4g-rzi{fill: #2c772c;-webkit-transform: translate(0px, -112px);transform: translate(0px, -112px);}#el_MjAWPHiHhDR{fill: #2c772c;-webkit-transform: translate(0px, -112px);transform: translate(0px, -112px);}#el_B-d2ANkMpT-{fill: #2c772c;-webkit-transform: translate(0px, -112px);transform: translate(0px, -112px);}#el_Nvq7_2HwcM4{fill: #2c772c;-webkit-transform: translate(0px, -112px);transform: translate(0px, -112px);}#el_QLbPuu1pfV6{fill: #2c772c;-webkit-transform: translate(0px, -112px);transform: translate(0px, -112px);}#el_fKT0h0Uo-2Q{fill: #2c772c;-webkit-transform: translate(0px, -112px);transform: translate(0px, -112px);}#el_rWumVelS7bE{fill: #2c772c;-webkit-transform: translate(0px, -112px);transform: translate(0px, -112px);}#el_KE4SQj7Nmnd{fill: #2c772c;-webkit-transform: translate(0px, -112px);transform: translate(0px, -112px);}#el_kCxOwwD4jZK{fill: #2c772c;-webkit-transform: translate(0px, -112px);transform: translate(0px, -112px);}#el_nvIEEjsQIzG{fill: #2c772c;-webkit-transform: translate(0px, -112px);transform: translate(0px, -112px);}#el_-UaA9P-WkoY{fill: #2c772c;-webkit-transform: translate(0px, -112px);transform: translate(0px, -112px);}#el__gMZhGaq43w{fill: #2c772c;-webkit-transform: translate(0px, -112px);transform: translate(0px, -112px);}#el_1iAnFW70sUM{fill: #2c772c;-webkit-transform: translate(0px, -112px);transform: translate(0px, -112px);}#el_92dmb0my1f0{fill: #2c772c;-webkit-transform: translate(0px, -112px);transform: translate(0px, -112px);}#el_y6w-vzuCawr{fill: #2c772c;-webkit-transform: translate(0px, -112px);transform: translate(0px, -112px);}#el_M3sxHKaHcgn{fill: #2c772c;-webkit-transform: translate(0px, -112px);transform: translate(0px, -112px);}#el_Emuk5IrpfCs{fill: #2c772c;-webkit-transform: translate(0px, -112px);transform: translate(0px, -112px);}#el_WwDD4K74EuC{fill: #2c772c;-webkit-transform: translate(0px, -112px);transform: translate(0px, -112px);}#el_Fcuqyw4sQH_{fill: #2c772c;-webkit-transform: translate(0px, -112px);transform: translate(0px, -112px);}#el_WwQSC9TmwMM{fill: #2c772c;-webkit-transform: translate(0px, -112px);transform: translate(0px, -112px);}#el_lMEwZcBXOUO{fill: #2c772c;-webkit-transform: translate(0px, -112px);transform: translate(0px, -112px);}#el_NJRNr3H9da-{fill: #2c772c;-webkit-transform: translate(0px, -112px);transform: translate(0px, -112px);}#el_lUWbO_zcYYm{fill: #2c772c;-webkit-transform: translate(0px, -112px);transform: translate(0px, -112px);}#el_Lqke_Lbb-di{fill: #2c772c;-webkit-transform: translate(0px, -112px);transform: translate(0px, -112px);}#el_8U0FwQ1od0f{fill: #2c772c;-webkit-transform: translate(0px, -112px);transform: translate(0px, -112px);}#el_cjUb_X5tYbK{fill: #2c772c;-webkit-transform: translate(0px, -112px);transform: translate(0px, -112px);}#el_nkZBTKuIxKJ{fill: #2c772c;-webkit-transform: translate(0px, -112px);transform: translate(0px, -112px);}#el_ux1Bz6jq5u6{fill: #2c772c;-webkit-transform: translate(0px, -112px);transform: translate(0px, -112px);}#el_NvmgzKgh_jT{fill: #2c772c;-webkit-transform: translate(0px, -112px);transform: translate(0px, -112px);}#el_xdEumqqYGny{fill: #2c772c;-webkit-transform: translate(0px, -112px);transform: translate(0px, -112px);}#el_c2n-xlZN0bb{fill: #2c772c;-webkit-transform: translate(0px, -112px);transform: translate(0px, -112px);}#el_liavqMDve-9{fill: #2c772c;-webkit-transform: translate(0px, -112px);transform: translate(0px, -112px);}#el_C4awz89pX69{fill: #2c772c;-webkit-transform: translate(0px, -112px);transform: translate(0px, -112px);}#el_8GGo9vHIhSi{fill: #2c772c;-webkit-transform: translate(0px, -112px);transform: translate(0px, -112px);}#el_4ABjpfnjHG6{fill: #2c772c;-webkit-transform: translate(0px, -112px);transform: translate(0px, -112px);}#el_O7KLMdN9ar_{fill: #2c772c;-webkit-transform: translate(0px, -112px);transform: translate(0px, -112px);}#el_Qx_rtJuwE8X{fill: #2c772c;-webkit-transform: translate(0px, -112px);transform: translate(0px, -112px);}#el_3eFRVC8EVXs{fill: #329b32;-webkit-transform: translate(0px, -112px);transform: translate(0px, -112px);}#el_IhjQ-nW0j9_{fill: #329b32;-webkit-transform: translate(0px, -112px);transform: translate(0px, -112px);}#el_C1InD88JzYr{fill: #329b32;-webkit-transform: translate(0px, -112px);transform: translate(0px, -112px);}#el_p0nSGa3bivx{fill: #329b32;-webkit-transform: translate(0px, -112px);transform: translate(0px, -112px);}#el_Yyo4uyhg0kq{fill: #329b32;-webkit-transform: translate(0px, -112px);transform: translate(0px, -112px);}#el_p1nMWZBnz7f{fill: #329b32;-webkit-transform: translate(0px, -112px);transform: translate(0px, -112px);}#el_Q0gjEcMynG4{fill: #329b32;-webkit-transform: translate(0px, -112px);transform: translate(0px, -112px);}#el_JYobMute_e0{fill: #329b32;-webkit-transform: translate(0px, -112px);transform: translate(0px, -112px);}#el_ivOcVh5i_lD{fill: #329b32;-webkit-transform: translate(0px, -112px);transform: translate(0px, -112px);}#el_AjFWnJSX76L{fill: #329b32;-webkit-transform: translate(0px, -112px);transform: translate(0px, -112px);}#el_qn_LHJARV-s{fill: #329b32;-webkit-transform: translate(0px, -112px);transform: translate(0px, -112px);}#el_ybRoZ3Flkjo{fill: #329b32;-webkit-transform: translate(0px, -112px);transform: translate(0px, -112px);}#el_bwXkz1lXD-0{fill: #329b32;-webkit-transform: translate(0px, -112px);transform: translate(0px, -112px);}#el_w6pNgSuO9mO{fill: #329b32;-webkit-transform: translate(0px, -112px);transform: translate(0px, -112px);}#el_-M7UiR1a8p2{fill: #329b32;-webkit-transform: translate(0px, -112px);transform: translate(0px, -112px);}#el_lQ94NuZ7LEQ{fill: #329b32;-webkit-transform: translate(0px, -112px);transform: translate(0px, -112px);}#el_DMsLS1ySiYj{fill: #329b32;-webkit-transform: translate(0px, -112px);transform: translate(0px, -112px);}#el_f9Qm06yM1Jv{fill: #329b32;-webkit-transform: translate(0px, -112px);transform: translate(0px, -112px);}#el_FZvUkFT1UEh{fill: #329b32;-webkit-transform: translate(0px, -112px);transform: translate(0px, -112px);}#el_NzIkUozA-Lf{fill: #329b32;-webkit-transform: translate(0px, -112px);transform: translate(0px, -112px);}#el_H7a9sqomF_D{fill: #329b32;-webkit-transform: translate(0px, -112px);transform: translate(0px, -112px);}#el_CadKaxazS-s{fill: #329b32;-webkit-transform: translate(0px, -112px);transform: translate(0px, -112px);}#el_Nv7z2ua1Ycb{fill: #329b32;-webkit-transform: translate(0px, -112px);transform: translate(0px, -112px);}#el_gkjnKDChV8C{fill: #329b32;-webkit-transform: translate(0px, -112px);transform: translate(0px, -112px);}#el_mWNKBwLDbqF{fill: #329b32;-webkit-transform: translate(0px, -112px);transform: translate(0px, -112px);}#el_iZ9Bee8UboQ{fill: #329b32;-webkit-transform: translate(0px, -112px);transform: translate(0px, -112px);}#el_rUnsm6xF48W{fill: #329b32;-webkit-transform: translate(0px, -112px);transform: translate(0px, -112px);}#el_1hhRiqVsWCy{fill: #329b32;-webkit-transform: translate(0px, -112px);transform: translate(0px, -112px);}#el_UgMJ1FlYZBA{fill: #329b32;-webkit-transform: translate(0px, -112px);transform: translate(0px, -112px);}#el_pakrqwnxhih{fill: #329b32;-webkit-transform: translate(0px, -112px);transform: translate(0px, -112px);}#el_3ns4leZj5ol{fill: #329b32;-webkit-transform: translate(0px, -112px);transform: translate(0px, -112px);}#el_FMw30rqMC7w{fill: #329b32;-webkit-transform: translate(0px, -112px);transform: translate(0px, -112px);}#el_BytZv3YJHNN{fill: #329b32;-webkit-transform: translate(0px, -112px);transform: translate(0px, -112px);}#el_K95Qtms_ZCR{fill: #329b32;-webkit-transform: translate(0px, -112px);transform: translate(0px, -112px);}#el_CQghfah0JRF{fill: #329b32;-webkit-transform: translate(0px, -112px);transform: translate(0px, -112px);}#el_UPyYqdMSuP7{fill: #329b32;-webkit-transform: translate(0px, -112px);transform: translate(0px, -112px);}#el_xxcoB0giICu{fill: #329b32;-webkit-transform: translate(0px, -112px);transform: translate(0px, -112px);}#el_ovQm78-z-nq{fill: #329b32;-webkit-transform: translate(0px, -112px);transform: translate(0px, -112px);}#el_lr9WcMiCYu6{fill: #329b32;-webkit-transform: translate(0px, -112px);transform: translate(0px, -112px);}#el_2wt-T_W8p1P{fill: #329b32;-webkit-transform: translate(0px, -112px);transform: translate(0px, -112px);}#el_rdNe5TrUDW-{fill: #329b32;-webkit-transform: translate(0px, -112px);transform: translate(0px, -112px);}#el_d7H2wnn13FO{fill: #329b32;-webkit-transform: translate(0px, -112px);transform: translate(0px, -112px);}#el_ahyyyeRaNIx{fill: #329b32;-webkit-transform: translate(0px, -112px);transform: translate(0px, -112px);}#el_6zZjTsS9_ec{fill: #329b32;-webkit-transform: translate(0px, -112px);transform: translate(0px, -112px);}#el_PB-TSLiZTvY{fill: #329b32;-webkit-transform: translate(0px, -112px);transform: translate(0px, -112px);}#el_LvKbsmhAgjx{fill: #8e1325;-webkit-transform: translate(0px, -112px);transform: translate(0px, -112px);}#el_62MV7HKVjYX{fill: #700e21;-webkit-transform: translate(0px, -112px);transform: translate(0px, -112px);}#el_WDbhaqMpqRA{fill: #9b243b;-webkit-transform: translate(0px, -112px);transform: translate(0px, -112px);}#el_lx3hZs4NA71{fill: #af233e;-webkit-transform: translate(0px, -112px);transform: translate(0px, -112px);}#el_4Tsa3d1YD3s{fill: #8e1325;-webkit-transform: translate(0px, -112px);transform: translate(0px, -112px);}#el_BrQOEsseb2o{fill: #700e21;-webkit-transform: translate(0px, -112px);transform: translate(0px, -112px);}#el_V6gm726i7p9{fill: #9b243b;-webkit-transform: translate(0px, -112px);transform: translate(0px, -112px);}#el_HtA_o0UhUUt{fill: #af233e;-webkit-transform: translate(0px, -112px);transform: translate(0px, -112px);}#el_fbH-shv37Uw{fill: #d3355b;-webkit-transform: translate(0px, -112px);transform: translate(0px, -112px);}#el_u89wWMx4VEm{fill: #a32348;-webkit-transform: translate(0px, -112px);transform: translate(0px, -112px);}#el_nTzWwLuk16r{fill: #878787;-webkit-transform: translate(0px, -112px);transform: translate(0px, -112px);}#el_EEnvmPmwVBu{fill: #dd1444;-webkit-transform: translate(0px, -112px);transform: translate(0px, -112px);}#el_W8gTs2FSeHb{fill: #9ebec6;-webkit-transform: translate(0px, -112px);transform: translate(0px, -112px);}#el_V1yEWxLFoO3{fill: #aff2f9;-webkit-animation-fill-mode: backwards;animation-fill-mode: backwards;opacity: 0;-webkit-animation-name: kf_el_V1yEWxLFoO3_an_xLbKXSFKQ;animation-name: kf_el_V1yEWxLFoO3_an_xLbKXSFKQ;-webkit-animation-timing-function: cubic-bezier(0, 0, 1, 1);animation-timing-function: cubic-bezier(0, 0, 1, 1);}#el_D5zcyTgHACq{fill: #e4f7f9;-webkit-animation-fill-mode: backwards;animation-fill-mode: backwards;opacity: 0;-webkit-animation-name: kf_el_D5zcyTgHACq_an_X31IXSbhL;animation-name: kf_el_D5zcyTgHACq_an_X31IXSbhL;-webkit-animation-timing-function: cubic-bezier(0, 0, 1, 1);animation-timing-function: cubic-bezier(0, 0, 1, 1);}#el_7KbbW-5Uy_L{fill: #bbeaf2;-webkit-animation-fill-mode: backwards;animation-fill-mode: backwards;opacity: 0;-webkit-animation-name: kf_el_7KbbW-5Uy_L_an_9gk2iRQG5;animation-name: kf_el_7KbbW-5Uy_L_an_9gk2iRQG5;-webkit-animation-timing-function: cubic-bezier(0, 0, 1, 1);animation-timing-function: cubic-bezier(0, 0, 1, 1);}#el_2Zgbf9YhVjW{fill: #bbeaf2;-webkit-animation-fill-mode: backwards;animation-fill-mode: backwards;opacity: 0;-webkit-animation-name: kf_el_2Zgbf9YhVjW_an_ytNDONo5x;animation-name: kf_el_2Zgbf9YhVjW_an_ytNDONo5x;-webkit-animation-timing-function: cubic-bezier(0, 0, 1, 1);animation-timing-function: cubic-bezier(0, 0, 1, 1);}#el_ezLcrIMn5uZ{fill: #dae9ea;-webkit-animation-fill-mode: backwards;animation-fill-mode: backwards;opacity: 0;-webkit-animation-name: kf_el_ezLcrIMn5uZ_an_niua5nP3q;animation-name: kf_el_ezLcrIMn5uZ_an_niua5nP3q;-webkit-animation-timing-function: cubic-bezier(0, 0, 1, 1);animation-timing-function: cubic-bezier(0, 0, 1, 1);}#el_pfpLfbU5R_U{fill: #dcf8f9;-webkit-animation-fill-mode: backwards;animation-fill-mode: backwards;opacity: 0;-webkit-animation-name: kf_el_pfpLfbU5R_U_an_1t2mFfBWZ;animation-name: kf_el_pfpLfbU5R_U_an_1t2mFfBWZ;-webkit-animation-timing-function: cubic-bezier(0, 0, 1, 1);animation-timing-function: cubic-bezier(0, 0, 1, 1);}#el_pBssEntgggk{fill: #97e1e8;-webkit-animation-fill-mode: backwards;animation-fill-mode: backwards;opacity: 0;-webkit-animation-name: kf_el_pBssEntgggk_an_XCtbxxSVf;animation-name: kf_el_pBssEntgggk_an_XCtbxxSVf;-webkit-animation-timing-function: cubic-bezier(0, 0, 1, 1);animation-timing-function: cubic-bezier(0, 0, 1, 1);}#el_D5zcyTgHACq_an_GpYUi9c1V{-webkit-animation-fill-mode: backwards;animation-fill-mode: backwards;-webkit-transform: translate(393.17999267578125px, 52.92000198364258px) translate(-393.17999267578125px, -52.92000198364258px) translate(0px, 0px);transform: translate(393.17999267578125px, 52.92000198364258px) translate(-393.17999267578125px, -52.92000198364258px) translate(0px, 0px);-webkit-animation-name: kf_el_D5zcyTgHACq_an_GpYUi9c1V;animation-name: kf_el_D5zcyTgHACq_an_GpYUi9c1V;-webkit-animation-timing-function: cubic-bezier(0, 0, 1, 1);animation-timing-function: cubic-bezier(0, 0, 1, 1);}#el_V1yEWxLFoO3_an_4s3UixBOY{-webkit-animation-fill-mode: backwards;animation-fill-mode: backwards;-webkit-transform: translate(551px, 137px) translate(-551px, -137px) translate(0px, 0px);transform: translate(551px, 137px) translate(-551px, -137px) translate(0px, 0px);-webkit-animation-name: kf_el_V1yEWxLFoO3_an_4s3UixBOY;animation-name: kf_el_V1yEWxLFoO3_an_4s3UixBOY;-webkit-animation-timing-function: cubic-bezier(0, 0, 1, 1);animation-timing-function: cubic-bezier(0, 0, 1, 1);}#el_7KbbW-5Uy_L_an_mjhyKZs8T{-webkit-animation-fill-mode: backwards;animation-fill-mode: backwards;-webkit-transform: translate(793.760009765625px, 0px) translate(-793.760009765625px, 0px) translate(0px, 100px);transform: translate(793.760009765625px, 0px) translate(-793.760009765625px, 0px) translate(0px, 100px);-webkit-animation-name: kf_el_7KbbW-5Uy_L_an_mjhyKZs8T;animation-name: kf_el_7KbbW-5Uy_L_an_mjhyKZs8T;-webkit-animation-timing-function: cubic-bezier(0, 0, 1, 1);animation-timing-function: cubic-bezier(0, 0, 1, 1);}#el_2Zgbf9YhVjW_an_D8q1NRK1O{-webkit-animation-fill-mode: backwards;animation-fill-mode: backwards;-webkit-transform: translate(951.02001953125px, 108.00000762939453px) translate(-951.02001953125px, -108.00000762939453px) translate(0px, 0px);transform: translate(951.02001953125px, 108.00000762939453px) translate(-951.02001953125px, -108.00000762939453px) translate(0px, 0px);-webkit-animation-name: kf_el_2Zgbf9YhVjW_an_D8q1NRK1O;animation-name: kf_el_2Zgbf9YhVjW_an_D8q1NRK1O;-webkit-animation-timing-function: cubic-bezier(0, 0, 1, 1);animation-timing-function: cubic-bezier(0, 0, 1, 1);}#el_pfpLfbU5R_U_an_HWGQLT6EM{-webkit-animation-fill-mode: backwards;animation-fill-mode: backwards;-webkit-transform: translate(1164.43994140625px, 191.33999633789062px) translate(-1164.43994140625px, -191.33999633789062px) translate(0px, 0px);transform: translate(1164.43994140625px, 191.33999633789062px) translate(-1164.43994140625px, -191.33999633789062px) translate(0px, 0px);-webkit-animation-name: kf_el_pfpLfbU5R_U_an_HWGQLT6EM;animation-name: kf_el_pfpLfbU5R_U_an_HWGQLT6EM;-webkit-animation-timing-function: cubic-bezier(0, 0, 1, 1);animation-timing-function: cubic-bezier(0, 0, 1, 1);}#el_ezLcrIMn5uZ_an_KnSDUD7dH{-webkit-animation-fill-mode: backwards;animation-fill-mode: backwards;-webkit-transform: translate(1225.43994140625px, 249.33999633789062px) translate(-1225.43994140625px, -249.33999633789062px) translate(0px, 0px);transform: translate(1225.43994140625px, 249.33999633789062px) translate(-1225.43994140625px, -249.33999633789062px) translate(0px, 0px);-webkit-animation-name: kf_el_ezLcrIMn5uZ_an_KnSDUD7dH;animation-name: kf_el_ezLcrIMn5uZ_an_KnSDUD7dH;-webkit-animation-timing-function: cubic-bezier(0, 0, 1, 1);animation-timing-function: cubic-bezier(0, 0, 1, 1);}#el_pBssEntgggk_an_nOyQjrieu{-webkit-animation-fill-mode: backwards;animation-fill-mode: backwards;-webkit-transform: translate(1390.4400634765625px, 74px) translate(-1390.4400634765625px, -74px) translate(0px, 50px);transform: translate(1390.4400634765625px, 74px) translate(-1390.4400634765625px, -74px) translate(0px, 50px);-webkit-animation-name: kf_el_pBssEntgggk_an_nOyQjrieu;animation-name: kf_el_pBssEntgggk_an_nOyQjrieu;-webkit-animation-timing-function: cubic-bezier(0, 0, 1, 1);animation-timing-function: cubic-bezier(0, 0, 1, 1);}</style><defs/><title>sea</title><g id="el_KTF0E3oyLY" data-name="Layer 4"><path d="M0,343V500H355c6.2-38.55,8.07-88.64-21-114-17.89-15.59-33.16-9.37-85-15-85.79-9.32-101.55-32.6-197-42-22.62-2.23-41-2.82-52-3" id="el_vDGTLN7btk"/><path d="M1439.64,500H1920V369a862.88,862.88,0,0,0-171-15c-181.47,2.24-231.48,28.45-246,39-34.59,25.15-54.34,56.52-65,77" id="el_jVv1PCaa9w"/><path d="M1439.64,500" id="el_2ficcwV6mY"/></g><g id="el_TgYf1Cu7eV" data-name="Layer 1"><path d="M0,414c66.13-1.93,170.12-5.76,298-14,229.4-14.77,302.34-28.7,440-24,164.61,5.62,144.83,28.41,324,41,245,17.22,315.53-23.08,566-11a2167.61,2167.61,0,0,1,292,34v60H0V436" id="el_TsLtTRN5A0"/></g><g id="el_Z2nQ53jWAv" data-name="Layer 2"><path d="M1847.22,385.07h-3.73a55.38,55.38,0,0,1,3.77-21.36,55.25,55.25,0,0,0,0-38.11,62.37,62.37,0,0,1,0-42.71,55.28,55.28,0,0,0,0-38.12,55.28,55.28,0,0,1-3.77-21.35,55.3,55.3,0,0,1,3.77-21.36,48.66,48.66,0,0,0,3.39-19.06h3.73a55.38,55.38,0,0,1-3.77,21.36,48.85,48.85,0,0,0-3.39,19.06,48.79,48.79,0,0,0,3.39,19.05,62.4,62.4,0,0,1,0,42.72,55.25,55.25,0,0,0,0,38.11,62.4,62.4,0,0,1,0,42.72A48.79,48.79,0,0,0,1847.22,385.07Z" id="el_KpGreZHCAq"/><path d="M1845.36,219.16h0c-10.11,0-18.31-11.43-18.31-25.52h0c10.12,0,18.31,11.42,18.31,25.52Z" id="el_5U-4q9YiIv"/><path d="M1845.36,296.09h0c-10.11,0-18.31-11.43-18.31-25.53h0c10.12,0,18.31,11.43,18.31,25.53Z" id="el_PaS7UivHKQ"/><path d="M1851.47,358.84h0c-10.12,0-18.31-11.43-18.31-25.53h0c10.11,0,18.31,11.43,18.31,25.53Z" id="el_BPmWw_12aN"/><path d="M1848.41,241.14h0c10.11,0,18.31-11.43,18.31-25.52h0c-10.11,0-18.31,11.42-18.31,25.52Z" id="el_YPEYRP9Y7j"/><path d="M1848.41,318.07h0c10.11,0,18.31-11.43,18.31-25.53h0c-10.11,0-18.31,11.43-18.31,25.53Z" id="el_6HeOMbaRRI"/><path d="M1801.17,385.07h-3.73a55.38,55.38,0,0,1,3.77-21.36,55.25,55.25,0,0,0,0-38.11,62.37,62.37,0,0,1,0-42.71,55.28,55.28,0,0,0,0-38.12,55.28,55.28,0,0,1-3.77-21.35h3.73a48.82,48.82,0,0,0,3.38,19.05,62.24,62.24,0,0,1,0,42.72,55.4,55.4,0,0,0,0,38.11,62.24,62.24,0,0,1,0,42.72A48.82,48.82,0,0,0,1801.17,385.07Z" id="el_Lek2jonwFG"/><path d="M1799.31,296.09h0c-10.11,0-18.31-11.43-18.31-25.53h0c10.11,0,18.31,11.43,18.31,25.53Z" id="el_gIznpxDBIW"/><path d="M1805.69,357.42h0c-10.11,0-18.31-11.43-18.31-25.52h0c10.11,0,18.31,11.42,18.31,25.52Z" id="el_Yy_7Ivbcqw5"/><path d="M1802.36,241.14h0c10.11,0,18.31-11.43,18.31-25.52h0c-10.11,0-18.31,11.42-18.31,25.52Z" id="el_1e1fL-WhY50"/><path d="M1802.36,318.07h0c10.11,0,18.31-11.43,18.31-25.53h0c-10.11,0-18.31,11.43-18.31,25.53Z" id="el_aCyNJJ9uyjq"/><path d="M1892.48,385.07h-3.73a55.15,55.15,0,0,1,3.78-21.36,55.4,55.4,0,0,0,0-38.11,62.21,62.21,0,0,1,0-42.71,48.88,48.88,0,0,0,3.38-19.06h3.73a55.34,55.34,0,0,1-3.77,21.36,55.25,55.25,0,0,0,0,38.11,62.4,62.4,0,0,1,0,42.72A48.79,48.79,0,0,0,1892.48,385.07Z" id="el__mJ3PQCap4I"/><path d="M1890.62,296.09h0c-10.11,0-18.3-11.43-18.3-25.53h0c10.11,0,18.3,11.43,18.3,25.53Z" id="el_BkQysYvyaix"/><path d="M1895.2,359.55h0c-10.11,0-18.31-11.43-18.31-25.53h0c10.11,0,18.31,11.43,18.31,25.53Z" id="el_fBSMPHXWiRZ"/><path d="M1894.69,325.87h0c10.11,0,18.31-11.43,18.31-25.53h0c-10.11,0-18.31,11.43-18.31,25.53Z" id="el_q-Qav0imPGm"/><path d="M1742.37,381.89h-2.13a22.78,22.78,0,0,1,2.15-10.24,22.5,22.5,0,0,0,0-18.28,25.46,25.46,0,0,1,0-20.48,22.48,22.48,0,0,0,0-18.27,25.46,25.46,0,0,1,0-20.48,20.1,20.1,0,0,0,1.94-9.14h2.13a22.78,22.78,0,0,1-2.15,10.24,22.5,22.5,0,0,0,0,18.28,25.46,25.46,0,0,1,0,20.48,22.48,22.48,0,0,0,0,18.27,25.46,25.46,0,0,1,0,20.48A20.07,20.07,0,0,0,1742.37,381.89Z" id="el_F3wKXxIgohH"/><path d="M1741.31,302.34h0c-5.79,0-10.48-5.48-10.48-12.24h0c5.79,0,10.48,5.48,10.48,12.24Z" id="el_igRPOiNBoen"/><path d="M1741.31,339.22h0c-5.79,0-10.48-5.48-10.48-12.24h0c5.79,0,10.48,5.48,10.48,12.24Z" id="el_MG9Oh35tf8X"/><path d="M1744.8,369.31h0c-5.79,0-10.48-5.48-10.48-12.24h0c5.79,0,10.48,5.48,10.48,12.24Z" id="el_hJVqyVU_8hF"/><path d="M1743.05,312.88h0c5.79,0,10.47-5.48,10.47-12.24h0c-5.78,0-10.47,5.48-10.47,12.24Z" id="el_s4ljzQRcycb"/><path d="M1743.05,349.76h0c5.79,0,10.47-5.48,10.47-12.24h0c-5.78,0-10.47,5.48-10.47,12.24Z" id="el_TCeaP9p2wfM"/><path d="M1716,381.89h-2.13a22.76,22.76,0,0,1,2.16-10.24,22.61,22.61,0,0,0,0-18.28,25.35,25.35,0,0,1,0-20.48,22.58,22.58,0,0,0,0-18.27,22.8,22.8,0,0,1-2.16-10.24H1716a20.1,20.1,0,0,0,1.94,9.14,25.35,25.35,0,0,1,0,20.48,22.48,22.48,0,0,0,0,18.27,25.35,25.35,0,0,1,0,20.48A20.07,20.07,0,0,0,1716,381.89Z" id="el_MP1De0vB_nv"/><path d="M1715,339.22h0c-5.79,0-10.47-5.48-10.47-12.24h0c5.78,0,10.47,5.48,10.47,12.24Z" id="el_rmn3MGrRyrA"/><path d="M1718.61,368.63h0c-5.78,0-10.47-5.48-10.47-12.24h0c5.78,0,10.47,5.48,10.47,12.24Z" id="el_8ds6wDMc_pJ"/><path d="M1716.7,312.88h0c5.79,0,10.48-5.48,10.48-12.24h0c-5.79,0-10.48,5.48-10.48,12.24Z" id="el_OCOt1qLJ2NA"/><path d="M1716.7,349.76h0c5.79,0,10.48-5.48,10.48-12.24h0c-5.79,0-10.48,5.48-10.48,12.24Z" id="el_gskk9fd7-3H"/><path d="M1768.26,381.89h-2.13a22.76,22.76,0,0,1,2.16-10.24,22.61,22.61,0,0,0,0-18.28,25.35,25.35,0,0,1,0-20.48,20.17,20.17,0,0,0,1.93-9.13h2.14A22.8,22.8,0,0,1,1770.2,334a22.48,22.48,0,0,0,0,18.27,25.35,25.35,0,0,1,0,20.48A20.07,20.07,0,0,0,1768.26,381.89Z" id="el_1AqvyxQL0cI"/><path d="M1767.2,339.22h0c-5.79,0-10.47-5.48-10.47-12.24h0c5.78,0,10.47,5.48,10.47,12.24Z" id="el_mu05ESPf-fe"/><path d="M1769.82,369.65h0c-5.79,0-10.48-5.48-10.48-12.24h0c5.79,0,10.48,5.48,10.48,12.24Z" id="el_XLxXYiL4zhl"/><path d="M1769.53,353.5h0c5.78,0,10.47-5.48,10.47-12.24h0c-5.78,0-10.47,5.48-10.47,12.24Z" id="el_5Y6lc9QBG3G"/><path d="M1646.94,368.81a50.2,50.2,0,0,1,0-33.8,44.52,44.52,0,0,0,0-30.15,50.2,50.2,0,0,1,0-33.8,44.55,44.55,0,0,0,0-30.16A44.42,44.42,0,0,1,1644,224h2.9a39.14,39.14,0,0,0,2.63,15.08,50.2,50.2,0,0,1,0,33.8,44.52,44.52,0,0,0,0,30.15,50.2,50.2,0,0,1,0,33.8,44.55,44.55,0,0,0,0,30.16,44.42,44.42,0,0,1,2.93,16.9h-2.9A39.29,39.29,0,0,0,1646.94,368.81Z" id="el_j5xkcwU87vr"/><path d="M1651,252.61c0-11.15,6.37-20.19,14.22-20.19h0c0,11.15-6.36,20.19-14.22,20.19Z" id="el_0JmsFLIxDqp"/><path d="M1651,313.48c0-11.15,6.37-20.2,14.22-20.2h0c0,11.16-6.36,20.2-14.22,20.2Z" id="el_Zq3C_V5eNeJ"/><path d="M1646.27,363.13c0-11.15,6.37-20.2,14.22-20.2h0c0,11.16-6.36,20.2-14.22,20.2Z" id="el_d-lwvS89PgM"/><path d="M1648.64,270c0-11.15-6.36-20.19-14.21-20.19h0c0,11.15,6.36,20.19,14.21,20.19Z" id="el_XR-luOLw5zC"/><path d="M1648.64,330.87c0-11.15-6.36-20.19-14.21-20.19h0c0,11.15,6.36,20.19,14.21,20.19Z" id="el_wolv3w8rhOx"/><path d="M1682.71,368.81a50.2,50.2,0,0,1,0-33.8,44.52,44.52,0,0,0,0-30.15,50.2,50.2,0,0,1,0-33.8,39.33,39.33,0,0,0,2.63-15.08h2.89a44.46,44.46,0,0,1-2.93,16.9,44.52,44.52,0,0,0,0,30.15,50.2,50.2,0,0,1,0,33.8,44.55,44.55,0,0,0,0,30.16,44.42,44.42,0,0,1,2.93,16.9h-2.89A39.29,39.29,0,0,0,1682.71,368.81Z" id="el_75BgR9IxvVI"/><path d="M1686.78,313.48c0-11.15,6.37-20.2,14.22-20.2h0c0,11.16-6.37,20.2-14.22,20.2Z" id="el_oZqLjWQq7VG"/><path d="M1681.83,362c0-11.16,6.36-20.2,14.21-20.2h0c0,11.16-6.36,20.2-14.21,20.2Z" id="el_FF9JFwUlnqj"/><path d="M1684.41,270c0-11.15-6.36-20.19-14.22-20.19h0c0,11.15,6.37,20.19,14.22,20.19Z" id="el_aJ1eAdd8Kdn"/><path d="M1684.41,330.87c0-11.15-6.36-20.19-14.22-20.19h0c0,11.15,6.37,20.19,14.22,20.19Z" id="el_9CdpYX0UCMo"/><path d="M1611.79,368.81a50.2,50.2,0,0,1,0-33.8,44.52,44.52,0,0,0,0-30.15,44.5,44.5,0,0,1-2.93-16.9h2.9a39,39,0,0,0,2.63,15.07,50.2,50.2,0,0,1,0,33.8,44.55,44.55,0,0,0,0,30.16,44.42,44.42,0,0,1,2.93,16.9h-2.9A39.29,39.29,0,0,0,1611.79,368.81Z" id="el_X1t2VeCZcGO"/><path d="M1615.86,313.48c0-11.15,6.37-20.2,14.22-20.2h0c0,11.16-6.36,20.2-14.22,20.2Z" id="el_gto58BHWiZF"/><path d="M1612.31,363.69c0-11.15,6.36-20.2,14.22-20.2h0c0,11.16-6.37,20.2-14.22,20.2Z" id="el_2nhxOWcjOdp"/><path d="M1612.7,337c0-11.15-6.36-20.19-14.21-20.19h0c0,11.15,6.36,20.19,14.21,20.19Z" id="el_V45-FLW2ifk"/><path d="M1626.66,390.89h-4.31c0-8.27,2.22-12.44,4.36-16.48,2-3.79,3.92-7.37,3.92-14.7s-1.9-10.91-3.92-14.7c-2.14-4-4.36-8.21-4.36-16.48s2.22-12.43,4.36-16.47c2-3.79,3.92-7.38,3.92-14.7s-1.9-10.91-3.92-14.7c-2.14-4-4.36-8.22-4.36-16.48s2.22-12.44,4.36-16.48c2-3.79,3.92-7.37,3.92-14.7H1635c0,8.26-2.22,12.44-4.37,16.48-2,3.79-3.92,7.37-3.92,14.7s1.91,10.91,3.92,14.7c2.15,4,4.37,8.21,4.37,16.48s-2.22,12.44-4.37,16.47c-2,3.8-3.92,7.38-3.92,14.7s1.91,10.91,3.92,14.7c2.15,4,4.37,8.22,4.37,16.48s-2.22,12.44-4.37,16.48C1628.57,380,1626.66,383.56,1626.66,390.89Z" id="el_cyeLuCL9hbW"/><path d="M1624.51,262.9h0c-11.7,0-21.19-8.82-21.19-19.7h0c11.7,0,21.19,8.82,21.19,19.7Z" id="el_ZvDG_0aXN28"/><path d="M1624.51,322.24h0c-11.7,0-21.19-8.81-21.19-19.69h0c11.7,0,21.19,8.82,21.19,19.69Z" id="el_qLyKU8_kSG1"/><path d="M1631.58,370.65h0c-11.71,0-21.2-8.82-21.2-19.69h0c11.71,0,21.2,8.81,21.2,19.69Z" id="el_N5XX8Hmvi4t"/><path d="M1628,279.85h0c11.71,0,21.2-8.81,21.2-19.69h0c-11.71,0-21.2,8.82-21.2,19.69Z" id="el_aZzczY8Cc4O"/><path d="M1628,339.2h0c11.71,0,21.2-8.82,21.2-19.69h0c-11.71,0-21.2,8.81-21.2,19.69Z" id="el_75zcJ1zsjsG"/><path d="M1573.35,390.89H1569c0-8.27,2.22-12.44,4.37-16.48,2-3.79,3.92-7.37,3.92-14.7s-1.91-10.91-3.92-14.7c-2.15-4-4.37-8.21-4.37-16.48s2.22-12.43,4.37-16.47c2-3.79,3.92-7.38,3.92-14.7s-1.91-10.91-3.92-14.7c-2.15-4-4.37-8.22-4.37-16.48h4.32c0,7.32,1.9,10.91,3.92,14.7,2.14,4,4.36,8.21,4.36,16.48s-2.22,12.44-4.36,16.47c-2,3.8-3.92,7.38-3.92,14.7s1.9,10.91,3.92,14.7c2.14,4,4.36,8.22,4.36,16.48s-2.22,12.44-4.36,16.48C1575.25,380,1573.35,383.56,1573.35,390.89Z" id="el_Dz-00dfJE8Z"/><path d="M1571.19,322.24h0c-11.7,0-21.19-8.81-21.19-19.69h0c11.71,0,21.19,8.82,21.19,19.69Z" id="el_Q3TqHwU2zD5"/><path d="M1578.58,369.56h0c-11.7,0-21.19-8.82-21.19-19.7h0c11.7,0,21.19,8.82,21.19,19.7Z" id="el_cPROR4g-rzi"/><path d="M1574.73,279.85h0c11.7,0,21.19-8.81,21.19-19.69h0c-11.7,0-21.19,8.82-21.19,19.69Z" id="el_MjAWPHiHhDR"/><path d="M1574.73,339.2h0c11.7,0,21.19-8.82,21.19-19.69h0c-11.7,0-21.19,8.81-21.19,19.69Z" id="el_B-d2ANkMpT-"/><path d="M1679.06,390.89h-4.32c0-8.27,2.22-12.44,4.37-16.48,2-3.79,3.92-7.37,3.92-14.7s-1.9-10.91-3.92-14.7c-2.15-4-4.37-8.21-4.37-16.48s2.22-12.43,4.37-16.47c2-3.79,3.92-7.38,3.92-14.7h4.32c0,8.26-2.22,12.44-4.37,16.47-2,3.8-3.92,7.38-3.92,14.7s1.91,10.91,3.92,14.7c2.15,4,4.37,8.22,4.37,16.48s-2.22,12.44-4.37,16.48C1681,380,1679.06,383.56,1679.06,390.89Z" id="el_Nvq7_2HwcM4"/><path d="M1676.91,322.24h0c-11.71,0-21.2-8.81-21.2-19.69h0c11.71,0,21.2,8.82,21.2,19.69Z" id="el_QLbPuu1pfV6"/><path d="M1682.21,371.2h0c-11.71,0-21.2-8.82-21.2-19.69h0c11.71,0,21.2,8.81,21.2,19.69Z" id="el_fKT0h0Uo-2Q"/><path d="M1681.62,345.22h0c11.7,0,21.19-8.82,21.19-19.7h0c-11.7,0-21.19,8.82-21.19,19.7Z" id="el_rWumVelS7bE"/><path d="M1743.84,376.88a76.13,76.13,0,0,1,0-46.89,67.73,67.73,0,0,0,0-41.83,67,67,0,0,1-3.7-23.44,67,67,0,0,1,3.7-23.44,59.51,59.51,0,0,0,3.31-20.92,59.51,59.51,0,0,0-3.31-20.92,67,67,0,0,1-3.7-23.44h3.66a59.51,59.51,0,0,0,3.31,20.92,67,67,0,0,1,3.7,23.44,67,67,0,0,1-3.7,23.44,67.76,67.76,0,0,0,0,41.84,76.1,76.1,0,0,1,0,46.88,67.73,67.73,0,0,0,0,41.83,67,67,0,0,1,3.7,23.44h-3.66A59.4,59.4,0,0,0,1743.84,376.88Z" id="el_KE4SQj7Nmnd"/><path d="M1749,215.69c0-15.47,8-28,17.93-28h0c0,15.48-8,28-17.93,28Z" id="el_kCxOwwD4jZK"/><path d="M1749,300.13c0-15.48,8-28,17.93-28h0c0,15.47-8,28-17.93,28Z" id="el_nvIEEjsQIzG"/><path d="M1743,369c0-15.47,8-28,17.93-28h0c0,15.48-8,28-17.93,28Z" id="el_-UaA9P-WkoY"/><path d="M1746,239.81c0-15.47-8-28-17.93-28h0c0,15.47,8,28,17.93,28Z" id="el__gMZhGaq43w"/><path d="M1746,324.25c0-15.47-8-28-17.93-28h0c0,15.47,8,28,17.93,28Z" id="el_1iAnFW70sUM"/><path d="M1788.94,376.88a76.13,76.13,0,0,1,0-46.89,67.73,67.73,0,0,0,0-41.83,67,67,0,0,1-3.7-23.44,67,67,0,0,1,3.7-23.44,59.51,59.51,0,0,0,3.31-20.92h3.65a67,67,0,0,1-3.69,23.44,67.57,67.57,0,0,0,0,41.84,76.29,76.29,0,0,1,0,46.88,67.54,67.54,0,0,0,0,41.83,67.08,67.08,0,0,1,3.69,23.44h-3.65A59.4,59.4,0,0,0,1788.94,376.88Z" id="el_92dmb0my1f0"/><path d="M1794.07,300.13c0-15.48,8-28,17.93-28h0c0,15.47-8,28-17.93,28Z" id="el_y6w-vzuCawr"/><path d="M1787.82,367.44c0-15.47,8-28,17.93-28h0c0,15.47-8,28-17.93,28Z" id="el_M3sxHKaHcgn"/><path d="M1791.08,239.81c0-15.47-8-28-17.92-28h0c0,15.47,8,28,17.92,28Z" id="el_Emuk5IrpfCs"/><path d="M1791.08,324.25c0-15.47-8-28-17.92-28h0c0,15.47,8,28,17.92,28Z" id="el_WwDD4K74EuC"/><path d="M1699.52,376.88a76.13,76.13,0,0,1,0-46.89,67.73,67.73,0,0,0,0-41.83,67,67,0,0,1-3.7-23.44h3.66a59.51,59.51,0,0,0,3.31,20.92,76.29,76.29,0,0,1,0,46.88,67.73,67.73,0,0,0,0,41.83,67.08,67.08,0,0,1,3.69,23.44h-3.65A59.4,59.4,0,0,0,1699.52,376.88Z" id="el_Fcuqyw4sQH_"/><path d="M1704.65,300.13c0-15.48,8-28,17.93-28h0c0,15.47-8,28-17.93,28Z" id="el_WwQSC9TmwMM"/><path d="M1700.17,369.78c0-15.47,8-28,17.93-28h0c0,15.48-8,28-17.93,28Z" id="el_lMEwZcBXOUO"/><path d="M1700.67,332.81c0-15.47-8-28-17.93-28h0c0,15.47,8,28,17.93,28Z" id="el_NJRNr3H9da-"/><path d="M1863.18,398.75h-3a29.72,29.72,0,0,1,3.09-13.93,29.23,29.23,0,0,0,0-24.84,32.92,32.92,0,0,1,0-27.85,29.25,29.25,0,0,0,0-24.85,32.94,32.94,0,0,1,0-27.86A26.27,26.27,0,0,0,1866,267h3a29.72,29.72,0,0,1-3.09,13.93,29.25,29.25,0,0,0,0,24.85,32.92,32.92,0,0,1,0,27.85,29.23,29.23,0,0,0,0,24.84,32.92,32.92,0,0,1,0,27.85A26.35,26.35,0,0,0,1863.18,398.75Z" id="el_lUWbO_zcYYm"/><path d="M1861.66,290.58h0c-8.27,0-15-7.45-15-16.65h0c8.27,0,15,7.46,15,16.65Z" id="el_Lqke_Lbb-di"/><path d="M1861.66,340.73h0c-8.27,0-15-7.45-15-16.64h0c8.27,0,15,7.45,15,16.64Z" id="el_8U0FwQ1od0f"/><path d="M1866.65,381.64h0c-8.27,0-15-7.45-15-16.64h0c8.28,0,15,7.45,15,16.64Z" id="el_cjUb_X5tYbK"/><path d="M1864.16,304.91h0c8.27,0,15-7.45,15-16.65h0c-8.28,0-15,7.46-15,16.65Z" id="el_nkZBTKuIxKJ"/><path d="M1864.16,355.06h0c8.27,0,15-7.45,15-16.64h0c-8.28,0-15,7.45-15,16.64Z" id="el_ux1Bz6jq5u6"/><path d="M1825.5,398.75h-3a29.72,29.72,0,0,1,3.09-13.93,29.23,29.23,0,0,0,0-24.84,32.92,32.92,0,0,1,0-27.85,29.25,29.25,0,0,0,0-24.85,29.72,29.72,0,0,1-3.09-13.93h3a26.35,26.35,0,0,0,2.77,12.43,32.92,32.92,0,0,1,0,27.85,29.23,29.23,0,0,0,0,24.84,32.92,32.92,0,0,1,0,27.85A26.35,26.35,0,0,0,1825.5,398.75Z" id="el_NvmgzKgh_jT"/><path d="M1824,340.73h0c-8.27,0-15-7.45-15-16.64h0c8.27,0,15,7.45,15,16.64Z" id="el_xdEumqqYGny"/><path d="M1829.2,380.72h0c-8.27,0-15-7.45-15-16.64h0c8.27,0,15,7.45,15,16.64Z" id="el_c2n-xlZN0bb"/><path d="M1826.48,304.91h0c8.27,0,15-7.45,15-16.65h0c-8.27,0-15,7.46-15,16.65Z" id="el_liavqMDve-9"/><path d="M1826.48,355.06h0c8.27,0,15-7.45,15-16.64h0c-8.27,0-15,7.45-15,16.64Z" id="el_C4awz89pX69"/><path d="M1900.21,398.75h-3a29.72,29.72,0,0,1,3.09-13.93,29.23,29.23,0,0,0,0-24.84,32.92,32.92,0,0,1,0-27.85A26.35,26.35,0,0,0,1903,319.7h3a29.72,29.72,0,0,1-3.09,13.93,29.23,29.23,0,0,0,0,24.84,32.92,32.92,0,0,1,0,27.85A26.35,26.35,0,0,0,1900.21,398.75Z" id="el_8GGo9vHIhSi"/><path d="M1898.69,340.73h0c-8.27,0-15-7.45-15-16.64h0c8.28,0,15,7.45,15,16.64Z" id="el_4ABjpfnjHG6"/><path d="M1902.44,382.11h0c-8.28,0-15-7.45-15-16.65h0c8.27,0,15,7.46,15,16.65Z" id="el_O7KLMdN9ar_"/><path d="M1902,360.15h0c8.27,0,15-7.45,15-16.64h0c-8.27,0-15,7.45-15,16.64Z" id="el_Qx_rtJuwE8X"/><path d="M1596.37,400.75h-3.66a67,67,0,0,1,3.7-23.44,67.73,67.73,0,0,0,0-41.83,76.13,76.13,0,0,1,0-46.89,67.73,67.73,0,0,0,0-41.83,67.06,67.06,0,0,1-3.7-23.45,67,67,0,0,1,3.7-23.44,59.46,59.46,0,0,0,3.31-20.92h3.66a67.06,67.06,0,0,1-3.7,23.45,59.4,59.4,0,0,0-3.31,20.91,59.46,59.46,0,0,0,3.31,20.92,67,67,0,0,1,3.7,23.44,67.06,67.06,0,0,1-3.7,23.45,67.73,67.73,0,0,0,0,41.83,76.1,76.1,0,0,1,0,46.88A59.46,59.46,0,0,0,1596.37,400.75Z" id="el_3eFRVC8EVXs"/><path d="M1594.55,218.64h0c-9.91,0-17.93-12.54-17.93-28h0c9.9,0,17.93,12.54,17.93,28Z" id="el_IhjQ-nW0j9_"/><path d="M1594.55,303.08h0c-9.91,0-17.93-12.54-17.93-28h0c9.9,0,17.93,12.55,17.93,28Z" id="el_C1InD88JzYr"/><path d="M1600.52,372h0c-9.9,0-17.93-12.54-17.93-28h0c9.91,0,17.93,12.54,17.93,28Z" id="el_p0nSGa3bivx"/><path d="M1597.53,242.77h0c9.9,0,17.93-12.54,17.93-28h0c-9.9,0-17.93,12.55-17.93,28Z" id="el_Yyo4uyhg0kq"/><path d="M1597.53,327.21h0c9.9,0,17.93-12.55,17.93-28h0c-9.9,0-17.93,12.54-17.93,28Z" id="el_p1nMWZBnz7f"/><path d="M1551.27,400.75h-3.65a67,67,0,0,1,3.69-23.44,67.54,67.54,0,0,0,0-41.83,76.33,76.33,0,0,1,0-46.89,67.54,67.54,0,0,0,0-41.83,67.1,67.1,0,0,1-3.69-23.45h3.65a59.46,59.46,0,0,0,3.31,20.92,67,67,0,0,1,3.7,23.44,67.06,67.06,0,0,1-3.7,23.45,67.73,67.73,0,0,0,0,41.83,76.1,76.1,0,0,1,0,46.88A59.46,59.46,0,0,0,1551.27,400.75Z" id="el_Q0gjEcMynG4"/><path d="M1549.45,303.08h0c-9.9,0-17.93-12.54-17.93-28h0c9.9,0,17.93,12.55,17.93,28Z" id="el_JYobMute_e0"/><path d="M1555.7,370.4h0c-9.9,0-17.93-12.55-17.93-28h0c9.9,0,17.93,12.54,17.93,28Z" id="el_ivOcVh5i_lD"/><path d="M1552.44,242.77h0c9.9,0,17.92-12.54,17.92-28h0c-9.9,0-17.92,12.55-17.92,28Z" id="el_AjFWnJSX76L"/><path d="M1552.44,327.21h0c9.9,0,17.92-12.55,17.92-28h0c-9.9,0-17.92,12.54-17.92,28Z" id="el_qn_LHJARV-s"/><path d="M1640.69,400.75H1637a67,67,0,0,1,3.69-23.44,67.73,67.73,0,0,0,0-41.83,76.33,76.33,0,0,1,0-46.89,59.46,59.46,0,0,0,3.31-20.92h3.66a67.06,67.06,0,0,1-3.7,23.45,67.73,67.73,0,0,0,0,41.83,76.1,76.1,0,0,1,0,46.88A59.46,59.46,0,0,0,1640.69,400.75Z" id="el_ybRoZ3Flkjo"/><path d="M1638.87,303.08h0c-9.9,0-17.93-12.54-17.93-28h0c9.9,0,17.93,12.55,17.93,28Z" id="el_bwXkz1lXD-0"/><path d="M1643.35,372.73h0c-9.9,0-17.93-12.54-17.93-28h0c9.9,0,17.93,12.54,17.93,28Z" id="el_w6pNgSuO9mO"/><path d="M1642.85,335.77h0c9.9,0,17.93-12.55,17.93-28h0c-9.9,0-17.93,12.54-17.93,28Z" id="el_-M7UiR1a8p2"/><path d="M1746.6,391a64.67,64.67,0,0,1,0-37.58,57.43,57.43,0,0,0,0-33.52,64.67,64.67,0,0,1,0-37.58,57.43,57.43,0,0,0,0-33.52,56.87,56.87,0,0,1-2.79-18.79h2.75a50.36,50.36,0,0,0,2.5,16.76,64.67,64.67,0,0,1,0,37.58,57.43,57.43,0,0,0,0,33.52,64.67,64.67,0,0,1,0,37.58,57.43,57.43,0,0,0,0,33.52,56.87,56.87,0,0,1,2.79,18.79h-2.75A50.31,50.31,0,0,0,1746.6,391Z" id="el_lQ94NuZ7LEQ"/><path d="M1750.47,261.81c0-12.4,6-22.45,13.52-22.45h0c0,12.4-6,22.45-13.52,22.45Z" id="el_DMsLS1ySiYj"/><path d="M1750.47,329.48c0-12.4,6-22.46,13.52-22.46h0c0,12.4-6,22.46-13.52,22.46Z" id="el_f9Qm06yM1Jv"/><path d="M1746,384.67c0-12.4,6.06-22.45,13.52-22.45h0c0,12.4-6,22.45-13.52,22.45Z" id="el_FZvUkFT1UEh"/><path d="M1748.22,281.14c0-12.4-6.06-22.45-13.52-22.45h0c0,12.4,6,22.45,13.52,22.45Z" id="el_NzIkUozA-Lf"/><path d="M1748.22,348.81c0-12.4-6.06-22.45-13.52-22.45h0c0,12.4,6,22.45,13.52,22.45Z" id="el_H7a9sqomF_D"/><path d="M1780.61,391a64.67,64.67,0,0,1,0-37.58,57.43,57.43,0,0,0,0-33.52,64.67,64.67,0,0,1,0-37.58,50.36,50.36,0,0,0,2.5-16.76h2.75a57.19,57.19,0,0,1-2.78,18.79,57.21,57.21,0,0,0,0,33.52,64.89,64.89,0,0,1,0,37.58,57.21,57.21,0,0,0,0,33.52,57.19,57.19,0,0,1,2.78,18.79h-2.75A50.31,50.31,0,0,0,1780.61,391Z" id="el_CadKaxazS-s"/><path d="M1784.48,329.48c0-12.4,6-22.46,13.52-22.46h0c0,12.4-6,22.46-13.52,22.46Z" id="el_Nv7z2ua1Ycb"/><path d="M1779.77,383.42c0-12.4,6-22.45,13.52-22.45h0c0,12.4-6.06,22.45-13.52,22.45Z" id="el_gkjnKDChV8C"/><path d="M1782.23,281.14c0-12.4-6.06-22.45-13.52-22.45h0c0,12.4,6,22.45,13.52,22.45Z" id="el_mWNKBwLDbqF"/><path d="M1782.23,348.81c0-12.4-6.06-22.45-13.52-22.45h0c0,12.4,6,22.45,13.52,22.45Z" id="el_iZ9Bee8UboQ"/><path d="M1713.17,391a64.89,64.89,0,0,1,0-37.58,57.43,57.43,0,0,0,0-33.52,56.92,56.92,0,0,1-2.78-18.79h2.75a50.05,50.05,0,0,0,2.5,16.76,64.67,64.67,0,0,1,0,37.58,57.43,57.43,0,0,0,0,33.52,56.87,56.87,0,0,1,2.79,18.79h-2.76A50.05,50.05,0,0,0,1713.17,391Z" id="el_rUnsm6xF48W"/><path d="M1717,329.48c0-12.4,6.06-22.46,13.52-22.46h0c0,12.4-6,22.46-13.52,22.46Z" id="el_1hhRiqVsWCy"/><path d="M1713.66,385.3c0-12.4,6.06-22.46,13.52-22.46h0c0,12.4-6,22.46-13.52,22.46Z" id="el_UgMJ1FlYZBA"/><path d="M1714,355.67c0-12.4-6-22.45-13.52-22.45h0c0,12.4,6,22.45,13.52,22.45Z" id="el_pakrqwnxhih"/><path d="M1866.83,396.83a109,109,0,0,0,0-46.88,96.66,96.66,0,0,1,0-41.83,95,95,0,0,0,2.55-23.45,95,95,0,0,0-2.55-23.44,83.57,83.57,0,0,1-2.29-20.92,83.48,83.48,0,0,1,2.29-20.91,95,95,0,0,0,2.55-23.45h-2.52a84.05,84.05,0,0,1-2.29,20.92,94.49,94.49,0,0,0-2.55,23.44,94.52,94.52,0,0,0,2.55,23.45,96.66,96.66,0,0,1,0,41.83,109,109,0,0,0,0,46.88,96.66,96.66,0,0,1,0,41.83,94.52,94.52,0,0,0-2.55,23.45h2.52A83.57,83.57,0,0,1,1866.83,396.83Z" id="el_3ns4leZj5ol"/><path d="M1863.28,235.64c0-15.47-5.54-28-12.37-28h0c0,15.47,5.54,28,12.37,28Z" id="el_FMw30rqMC7w"/><path d="M1863.28,320.08c0-15.47-5.54-28-12.37-28h0c0,15.48,5.54,28,12.37,28Z" id="el_BytZv3YJHNN"/><path d="M1867.41,389c0-15.47-5.54-28-12.38-28h0c0,15.47,5.54,28,12.38,28Z" id="el_K95Qtms_ZCR"/><path d="M1865.34,259.77c0-15.48,5.54-28,12.38-28h0c0,15.47-5.54,28-12.38,28Z" id="el_CQghfah0JRF"/><path d="M1865.34,344.21c0-15.48,5.54-28,12.38-28h0c0,15.47-5.54,28-12.38,28Z" id="el_UPyYqdMSuP7"/><path d="M1835.7,396.83a109,109,0,0,0,0-46.88,96.66,96.66,0,0,1,0-41.83,95,95,0,0,0,2.55-23.45,95,95,0,0,0-2.55-23.44,83.57,83.57,0,0,1-2.29-20.92h-2.52a94.52,94.52,0,0,0,2.55,23.45,96.66,96.66,0,0,1,0,41.83,109,109,0,0,0,0,46.88,96.66,96.66,0,0,1,0,41.83,94.52,94.52,0,0,0-2.55,23.45h2.52A83.57,83.57,0,0,1,1835.7,396.83Z" id="el_xxcoB0giICu"/><path d="M1832.15,320.08c0-15.47-5.54-28-12.37-28h0c0,15.48,5.54,28,12.37,28Z" id="el_ovQm78-z-nq"/><path d="M1836.47,387.4c0-15.48-5.54-28-12.38-28h0c0,15.47,5.54,28,12.38,28Z" id="el_lr9WcMiCYu6"/><path d="M1834.21,259.77c0-15.48,5.55-28,12.38-28h0c0,15.47-5.54,28-12.38,28Z" id="el_2wt-T_W8p1P"/><path d="M1834.21,344.21c0-15.48,5.55-28,12.38-28h0c0,15.47-5.54,28-12.38,28Z" id="el_rdNe5TrUDW-"/><path d="M1897.42,396.83a109,109,0,0,0,0-46.88,96.66,96.66,0,0,1,0-41.83,95,95,0,0,0,2.55-23.45h-2.52a83.57,83.57,0,0,1-2.29,20.92,109,109,0,0,0,0,46.88,96.66,96.66,0,0,1,0,41.83,95,95,0,0,0-2.55,23.45h2.52A83.57,83.57,0,0,1,1897.42,396.83Z" id="el_d7H2wnn13FO"/><path d="M1893.88,320.08c0-15.47-5.55-28-12.38-28h0c0,15.48,5.54,28,12.38,28Z" id="el_ahyyyeRaNIx"/><path d="M1897,389.73c0-15.47-5.54-28-12.38-28h0c0,15.47,5.54,28,12.38,28Z" id="el_6zZjTsS9_ec"/><path d="M1896.63,352.77c0-15.48,5.54-28,12.37-28h0c0,15.47-5.54,28-12.37,28Z" id="el_PB-TSLiZTvY"/></g><g id="el_SFzbgqovzhg" data-name="Layer 3"><path d="M119.23,291.84c-1.78-.93-3.86,0-4.63,2.2a22,22,0,0,1-7.93,9.9,60.51,60.51,0,0,0,3.93-8,62,62,0,0,0,4.62-22.47c0-2.35-1.67-4.21-3.62-4.13s-3.49,2-3.43,4.37a53.4,53.4,0,0,1-12.91,33.06c-5.21-7.49-4.57-17.88-4.56-18,.17-2.33-1.26-4.4-3.19-4.61s-3.66,1.51-3.84,3.85c0,.58-1,13.89,6.1,24.13a54,54,0,0,1-12.09,7.55A83.34,83.34,0,0,0,72,293.92q-2.16-5.44-4-10.55c12.67-6.76,18.22-18.46,20.65-27.44a.83.83,0,0,1,0-.15c11.79-.24,18.66-11.53,20.26-17.9.57-2.25-.48-4.63-2.34-5.32s-3.83.58-4.4,2.82c-.13.49-3,10.93-11.88,11.83a58.93,58.93,0,0,0,.38-11c-.21-2.33-1.93-4-3.87-3.78s-3.34,2.32-3.15,4.65a53.6,53.6,0,0,1-1.83,16.51,43.24,43.24,0,0,1-2.69,7.21c-4.19-3.73-6.39-13.68-6.87-17.41-.3-2.32-2.09-3.91-4-3.55s-3.25,2.52-3,4.85c.24,1.91,2.3,16.37,9.56,22.9a31.45,31.45,0,0,1-9.61,7.93C55.89,247.31,54,229,53.92,228.74c-.23-2.33-2-4-3.92-3.71s-3.31,2.4-3.08,4.73c.11,1.13,2.93,28.08,18.7,67.83A74.92,74.92,0,0,1,70,335.93c0,.25-.07.49-.1.73-.09-.34-.18-.67-.28-1a71.55,71.55,0,0,0-23.33-36c-1.11-.91-2.17-1.87-3.2-2.88,4.12-4.39,6.28-10.84,6.28-18.91a51.33,51.33,0,0,0-1.73-13c-.64-2.22-2.65-3.39-4.49-2.62A4.53,4.53,0,0,0,41,267.6c0,.17,4.52,16-3.11,23.3-5.45-7.1-9.46-15.84-12-26.13a86.73,86.73,0,0,1-2.58-20.59c.06-2.35-1.46-4.32-3.41-4.4s-3.58,1.76-3.65,4.11a96.26,96.26,0,0,0,2.8,23c4.06,16.85,12.1,30.61,23.25,39.79l.17.14a38.42,38.42,0,0,1-9.52-1.46C21.43,302,14,293.41,10.93,279.85c-.52-2.27-2.46-3.6-4.34-3s-3,3-2.46,5.23c3.78,16.53,13.16,27.43,27.15,31.5a45.22,45.22,0,0,0,12.47,1.72,41.39,41.39,0,0,0,6.8-.52,61.19,61.19,0,0,1,9.09,14.51c-5.14,1.51-19.82,4.4-31.47-7.28a3.13,3.13,0,0,0-5,.56,4.87,4.87,0,0,0,.46,6,35.47,35.47,0,0,0,25.76,10.76,41.57,41.57,0,0,0,13.14-2.15c.09.27.18.54.25.81a58.46,58.46,0,0,1,2.46,16.62A4.26,4.26,0,0,0,67.84,359a3.21,3.21,0,0,0,1,.16,3.52,3.52,0,0,0,3.12-2.27c.12-.28.89-2.07,1.84-5.06,20.41-.87,33.62-15.31,34.21-16a4.88,4.88,0,0,0,.2-6,3.12,3.12,0,0,0-5-.26c-.12.13-10.82,11.72-27.19,13.52a90.5,90.5,0,0,0,1.76-14.42,60.34,60.34,0,0,0,20.7-13.88h.09c16.08,0,22.26-16.62,22.52-17.34A4.64,4.64,0,0,0,119.23,291.84Z" id="el_LvKbsmhAgjx"/><path d="M167.88,321.7a2.52,2.52,0,0,0-3.39,1.42,14.43,14.43,0,0,1-5.8,6.38,37.39,37.39,0,0,0,2.87-5.16,35.7,35.7,0,0,0,3.38-14.49,2.58,2.58,0,1,0-5.15.15,32,32,0,0,1-9.44,21.33C146.54,326.5,147,319.8,147,319.7a2.7,2.7,0,0,0-2.33-3,2.63,2.63,0,0,0-2.8,2.49c0,.37-.7,9,4.45,15.57a40,40,0,0,1-8.84,4.86,48.18,48.18,0,0,0-4.16-16.6q-1.58-3.51-2.92-6.81a28.11,28.11,0,0,0,15.1-17.7l0-.1c8.62-.15,13.64-7.44,14.81-11.55a2.78,2.78,0,0,0-1.71-3.43,2.55,2.55,0,0,0-3.22,1.82c-.09.32-2.18,7.06-8.68,7.63a33.23,33.23,0,0,0,.27-7.1,2.62,2.62,0,0,0-2.82-2.44,2.71,2.71,0,0,0-2.31,3A30.67,30.67,0,0,1,140.54,297a25.28,25.28,0,0,1-2,4.66c-3.06-2.41-4.66-8.83-5-11.24a2.6,2.6,0,0,0-2.93-2.29,2.72,2.72,0,0,0-2.16,3.13c.17,1.23,1.68,10.56,7,14.78a22.66,22.66,0,0,1-7,5.11c-6.85-18.19-8.28-30-8.29-30.17a2.62,2.62,0,0,0-2.87-2.4,2.71,2.71,0,0,0-2.25,3.06c.08.72,2.14,18.11,13.67,43.76a43.21,43.21,0,0,1,3.19,24.74c0,.15-.05.31-.08.46-.06-.21-.13-.43-.2-.65a45.81,45.81,0,0,0-17.06-23.23q-1.22-.89-2.34-1.86c3-2.84,4.6-7,4.6-12.2a29.84,29.84,0,0,0-1.27-8.42,2.55,2.55,0,0,0-3.28-1.69,2.79,2.79,0,0,0-1.59,3.5c0,.11,3.31,10.36-2.27,15a42.6,42.6,0,0,1-8.76-16.86A50.6,50.6,0,0,1,97.73,291a2.67,2.67,0,0,0-2.48-2.84,2.64,2.64,0,0,0-2.67,2.65,54.79,54.79,0,0,0,2,14.83c3,10.87,8.85,19.75,17,25.67l.12.09a31.81,31.81,0,0,1-7-.94C96.37,328.25,91,322.71,88.69,314A2.56,2.56,0,0,0,85.52,312a2.78,2.78,0,0,0-1.8,3.38c2.76,10.67,9.63,17.7,19.85,20.32a37,37,0,0,0,9.12,1.11,34.31,34.31,0,0,0,5-.33,39.21,39.21,0,0,1,6.65,9.36c-3.76,1-14.49,2.84-23-4.7a2.47,2.47,0,0,0-3.63.36,2.87,2.87,0,0,0,.34,3.87,27.87,27.87,0,0,0,18.84,6.94,34,34,0,0,0,9.6-1.39c.06.18.13.35.19.53a33.66,33.66,0,0,1,1.79,10.72,2.74,2.74,0,0,0,1.88,2.8,2.42,2.42,0,0,0,.7.1,2.56,2.56,0,0,0,2.27-1.46,28.9,28.9,0,0,0,1.35-3.27,40.19,40.19,0,0,0,25-10.3,2.86,2.86,0,0,0,.15-3.87,2.47,2.47,0,0,0-3.64-.17,36.11,36.11,0,0,1-19.88,8.73,53.33,53.33,0,0,0,1.29-9.31,44.87,44.87,0,0,0,15.13-8.95h.07c11.75,0,16.27-10.73,16.46-11.19A2.83,2.83,0,0,0,167.88,321.7Z" id="el_62MV7HKVjYX"/><path d="M140.4,325.4c.19.56,4.71,13.66,16.46,13.66h.07A44,44,0,0,0,172.06,350a77,77,0,0,0,1.29,11.36c-12-1.42-19.79-10.54-19.88-10.65a2.19,2.19,0,0,0-3.64.2,4.09,4.09,0,0,0,.14,4.73c.44.52,10.09,11.89,25,12.58.69,2.35,1.25,3.76,1.34,4a2.59,2.59,0,0,0,2.28,1.78,2.15,2.15,0,0,0,.7-.12,3.41,3.41,0,0,0,1.88-3.42A49.59,49.59,0,0,1,183,357.35l.18-.64a28.54,28.54,0,0,0,9.61,1.69,25,25,0,0,0,18.84-8.47,4.07,4.07,0,0,0,.34-4.72,2.2,2.2,0,0,0-3.64-.44c-8.52,9.2-19.25,6.92-23,5.73A48.91,48.91,0,0,1,192,339.08a28.42,28.42,0,0,0,5,.41,30.77,30.77,0,0,0,9.12-1.36c10.22-3.21,17.09-11.79,19.85-24.81.38-1.79-.43-3.63-1.8-4.12s-2.8.55-3.18,2.34c-2.26,10.68-7.67,17.44-16.08,20.07a26.57,26.57,0,0,1-7,1.16,1.27,1.27,0,0,1,.13-.11c8.15-7.24,14-18.07,17-31.34a81,81,0,0,0,2-18.11c-.05-1.85-1.24-3.3-2.67-3.23s-2.54,1.61-2.49,3.46A73.62,73.62,0,0,1,210,299.66a56.91,56.91,0,0,1-8.76,20.58c-5.58-5.71-2.31-18.22-2.27-18.35a3.67,3.67,0,0,0-1.59-4.27c-1.34-.61-2.81.32-3.28,2.06A43.3,43.3,0,0,0,192.82,310c0,6.35,1.58,11.43,4.6,14.89-.75.79-1.53,1.55-2.34,2.27A57.08,57.08,0,0,0,178,355.49c-.07.26-.14.53-.2.79,0-.18,0-.37-.08-.57a63.3,63.3,0,0,1,3.19-30.2c11.53-31.31,13.59-52.54,13.67-53.43.17-1.83-.84-3.5-2.25-3.72s-2.7,1.09-2.87,2.92c0,.18-1.44,14.63-8.3,36.84a23.65,23.65,0,0,1-7-6.24c5.31-5.15,6.81-16.54,7-18.05.22-1.83-.75-3.54-2.16-3.82s-2.72,1-2.94,2.8c-.35,2.94-2,10.78-5,13.72a36.41,36.41,0,0,1-2-5.68,44.79,44.79,0,0,1-1.33-13c.14-1.84-.89-3.48-2.31-3.66s-2.68,1.14-2.82,3a49.49,49.49,0,0,0,.27,8.67c-6.51-.71-8.59-8.93-8.68-9.32-.42-1.77-1.86-2.76-3.22-2.22s-2.13,2.42-1.71,4.19c1.17,5,6.19,13.91,14.81,14.1l0,.12c1.77,7.07,5.83,16.28,15.09,21.61q-1.33,4-2.91,8.31a69.63,69.63,0,0,0-4.16,20.27,39.29,39.29,0,0,1-8.85-5.94c5.16-8.07,4.49-18.55,4.46-19-.13-1.84-1.38-3.2-2.8-3s-2.46,1.79-2.34,3.63c0,.12.48,8.3-3.33,14.2-9.59-11.72-9.44-25.85-9.44-26,0-1.85-1.08-3.39-2.5-3.44s-2.61,1.4-2.65,3.25a52,52,0,0,0,3.38,17.7,49.52,49.52,0,0,0,2.87,6.3,17.1,17.1,0,0,1-5.8-7.8c-.57-1.69-2.08-2.46-3.39-1.72A3.8,3.8,0,0,0,140.4,325.4Z" id="el_WDbhaqMpqRA"/><path d="M153.62,332.72c-1.79-.94-3.86,0-4.64,2.19a21.82,21.82,0,0,1-7.93,9.9,60.51,60.51,0,0,0,3.93-8,62.06,62.06,0,0,0,4.63-22.47c-.06-2.34-1.68-4.21-3.63-4.13s-3.48,2-3.43,4.37a53.37,53.37,0,0,1-12.9,33.07c-5.22-7.49-4.58-17.88-4.57-18,.17-2.33-1.25-4.39-3.19-4.61s-3.66,1.51-3.83,3.85c0,.59-1,13.89,6.09,24.14a54.32,54.32,0,0,1-12.09,7.54,83.06,83.06,0,0,0-5.69-25.74c-1.44-3.62-2.77-7.15-4-10.55C115,317.48,120.6,305.78,123,296.8c0-.05,0-.1,0-.15,11.79-.23,18.66-11.53,20.27-17.89.56-2.25-.48-4.64-2.35-5.32s-3.83.57-4.4,2.82c-.13.48-3,10.93-11.88,11.83a58.92,58.92,0,0,0,.38-11c-.2-2.33-1.93-4-3.86-3.79s-3.35,2.32-3.16,4.65a53.29,53.29,0,0,1-1.83,16.52,42.69,42.69,0,0,1-2.69,7.21c-4.19-3.73-6.38-13.69-6.87-17.41-.29-2.32-2.09-3.92-4-3.56s-3.25,2.53-3,4.85c.24,1.92,2.3,16.37,9.56,22.91a31.5,31.5,0,0,1-9.6,7.92c-9.38-28.19-11.33-46.54-11.35-46.76-.24-2.33-2-4-3.93-3.72s-3.31,2.4-3.08,4.74c.11,1.12,2.93,28.07,18.7,67.83a74.92,74.92,0,0,1,4.36,38.34c0,.24-.06.48-.1.72-.09-.33-.18-.67-.28-1a71.46,71.46,0,0,0-23.33-36c-1.11-.91-2.17-1.88-3.2-2.88,4.13-4.4,6.29-10.85,6.29-18.91A52,52,0,0,0,82,305.67c-.64-2.21-2.66-3.38-4.49-2.61a4.51,4.51,0,0,0-2.17,5.42c0,.16,4.51,16-3.11,23.3-5.45-7.1-9.47-15.85-12-26.13a87.36,87.36,0,0,1-2.58-20.59c.07-2.35-1.46-4.32-3.4-4.4s-3.59,1.75-3.65,4.1a95.93,95.93,0,0,0,2.79,23c4.06,16.85,12.1,30.6,23.25,39.79l.17.14a38.47,38.47,0,0,1-9.52-1.47c-11.5-3.35-18.91-11.92-22-25.49-.51-2.26-2.46-3.59-4.34-3s-3,3-2.46,5.23c3.78,16.54,13.17,27.43,27.15,31.5a44.91,44.91,0,0,0,12.48,1.73,42.55,42.55,0,0,0,6.79-.52A60.81,60.81,0,0,1,94,370.19c-5.13,1.51-19.81,4.41-31.47-7.27a3.13,3.13,0,0,0-5,.55,4.88,4.88,0,0,0,.46,6A35.45,35.45,0,0,0,83.8,380.22,41.36,41.36,0,0,0,97,378.07c.08.27.17.54.25.82a58.63,58.63,0,0,1,2.45,16.61,4.26,4.26,0,0,0,2.58,4.34,2.81,2.81,0,0,0,.94.16,3.5,3.5,0,0,0,3.12-2.26c.12-.29.89-2.08,1.84-5.06,20.42-.88,33.62-15.31,34.22-16a4.89,4.89,0,0,0,.19-6,3.12,3.12,0,0,0-5-.25c-.12.13-10.82,11.72-27.19,13.52a91.89,91.89,0,0,0,1.77-14.42,60.29,60.29,0,0,0,20.69-13.88h.1c16.07,0,22.25-16.63,22.51-17.34A4.64,4.64,0,0,0,153.62,332.72Z" id="el_lx3hZs4NA71"/><path d="M243.34,341a16.19,16.19,0,0,0,14.56,9.09H258a40.26,40.26,0,0,0,13.37,7.27,39.7,39.7,0,0,0,1.14,7.56,33.08,33.08,0,0,1-17.57-7.08,2.32,2.32,0,0,0-3.22.13,2.19,2.19,0,0,0,.13,3.15,37.1,37.1,0,0,0,22.11,8.37,23.28,23.28,0,0,0,1.19,2.65,2.28,2.28,0,0,0,2,1.19,2.62,2.62,0,0,0,.61-.08A2.24,2.24,0,0,0,279.4,371a25.17,25.17,0,0,1,1.59-8.71c.05-.14.11-.28.16-.43a32.51,32.51,0,0,0,8.49,1.13,26,26,0,0,0,16.66-5.64,2.2,2.2,0,0,0,.29-3.14,2.31,2.31,0,0,0-3.21-.29c-7.53,6.12-17,4.6-20.34,3.81a32.2,32.2,0,0,1,5.87-7.6,33,33,0,0,0,4.4.27,35.77,35.77,0,0,0,8.06-.9c9-2.14,15.11-7.85,17.55-16.52a2.23,2.23,0,0,0-1.6-2.74,2.28,2.28,0,0,0-2.8,1.56c-2,7.11-6.79,11.6-14.22,13.36a30.43,30.43,0,0,1-6.16.77l.11-.08a37.37,37.37,0,0,0,15-20.86,41.67,41.67,0,0,0,1.81-12.05,2.28,2.28,0,0,0-4.56.16,37.72,37.72,0,0,1-1.67,10.79,33.72,33.72,0,0,1-7.74,13.7c-4.93-3.8-2-12.13-2-12.21a2.22,2.22,0,0,0-1.4-2.85,2.31,2.31,0,0,0-2.91,1.38,22.7,22.7,0,0,0-1.11,6.84c0,4.22,1.39,7.61,4.06,9.91-.67.53-1.35,1-2.07,1.51A37.46,37.46,0,0,0,276.6,361l-.18.53-.06-.38a32.47,32.47,0,0,1,2.81-20.1c10.2-20.84,12-35,12.09-35.56a2.23,2.23,0,0,0-2-2.48,2.27,2.27,0,0,0-2.54,1.94c0,.12-1.27,9.74-7.33,24.52a20.11,20.11,0,0,1-6.21-4.15c4.69-3.43,6-11,6.18-12a2.24,2.24,0,0,0-1.91-2.55,2.29,2.29,0,0,0-2.6,1.87c-.31,1.95-1.73,7.17-4.43,9.13a20.39,20.39,0,0,1-1.75-3.78,23.1,23.1,0,0,1-1.18-8.66,2.24,2.24,0,0,0-2-2.44,2.26,2.26,0,0,0-2.49,2,24.58,24.58,0,0,0,.24,5.78c-5.75-.47-7.59-5.95-7.68-6.21a2.27,2.27,0,0,0-2.84-1.47,2.22,2.22,0,0,0-1.52,2.78,14.36,14.36,0,0,0,13.1,9.39l0,.08a23.36,23.36,0,0,0,13.34,14.38q-1.18,2.68-2.58,5.53a36.78,36.78,0,0,0-3.68,13.5,37.19,37.19,0,0,1-7.81-4c4.55-5.37,4-12.34,3.94-12.65a2.27,2.27,0,0,0-2.48-2,2.25,2.25,0,0,0-2.07,2.42c0,.08.42,5.53-2.94,9.45a24.87,24.87,0,0,1-8.35-17.33,2.28,2.28,0,0,0-4.55-.13,27.14,27.14,0,0,0,3,11.78,29.86,29.86,0,0,0,2.55,4.2,12.05,12.05,0,0,1-5.13-5.19,2.29,2.29,0,0,0-3-1.15A2.22,2.22,0,0,0,243.34,341Z" id="el_4Tsa3d1YD3s"/><path d="M212.22,355.6a11.83,11.83,0,0,0,10.64,5.86h0a30.78,30.78,0,0,0,9.77,4.7,22.57,22.57,0,0,0,.84,4.87,25.68,25.68,0,0,1-12.85-4.57,1.85,1.85,0,0,0-2.35.09,1.3,1.3,0,0,0,.09,2,29,29,0,0,0,16.17,5.4,15,15,0,0,0,.87,1.71,1.72,1.72,0,0,0,1.47.77,2.3,2.3,0,0,0,.45,0,1.5,1.5,0,0,0,1.22-1.47,14.25,14.25,0,0,1,1.15-5.62l.12-.28a26.6,26.6,0,0,0,6.21.73,20.69,20.69,0,0,0,12.18-3.64,1.31,1.31,0,0,0,.21-2,1.86,1.86,0,0,0-2.34-.19c-5.51,4-12.45,3-14.88,2.46a21.22,21.22,0,0,1,4.3-4.9,27,27,0,0,0,3.21.17,28.82,28.82,0,0,0,5.89-.58c6.61-1.38,11.05-5.06,12.84-10.65a1.43,1.43,0,0,0-1.17-1.77,1.72,1.72,0,0,0-2.05,1c-1.46,4.59-5,7.49-10.4,8.62a25,25,0,0,1-4.5.5l.08-.05a24.54,24.54,0,0,0,11-13.46,23.56,23.56,0,0,0,1.32-7.77,1.58,1.58,0,0,0-1.72-1.39,1.55,1.55,0,0,0-1.61,1.49,21.86,21.86,0,0,1-1.22,7,21.38,21.38,0,0,1-5.66,8.84c-3.61-2.45-1.49-7.82-1.47-7.88a1.4,1.4,0,0,0-1-1.83,1.73,1.73,0,0,0-2.12.88,13,13,0,0,0-.82,4.41,7.67,7.67,0,0,0,3,6.4c-.49.34-1,.67-1.52,1-6.71,4-9.7,8.81-11,12.19,0,.11-.09.23-.13.34a1.84,1.84,0,0,1,0-.25,18.73,18.73,0,0,1,2.06-13c7.45-13.44,8.78-22.56,8.84-22.94a1.5,1.5,0,0,0-1.46-1.6,1.62,1.62,0,0,0-1.85,1.25c0,.08-.94,6.29-5.37,15.82a14.9,14.9,0,0,1-4.54-2.68c3.43-2.21,4.41-7.1,4.52-7.75a1.48,1.48,0,0,0-1.39-1.64,1.65,1.65,0,0,0-1.9,1.21c-.23,1.26-1.27,4.62-3.25,5.89a12.92,12.92,0,0,1-2.13-8,1.51,1.51,0,0,0-1.5-1.57,1.61,1.61,0,0,0-1.82,1.28,14.22,14.22,0,0,0,.18,3.72,6.5,6.5,0,0,1-5.62-4,1.7,1.7,0,0,0-2.08-1,1.41,1.41,0,0,0-1.1,1.8,10.38,10.38,0,0,0,9.57,6.05l0,.05c1.15,3,3.77,7,9.76,9.28q-.87,1.73-1.89,3.57a21.6,21.6,0,0,0-2.69,8.71,29.36,29.36,0,0,1-5.71-2.55,11,11,0,0,0,2.88-8.17,1.62,1.62,0,0,0-1.81-1.3,1.51,1.51,0,0,0-1.51,1.56,8.47,8.47,0,0,1-2.16,6.1c-6.19-5-6.1-11.1-6.1-11.19a1.54,1.54,0,0,0-1.62-1.47,1.57,1.57,0,0,0-1.71,1.39,15.85,15.85,0,0,0,2.18,7.6,19.12,19.12,0,0,0,1.86,2.71,8.19,8.19,0,0,1-3.74-3.35,1.78,1.78,0,0,0-2.2-.74A1.38,1.38,0,0,0,212.22,355.6Z" id="el_BrQOEsseb2o"/><path d="M230,353.32a1.64,1.64,0,0,0-2.19.91,9.19,9.19,0,0,1-3.75,4.09A24.14,24.14,0,0,0,225.9,355a23,23,0,0,0,2.19-9.27,1.67,1.67,0,1,0-3.34.09,20.3,20.3,0,0,1-6.1,13.66A11.84,11.84,0,0,1,216.5,352a1.74,1.74,0,0,0-1.51-1.9,1.69,1.69,0,0,0-1.81,1.59,15.47,15.47,0,0,0,2.88,10,26.5,26.5,0,0,1-5.72,3.12,30.56,30.56,0,0,0-2.68-10.63q-1-2.25-1.89-4.36a18,18,0,0,0,9.75-11.33l0-.06c5.57-.1,8.82-4.76,9.58-7.39a1.79,1.79,0,0,0-1.11-2.2,1.66,1.66,0,0,0-2.08,1.17c-.06.2-1.41,4.51-5.61,4.88a21.13,21.13,0,0,0,.18-4.54,1.7,1.7,0,0,0-1.83-1.57,1.74,1.74,0,0,0-1.49,1.92,19.47,19.47,0,0,1-.86,6.82,16.31,16.31,0,0,1-1.28,3c-2-1.54-3-5.65-3.24-7.19a1.69,1.69,0,0,0-1.9-1.47,1.76,1.76,0,0,0-1.4,2c.12.79,1.09,6.76,4.52,9.46a14.71,14.71,0,0,1-4.54,3.27c-4.43-11.65-5.35-19.22-5.36-19.31a1.69,1.69,0,0,0-1.85-1.54,1.74,1.74,0,0,0-1.46,2c.05.46,1.39,11.59,8.84,28a27.44,27.44,0,0,1,2.06,15.83c0,.1,0,.2-.05.3,0-.14-.09-.28-.13-.42a29.39,29.39,0,0,0-11-14.87c-.52-.38-1-.77-1.51-1.19a10.25,10.25,0,0,0,3-7.81,18.57,18.57,0,0,0-.82-5.38,1.64,1.64,0,0,0-2.12-1.08,1.76,1.76,0,0,0-1,2.23c0,.07,2.13,6.63-1.47,9.62a27.15,27.15,0,0,1-5.66-10.79,31.6,31.6,0,0,1-1.22-8.5,1.73,1.73,0,0,0-1.61-1.82,1.71,1.71,0,0,0-1.72,1.7,34.41,34.41,0,0,0,1.31,9.49,29.47,29.47,0,0,0,11,16.43l.08.06a20.61,20.61,0,0,1-4.5-.6c-5.43-1.39-8.93-4.93-10.4-10.53a1.67,1.67,0,0,0-2.05-1.23,1.78,1.78,0,0,0-1.16,2.16c1.79,6.83,6.22,11.33,12.83,13a24,24,0,0,0,5.9.71,22.67,22.67,0,0,0,3.21-.21,25,25,0,0,1,4.29,6c-2.43.62-9.36,1.82-14.87-3a1.62,1.62,0,0,0-2.35.23,1.83,1.83,0,0,0,.22,2.48A18.12,18.12,0,0,0,197,372.94a22,22,0,0,0,6.21-.89l.12.34a21.42,21.42,0,0,1,1.16,6.86A1.74,1.74,0,0,0,205.7,381a1.41,1.41,0,0,0,.45.07,1.67,1.67,0,0,0,1.47-.93,21.37,21.37,0,0,0,.87-2.1,26.24,26.24,0,0,0,16.17-6.59,1.83,1.83,0,0,0,.09-2.48,1.61,1.61,0,0,0-2.35-.11,23.38,23.38,0,0,1-12.85,5.59,34.24,34.24,0,0,0,.83-6,28.91,28.91,0,0,0,9.78-5.73h0c7.6,0,10.52-6.86,10.64-7.16A1.8,1.8,0,0,0,230,353.32Z" id="el_V6gm726i7p9"/><path d="M221.12,362.42a16.17,16.17,0,0,0,14.55,9.09h.06a40.42,40.42,0,0,0,13.38,7.27,39.94,39.94,0,0,0,1.14,7.57,33.08,33.08,0,0,1-17.57-7.09,2.32,2.32,0,0,0-3.22.13,2.19,2.19,0,0,0,.13,3.15,37.06,37.06,0,0,0,22.11,8.37,23.28,23.28,0,0,0,1.19,2.65,2.28,2.28,0,0,0,2,1.19,2.64,2.64,0,0,0,.62-.08,2.24,2.24,0,0,0,1.66-2.28,25.29,25.29,0,0,1,1.58-8.71c.06-.14.11-.28.17-.43a32,32,0,0,0,8.49,1.13,25.91,25.91,0,0,0,16.65-5.64,2.2,2.2,0,0,0,.3-3.14,2.31,2.31,0,0,0-3.21-.29c-7.54,6.12-17,4.61-20.34,3.81a31.88,31.88,0,0,1,5.87-7.6,32.77,32.77,0,0,0,4.39.27,35.85,35.85,0,0,0,8.07-.9c9-2.14,15.1-7.85,17.55-16.52a2.23,2.23,0,0,0-1.6-2.74,2.28,2.28,0,0,0-2.8,1.56c-2,7.11-6.79,11.6-14.22,13.36a30.43,30.43,0,0,1-6.16.77l.11-.08a37.37,37.37,0,0,0,15-20.86,41,41,0,0,0,1.8-12.05,2.28,2.28,0,0,0-4.55.16,37.72,37.72,0,0,1-1.67,10.79A33.83,33.83,0,0,1,274.9,359c-4.93-3.8-2-12.13-2-12.21a2.22,2.22,0,0,0-1.4-2.84,2.29,2.29,0,0,0-2.91,1.37,22.78,22.78,0,0,0-1.11,6.84c0,4.23,1.39,7.61,4.06,9.91-.67.53-1.36,1-2.07,1.51a37.46,37.46,0,0,0-15.08,18.88l-.18.53c0-.12,0-.25-.07-.38a32.47,32.47,0,0,1,2.82-20.1c10.19-20.84,12-35,12.09-35.56a2.23,2.23,0,0,0-2-2.48,2.27,2.27,0,0,0-2.54,1.94c0,.12-1.27,9.74-7.33,24.52a20,20,0,0,1-6.21-4.15c4.69-3.43,6-11,6.18-12a2.25,2.25,0,0,0-1.91-2.55,2.28,2.28,0,0,0-2.6,1.87c-.31,1.95-1.73,7.17-4.44,9.13a21,21,0,0,1-1.74-3.78,23.1,23.1,0,0,1-1.18-8.66,2.28,2.28,0,0,0-4.53-.46,24.58,24.58,0,0,0,.24,5.78c-5.75-.47-7.6-5.95-7.68-6.21a2.28,2.28,0,0,0-2.84-1.47,2.21,2.21,0,0,0-1.52,2.78,14.36,14.36,0,0,0,13.1,9.39.19.19,0,0,1,0,.08A23.41,23.41,0,0,0,255.42,355q-1.18,2.69-2.58,5.53a36.59,36.59,0,0,0-3.68,13.5,37.28,37.28,0,0,1-7.82-4c4.56-5.37,4-12.34,3.94-12.65a2.28,2.28,0,0,0-4.54.4c0,.08.42,5.53-3,9.45A24.88,24.88,0,0,1,229.45,350a2.28,2.28,0,0,0-4.56-.13,27.24,27.24,0,0,0,3,11.78,29.74,29.74,0,0,0,2.54,4.2,12,12,0,0,1-5.12-5.19,2.29,2.29,0,0,0-3-1.15A2.21,2.21,0,0,0,221.12,362.42Z" id="el_HtA_o0UhUUt"/><path d="M76.69,359.26a2.11,2.11,0,0,0-2.86,1.22,12.32,12.32,0,0,1-4.89,5.5,32.73,32.73,0,0,0,2.43-4.45,31.57,31.57,0,0,0,2.85-12.46,2.26,2.26,0,0,0-2.24-2.3,2.28,2.28,0,0,0-2.11,2.43,27.87,27.87,0,0,1-8,18.35c-3.22-4.16-2.82-9.92-2.82-10a2.31,2.31,0,0,0-2-2.56,2.23,2.23,0,0,0-2.36,2.14c0,.32-.59,7.71,3.76,13.39a33.93,33.93,0,0,1-7.46,4.19,42.21,42.21,0,0,0-3.51-14.28q-1.34-3-2.46-5.86a24,24,0,0,0,12.73-15.23l0-.08c7.27-.13,11.5-6.4,12.5-9.94a2.41,2.41,0,0,0-1.45-2.95,2.14,2.14,0,0,0-2.71,1.57c-.08.27-1.84,6.06-7.33,6.56a29.34,29.34,0,0,0,.23-6.11,2.23,2.23,0,0,0-2.38-2.1,2.32,2.32,0,0,0-2,2.58A26.72,26.72,0,0,1,53.63,338,22.08,22.08,0,0,1,52,342c-2.58-2.07-3.93-7.59-4.23-9.66a2.22,2.22,0,0,0-2.48-2,2.34,2.34,0,0,0-1.82,2.7c.15,1.06,1.42,9.08,5.9,12.71a19.16,19.16,0,0,1-5.93,4.4c-5.79-15.65-7-25.84-7-26A2.23,2.23,0,0,0,34,322.18a2.34,2.34,0,0,0-1.9,2.63c.07.62,1.81,15.58,11.53,37.64a37.72,37.72,0,0,1,2.69,21.28l-.06.41c-.06-.19-.11-.38-.17-.56a39.37,39.37,0,0,0-14.39-20c-.68-.51-1.34-1-2-1.6,2.55-2.44,3.88-6,3.88-10.5a25.89,25.89,0,0,0-1.07-7.24,2.13,2.13,0,0,0-2.77-1.45,2.42,2.42,0,0,0-1.33,3c0,.09,2.78,8.91-1.92,12.93a37,37,0,0,1-7.39-14.5,43.85,43.85,0,0,1-1.59-11.43,2.29,2.29,0,0,0-2.1-2.44,2.25,2.25,0,0,0-2.25,2.28,48,48,0,0,0,1.72,12.76c2.51,9.35,7.47,17,14.34,22.08l.11.08a26.11,26.11,0,0,1-5.87-.82c-7.1-1.86-11.67-6.62-13.58-14.14A2.16,2.16,0,0,0,7.22,351a2.38,2.38,0,0,0-1.52,2.9C8,363,13.82,369.08,22.44,371.34a30.57,30.57,0,0,0,7.7,1,28.82,28.82,0,0,0,4.19-.29,33.66,33.66,0,0,1,5.61,8.05c-3.17.84-12.23,2.45-19.42-4a2.06,2.06,0,0,0-3.06.31,2.51,2.51,0,0,0,.28,3.33,23.25,23.25,0,0,0,15.89,6,28.35,28.35,0,0,0,8.11-1.19c0,.15.11.3.15.45a29.37,29.37,0,0,1,1.52,9.22A2.35,2.35,0,0,0,45,396.52a2.06,2.06,0,0,0,.59.09,2.15,2.15,0,0,0,1.92-1.26,28.45,28.45,0,0,0,1.14-2.81,33.72,33.72,0,0,0,21.1-8.86,2.49,2.49,0,0,0,.12-3.33,2.06,2.06,0,0,0-3.07-.15A30.13,30.13,0,0,1,50,387.71a45.77,45.77,0,0,0,1.09-8A37.49,37.49,0,0,0,63.87,372h.06c9.92,0,13.73-9.23,13.89-9.62A2.45,2.45,0,0,0,76.69,359.26Z" id="el_fbH-shv37Uw"/><path d="M143.28,369.66a13.4,13.4,0,0,0,12.06,7.57h0a33.34,33.34,0,0,0,11.09,6.07,32.85,32.85,0,0,0,1,6.3,27.36,27.36,0,0,1-14.57-5.91,1.92,1.92,0,0,0-2.67.11,1.84,1.84,0,0,0,.11,2.63,30.63,30.63,0,0,0,18.33,7c.51,1.3.92,2.08,1,2.21a1.91,1.91,0,0,0,1.67,1,2.24,2.24,0,0,0,.51-.07,1.87,1.87,0,0,0,1.38-1.9,21.09,21.09,0,0,1,1.32-7.26l.13-.36a26.55,26.55,0,0,0,7,.94,21.46,21.46,0,0,0,13.81-4.7,1.84,1.84,0,0,0,.24-2.62,1.91,1.91,0,0,0-2.66-.24c-6.25,5.11-14.11,3.84-16.86,3.18a26.5,26.5,0,0,1,4.87-6.34,25.89,25.89,0,0,0,3.64.23,29.11,29.11,0,0,0,6.68-.75c7.5-1.78,12.53-6.54,14.55-13.77a1.84,1.84,0,0,0-1.32-2.28,1.89,1.89,0,0,0-2.32,1.3c-1.66,5.92-5.63,9.67-11.79,11.13a24.48,24.48,0,0,1-5.11.64l.09-.06a31.13,31.13,0,0,0,12.46-17.38,34.27,34.27,0,0,0,1.5-10.05,1.89,1.89,0,0,0-3.78.13,31.6,31.6,0,0,1-1.38,9,28.35,28.35,0,0,1-6.42,11.42c-4.09-3.17-1.69-10.11-1.66-10.19a1.85,1.85,0,0,0-1.17-2.36,1.89,1.89,0,0,0-2.4,1.14,18.74,18.74,0,0,0-.93,5.7,10.48,10.48,0,0,0,3.37,8.26c-.55.44-1.12.86-1.72,1.26a31.2,31.2,0,0,0-12.5,15.74l-.15.44c0-.11,0-.21,0-.32A27.18,27.18,0,0,1,173,369.72c8.45-17.37,10-29.15,10-29.64a1.86,1.86,0,0,0-1.65-2.07,1.89,1.89,0,0,0-2.1,1.63c0,.09-1.05,8.11-6.08,20.43a16.53,16.53,0,0,1-5.15-3.46c3.89-2.86,5-9.18,5.13-10a1.89,1.89,0,0,0-3.74-.57c-.26,1.63-1.43,6-3.68,7.61a16.75,16.75,0,0,1-1.44-3.15,19.2,19.2,0,0,1-1-7.22,1.89,1.89,0,0,0-3.76-.37,20.75,20.75,0,0,0,.2,4.81c-4.77-.4-6.3-5-6.37-5.17a1.89,1.89,0,0,0-3.61,1.09,11.91,11.91,0,0,0,10.86,7.82l0,.06a19.43,19.43,0,0,0,11.06,12q-1,2.24-2.14,4.61a30.8,30.8,0,0,0-3,11.25,30.61,30.61,0,0,1-6.48-3.3,15.54,15.54,0,0,0,3.27-10.54,1.89,1.89,0,0,0-3.77.33,11.9,11.9,0,0,1-2.44,7.88,20.83,20.83,0,0,1-6.92-14.45,1.89,1.89,0,0,0-3.77-.1,22.7,22.7,0,0,0,2.47,9.82,25.14,25.14,0,0,0,2.11,3.49,10,10,0,0,1-4.25-4.32,1.89,1.89,0,0,0-2.48-1A1.85,1.85,0,0,0,143.28,369.66Z" id="el_u89wWMx4VEm"/></g><g id="el_Li4g86uSBgV" data-name="Layer 5"><path d="M403,383.05a36.51,36.51,0,0,0-6.88-3.49,145.79,145.79,0,0,0-15-3.6A95.8,95.8,0,0,0,358.4,374a56.36,56.36,0,0,0-11.58,1.42c-1.81.4-2.23.46-2.64.35a6.56,6.56,0,0,0-2.6-.08,6,6,0,0,0-3.25,2.42c-.29.46-.71.85-2.92,2.77-4.17,3.61-4.21,3.64-4.86,4.68a13.27,13.27,0,0,1-2.55,2.94,21.34,21.34,0,0,1-2.86,1.68,17.79,17.79,0,0,0-3.21,1.95,8.73,8.73,0,0,0-2.14,2.35c-1.37,1.86-1.7,2.16-3.32,2.93a13.71,13.71,0,0,0-4.31,2.77,25,25,0,0,0-1.62,2.13c-1.74,2.53-2,2.71-4.94,4.13a12.67,12.67,0,0,0-3.52,2.1,14.8,14.8,0,0,0-1.36,1.85,13.63,13.63,0,0,1-2.05,2.71,9.36,9.36,0,0,1-1.56.76c-3.23,1.33-2.45.84-7.09,4.53-2.26,1.82-4.19,3.42-4.29,3.55a2.51,2.51,0,0,0-.3.83,3.35,3.35,0,0,1-.19.62,3.06,3.06,0,0,1-.67.12,3.15,3.15,0,0,0-.94.23c-.83.41-2.09,2.66-2.49,4.42-.6,2.71-.27,7.18.88,11.82a56.24,56.24,0,0,0,8.11,17.46,100.09,100.09,0,0,0,7.09,8.7C304,473,310.66,477,318,478.58c3.32.73,7.3.8,8.48.16a3,3,0,0,0,.93-.83l.5-.6.61-.13c.58-.11.72-.2,1.72-1,1.76-1.34,7.6-6.34,8.6-7.38.52-.52,1.32-1.41,1.79-2,1-1.2,1.1-1.28,2.92-2.09a14.44,14.44,0,0,0,3.76-2.23,11.11,11.11,0,0,0,2.86-3.4c1-1.56,1.15-1.7,3.35-2.42a17.26,17.26,0,0,0,2.29-.94,14,14,0,0,0,4-4.21c1.19-1.67,1.54-1.93,3.91-2.78a7.66,7.66,0,0,0,2.61-1.26,13.3,13.3,0,0,0,3.07-3.29,6.37,6.37,0,0,1,3.68-2.83c.71-.27,1.42-.56,1.57-.65s2-1.48,4.12-3.12l3.85-3,.85-.19a3.63,3.63,0,0,0,2.89-2.71c.77-2,.67-4.58-.31-7.79-1.37-4.47-5.15-11.66-9.62-18.29-1.8-2.68-3.86-5.55-4.87-6.8l-1-1.21,1.13-.12a2.79,2.79,0,0,1,2.06.29,24.63,24.63,0,0,0,7.11,1.86,11.92,11.92,0,0,0,6.37-.59c.78-.29,1.13-.33,4.53-.46,4.13-.13,5.57-.48,8.33-2a24.69,24.69,0,0,0,4.14-3.14c1.23-1.46,2.13-3.92,1.89-5.12A11.25,11.25,0,0,0,403,383.05Z" id="el_nTzWwLuk16r"/><path d="M1357.64,446.69c-.36,6.89.2,12.95,1.51,16.3.85,2.16,2.12,3.33,3.64,3.34a3.25,3.25,0,0,0,.65,0,23.05,23.05,0,0,1,2.64,2.41,24.34,24.34,0,0,0,3.07,2.79l.57.33,33.62,3,33.62,3,.62-.23c3.64-1.36,7.29-5.52,9.65-11,3.13-7.28,4.45-18.4,3.17-26.89-.89-5.91-3-11.16-6-14.77a7.7,7.7,0,0,0-2.23-2.08l-.43-.22-33.55-3-33.54-3-.46.14a3.83,3.83,0,0,0-.79.33c-.18.1-1.68,1.26-3.32,2.57l-3,2.38h-.69c-2.06,0-3.64,1.55-5.14,5.23-1.6,3.89-2.9,10.21-3.42,16.62C1357.75,445.12,1357.65,446.36,1357.64,446.69Z" id="el_EEnvmPmwVBu"/><path d="M783.29,387.51c.05.08,0,.28-.15.46s-.18.37.18.66a6.34,6.34,0,0,0,.73.46,1.11,1.11,0,0,1,.42.61c0,.26.14.38.21.28.17-.36.36,0,.24.45s-.1.63.44.38l.43-.2.06.71.07.71.47-.14a1.55,1.55,0,0,1,.6-.1,2,2,0,0,0,.74-.09l.61-.17.2.74.2.72.7-.28c.66-.29.76-.28,1.65.15l.95.46.19,1,.2,1,.89.32c.66.23.88.37.92.57a5.29,5.29,0,0,0,1.52,1.33l2.11,1.51c1.07.78,1.55,1,1.7.64.33-.68.36-.67,3.07.64l2.57,1.27.88,2.32c4.83,13.16,9.18,19.6,17.43,25.85a59.24,59.24,0,0,0,10.93,6.77,37.87,37.87,0,0,0,15.1,4.09l1.11.06,28.75,13.91,28.74,13.9-.24.51c-.27.56-.44.41,1.91,1.88a9,9,0,0,1,1.65,1.51c1.86,2.26,3.31,3.29,8.2,5.83,6.52,3.38,10.05,4.46,26.18,8l4,.88.38-.44c.19-.25,1.52-1.92,2.92-3.74l2.56-3.31-.36-1.12c-.35-1.09-.34-1.14.06-1.79s.41-.77.23-2.86l-.21-2.19.68,0c.56,0,.82-.1,1.63-.79a4.5,4.5,0,0,1,2.4-1.17l1.45-.34,2-4c1.13-2.19,2.61-5.14,3.29-6.53l1.24-2.56,0-2.5.07-2.5-.94-.93-1-.94,1.63-1.08,1.63-1.1.26-1c.24-.91.34-1.07.68-1.29s.52-.57,1.76-4.7a30.52,30.52,0,0,0,1.22-4.67c-.18-.31-4.88-4.77-6.94-6.58a66.55,66.55,0,0,0-6.28-5,59,59,0,0,0-8.51-4.19,10.46,10.46,0,0,1-2.15-1.06,37.32,37.32,0,0,0-6.61-3.18,13,13,0,0,0-2.89-.46,9.1,9.1,0,0,1-2-.26c-.22-.11-1.11-.45-2-.76l-1.57-.54-.24.49-.25.5-28.93-14-28.94-14-1-1.08c-8.07-9.18-23.4-15-37.6-14.25a54.77,54.77,0,0,0-17.35,3.93c-1.64.67-2.44.91-2.39.73s-.24-.41-2.53-1.52l-2.58-1.25.25-.52c.23-.47.22-.53-.19-.73a7.92,7.92,0,0,0-1.21-.42c-.83-.22-2.49-.73-3.79-1.15a2.43,2.43,0,0,0-1.43-.07,2.51,2.51,0,0,1-1.52-.08c-.84-.24-.9-.23-1.39.26l-.54.51-1.52-.84c-1.59-.88-1.63-.92-2.23-2.2l-.36-.78-.5.58c-.27.33-.57.57-.68.52a3.91,3.91,0,0,1-.47-1.18l-.3-1.12-.67.7-.66.69-.75-.43-.74-.43-.81,1.4a8.62,8.62,0,0,1-.95,1.45c-.08,0-1.65,3.09-3.46,6.85s-3.86,7.82-4.5,9A13.52,13.52,0,0,0,783.29,387.51Zm9.82,7.48c.09.1,0,.13-.14.05s-.24-.15-.15-.17A.37.37,0,0,1,793.11,395Zm.67.51c.09.1,0,.12-.14,0s-.23-.15-.15-.16S793.69,395.4,793.78,395.5Zm178.8,39.74a.33.33,0,0,1-.13.29c-.1.1-.12,0,0-.13S972.56,435.16,972.58,435.24ZM949,486.18a.37.37,0,0,1-.12.29c-.1.09-.13,0,0-.14S949,486.1,949,486.18Zm1.16-.1a.76.76,0,0,1-.18.37c-.09.08-.08,0,0-.21S950.2,486,950.2,486.08Zm.45-.59a.3.3,0,0,1-.12.29c-.1.1-.12,0,0-.13S950.64,485.41,950.65,485.49Z" id="el_W8gTs2FSeHb"/></g><g id="el_rMav66RfOGI" data-name="Layer 6"><g id="el_V1yEWxLFoO3_an_4s3UixBOY" data-animator-group="true" data-animator-type="0"><circle cx="594" cy="180" r="43" id="el_V1yEWxLFoO3"/></g><g id="el_D5zcyTgHACq_an_GpYUi9c1V" data-animator-group="true" data-animator-type="0"><circle cx="412.59" cy="72.33" r="19.41" id="el_D5zcyTgHACq"/></g><g id="el_7KbbW-5Uy_L_an_mjhyKZs8T" data-animator-group="true" data-animator-type="0"><circle cx="823.34" cy="29.58" r="29.58" id="el_7KbbW-5Uy_L"/></g><g id="el_2Zgbf9YhVjW_an_D8q1NRK1O" data-animator-group="true" data-animator-type="0"><circle cx="1006.18" cy="163.16" r="55.16" id="el_2Zgbf9YhVjW"/></g><g id="el_ezLcrIMn5uZ_an_KnSDUD7dH" data-animator-group="true" data-animator-type="0"><circle cx="1247.22" cy="271.12" r="21.78" id="el_ezLcrIMn5uZ"/></g><g id="el_pfpLfbU5R_U_an_HWGQLT6EM" data-animator-group="true" data-animator-type="0"><circle cx="1183.72" cy="210.62" r="19.28" id="el_pfpLfbU5R_U"/></g><g id="el_pBssEntgggk_an_nOyQjrieu" data-animator-group="true" data-animator-type="0"><circle cx="1423.39" cy="106.95" r="32.95" id="el_pBssEntgggk"/></g></g></svg>