<svg id="Layer_1" enable-background="new 0 0 512 512" height="512" viewBox="0 0 512 512" width="512" xmlns="http://www.w3.org/2000/svg"><path d="m216.3 359.606c.162-39.701 15.57-76.992 43.386-105.004 27.806-28.001 64.721-43.421 103.946-43.421l.623.001c10.202.042 20.16 1.139 29.774 3.186v-202.328c0-5.666-4.636-10.302-10.302-10.302h-373.425c-5.666.001-10.302 4.636-10.302 10.302v450.927c0 5.666 4.636 10.301 10.302 10.301h257.437c-31.625-27.49-51.624-68.278-51.439-113.662z" fill="#01cffa"/><path d="m31.951 462.967v-450.927c0-5.666 4.636-10.302 10.302-10.302h-31.951c-5.666.001-10.302 4.636-10.302 10.302v450.927c0 5.666 4.636 10.301 10.302 10.301h31.951c-5.667 0-10.302-4.635-10.302-10.301z" fill="#01bff9"/><path d="m326.543 76.112h-259.057c-2.833 0-5.151 2.317-5.151 5.15v41.114c0 2.833 2.318 5.151 5.151 5.151h259.058c2.833 0 5.151-2.318 5.151-5.151v-41.114c-.001-2.833-2.319-5.15-5.152-5.15z" fill="#fff"/><path d="m94.81 122.376v-41.114c0-2.833 2.318-5.15 5.151-5.15h-32.475c-2.833 0-5.151 2.317-5.151 5.15v41.114c0 2.833 2.318 5.151 5.151 5.151h32.475c-2.833.001-5.151-2.318-5.151-5.151z" fill="#dff6fd"/><path d="m331.694 214.679v-30.582c0-2.833-2.318-5.151-5.151-5.151h-259.057c-2.833 0-5.151 2.318-5.151 5.151v41.114c0 2.833 2.318 5.151 5.151 5.151h223.723c12.64-7.239 26.26-12.516 40.485-15.683z" fill="#c7eefd"/><path d="m94.81 225.211v-41.114c0-2.833 2.318-5.151 5.151-5.151h-32.475c-2.833 0-5.151 2.318-5.151 5.151v41.114c0 2.833 2.318 5.151 5.151 5.151h32.475c-2.833.001-5.151-2.318-5.151-5.151z" fill="#98e5fb"/><path d="m238.308 281.779h-170.822c-2.833 0-5.151 2.318-5.151 5.151v41.116c0 2.833 2.318 5.151 5.151 5.151h151.224c3.295-18.295 9.933-35.683 19.598-51.418z" fill="#fff"/><path d="m94.81 328.046v-41.116c0-2.833 2.318-5.151 5.151-5.151h-32.475c-2.833 0-5.151 2.318-5.151 5.151v41.116c0 2.833 2.318 5.151 5.151 5.151h32.475c-2.833.001-5.151-2.318-5.151-5.151z" fill="#dff6fd"/><path d="m150.538 392.114h-88.203c-4.142 0-7.5-3.357-7.5-7.5s3.358-7.5 7.5-7.5h88.203c4.142 0 7.5 3.357 7.5 7.5s-3.358 7.5-7.5 7.5z" fill="#c7eefd"/><path d="m511.999 360.839c-.337 82.864-67.029 149.763-148.96 149.421-81.931-.34-148.076-67.793-147.739-150.658.337-82.863 67.029-149.763 148.959-149.42 81.931.34 148.077 67.79 147.74 150.657z" fill="#fd646f"/><ellipse cx="363.649" cy="360.22" fill="#fff" rx="111.698" ry="112.972"/><path d="m283.969 360.22c0-56.894 41.586-103.956 95.689-111.811-5.228-.759-10.572-1.159-16.008-1.159-61.688 0-111.697 50.577-111.697 112.97 0 62.394 50.009 112.972 111.697 112.972 5.437 0 10.78-.4 16.008-1.16-54.104-7.854-95.689-54.917-95.689-111.812z" fill="#dff6fd"/><path d="m411.679 367.72h-48.03c-4.142 0-7.5-3.357-7.5-7.5v-70.896c0-4.143 3.358-7.5 7.5-7.5s7.5 3.357 7.5 7.5v63.396h40.53c4.142 0 7.5 3.357 7.5 7.5s-3.358 7.5-7.5 7.5z" fill="#374949"/></svg>