<?xml version="1.0" encoding="iso-8859-1"?>
<!-- Generator: Adobe Illustrator 17.1.0, SVG Export Plug-In . SVG Version: 6.00 Build 0)  -->
<!DOCTYPE svg PUBLIC "-//W3C//DTD SVG 1.1//EN" "http://www.w3.org/Graphics/SVG/1.1/DTD/svg11.dtd">
<svg version="1.1" id="Layer_1" xmlns="http://www.w3.org/2000/svg" xmlns:xlink="http://www.w3.org/1999/xlink" x="0px" y="0px"
	 viewBox="0 0 500 500" style="enable-background:new 0 0 500 500;" xml:space="preserve">
<ellipse style="fill:#C0E6FF;" cx="249.571" cy="243.714" rx="180" ry="179.429"/>
<path style="fill:#32709B;" d="M249.548,423.172c76.333,0,141.613-46.172,168.116-114.172H81.432
	C107.935,377,173.215,423.172,249.548,423.172z"/>
<g>
	<g>
		<path style="fill:#808080;" d="M99,319.5c41.548,0,83.096,0,124.643,0c55.107,0,110.215,0,165.322,0c3.678,0,7.356,0,11.035,0
			c10.902,0,20-9.098,20-20s-9.098-20-20-20c-41.548,0-83.096,0-124.643,0c-55.107,0-110.215,0-165.322,0c-3.678,0-7.356,0-11.035,0
			c-10.902,0-20,9.098-20,20S88.098,319.5,99,319.5L99,319.5z"/>
	</g>
</g>
<g>
	<g>
		<rect x="89" y="187" style="fill:#F4DA45;" width="95" height="93"/>
		<polygon style="fill:#F4DA45;" points="89,187 135.416,139.512 184,187 		"/>
	</g>
	<rect x="126" y="252" style="fill:#087F57;" width="21" height="28"/>
	<g>
		<rect x="102" y="223" style="fill:#FFFFFF;" width="20" height="26"/>
		<rect x="102" y="241" style="fill:#22B573;" width="20" height="8"/>
	</g>
	<g>
		<rect x="149" y="223" style="fill:#FFFFFF;" width="20" height="26"/>
		<rect x="149" y="241" style="fill:#22B573;" width="20" height="8"/>
	</g>
</g>
<rect x="264" y="158" style="fill:#F46984;" width="141" height="122"/>
<polygon style="fill:#F46984;" points="264,159 332.891,96.639 405,159 "/>
<rect x="319" y="232" style="fill:#ED9264;" width="29" height="48"/>
<g>
	<rect x="375" y="169" style="fill:#FFFFFF;" width="18" height="26"/>
	<rect x="375" y="190" style="fill:#ED9264;" width="18" height="6"/>
</g>
<g>
	<rect x="348" y="169" style="fill:#FFFFFF;" width="18" height="26"/>
	<rect x="348" y="190" style="fill:#ED9264;" width="18" height="6"/>
</g>
<g>
	<rect x="322" y="169" style="fill:#FFFFFF;" width="18" height="26"/>
	<rect x="322" y="190" style="fill:#ED9264;" width="18" height="6"/>
</g>
<g>
	<rect x="296" y="168" style="fill:#FFFFFF;" width="18" height="26"/>
	<rect x="296" y="189" style="fill:#ED9264;" width="18" height="6"/>
</g>
<g>
	<rect x="270" y="168" style="fill:#FFFFFF;" width="18" height="26"/>
	<rect x="270" y="189" style="fill:#ED9264;" width="18" height="6"/>
</g>
<g>
	<rect x="375" y="201" style="fill:#FFFFFF;" width="18" height="26"/>
	<rect x="375" y="222" style="fill:#ED9264;" width="18" height="6"/>
</g>
<g>
	<rect x="348" y="201" style="fill:#FFFFFF;" width="18" height="26"/>
	<rect x="348" y="222" style="fill:#ED9264;" width="18" height="6"/>
</g>
<g>
	<rect x="322" y="201" style="fill:#FFFFFF;" width="18" height="26"/>
	<rect x="322" y="222" style="fill:#ED9264;" width="18" height="6"/>
</g>
<g>
	<rect x="296" y="200" style="fill:#FFFFFF;" width="18" height="26"/>
	<rect x="296" y="221" style="fill:#ED9264;" width="18" height="6"/>
</g>
<g>
	<rect x="270" y="200" style="fill:#FFFFFF;" width="18" height="26"/>
	<rect x="270" y="221" style="fill:#ED9264;" width="18" height="6"/>
</g>
<g>
	<rect x="281" y="233" style="fill:#FFFFFF;" width="30" height="36"/>
	<rect x="281" y="262" style="fill:#ED9264;" width="30" height="8"/>
</g>
<g>
	<rect x="360" y="234" style="fill:#FFFFFF;" width="30" height="36"/>
	<rect x="360" y="263" style="fill:#ED9264;" width="30" height="8"/>
</g>
<g>
	<rect x="173" y="118" style="fill:#E89C2D;" width="103" height="162"/>
	<g>
		<rect x="215" y="134" style="fill:#FFFFFF;" width="20" height="26"/>
		<rect x="215" y="152" style="fill:#C1272D;" width="20" height="8"/>
	</g>
	<g>
		<rect x="184" y="134" style="fill:#FFFFFF;" width="20" height="26"/>
		<rect x="184" y="152" style="fill:#C1272D;" width="20" height="8"/>
	</g>
	<g>
		<rect x="244" y="134" style="fill:#FFFFFF;" width="20" height="26"/>
		<rect x="244" y="152" style="fill:#C1272D;" width="20" height="8"/>
	</g>
	<g>
		<rect x="215" y="171" style="fill:#FFFFFF;" width="20" height="26"/>
		<rect x="215" y="189" style="fill:#C1272D;" width="20" height="8"/>
	</g>
	<g>
		<rect x="184" y="171" style="fill:#FFFFFF;" width="20" height="26"/>
		<rect x="184" y="189" style="fill:#C1272D;" width="20" height="8"/>
	</g>
	<g>
		<rect x="244" y="171" style="fill:#FFFFFF;" width="20" height="26"/>
		<rect x="244" y="189" style="fill:#C1272D;" width="20" height="8"/>
	</g>
	<g>
		<rect x="216" y="210" style="fill:#FFFFFF;" width="20" height="26"/>
		<rect x="216" y="228" style="fill:#C1272D;" width="20" height="8"/>
	</g>
	<g>
		<rect x="185" y="210" style="fill:#FFFFFF;" width="20" height="26"/>
		<rect x="185" y="228" style="fill:#C1272D;" width="20" height="8"/>
	</g>
	<g>
		<rect x="245" y="210" style="fill:#FFFFFF;" width="20" height="26"/>
		<rect x="245" y="228" style="fill:#C1272D;" width="20" height="8"/>
	</g>
	<rect x="216" y="252" style="fill:#C1272D;" width="21" height="28"/>
	<g>
		<rect x="185" y="246" style="fill:#FFFFFF;" width="20" height="26"/>
		<rect x="185" y="264" style="fill:#C1272D;" width="20" height="8"/>
	</g>
	<g>
		<rect x="245" y="246" style="fill:#FFFFFF;" width="20" height="26"/>
		<rect x="245" y="264" style="fill:#C1272D;" width="20" height="8"/>
	</g>
</g>
<path style="fill:none;stroke:#29ABE2;stroke-miterlimit:10;" d="M111.5,336.065c0,0,13.001-9.616,25.398,0
	c12.397,9.616,23.584,0,23.584,0s13.001-7.929,26.305,0c13.304,7.929,28.119,0,28.119,0s13.606-6.874,27.817,0
	c14.211,6.874,24.793,0,24.793,0s12.094-5.397,22.072,0c9.978,5.397,21.554,0,21.554,0"/>
<path style="fill:none;stroke:#29ABE2;stroke-miterlimit:10;" d="M225.5,361.926c0,0,9.159-9.928,17.892,0
	c8.733,9.928,16.614,0,16.614,0s9.159-8.185,18.531,0c9.372,8.185,19.809,0,19.809,0s9.585-7.096,19.596,0
	c10.011,7.096,17.466,0,17.466,0s8.52-5.572,15.549,0c7.029,5.572,15.184,0,15.184,0"/>
<path style="fill:none;stroke:#29ABE2;stroke-miterlimit:10;" d="M159.5,385.926c0,0,7.238-9.928,14.139,0
	c6.901,9.928,13.129,0,13.129,0s7.238-8.185,14.644,0c7.406,8.185,15.654,0,15.654,0s7.575-7.096,15.486,0
	c7.911,7.096,13.803,0,13.803,0s6.733-5.572,12.288,0c5.555,5.572,11.999,0,11.999,0"/>
</svg>
