<?xml version="1.0" encoding="iso-8859-1"?>
<!-- Generator: Adobe Illustrator 17.1.0, SVG Export Plug-In . SVG Version: 6.00 Build 0)  -->
<!DOCTYPE svg PUBLIC "-//W3C//DTD SVG 1.1//EN" "http://www.w3.org/Graphics/SVG/1.1/DTD/svg11.dtd">
<svg version="1.1" id="Layer_1" xmlns="http://www.w3.org/2000/svg" xmlns:xlink="http://www.w3.org/1999/xlink" x="0px" y="0px"
	 viewBox="0 0 500 500" style="enable-background:new 0 0 500 500;" xml:space="preserve">
<g>
	<ellipse style="fill:#C0E6FF;" cx="249.571" cy="244.714" rx="180" ry="179.429"/>
	<path style="fill:#32709B;" d="M249.548,423.172c76.333,0,141.613-46.172,168.116-114.172H81.432
		C107.935,377,173.215,423.172,249.548,423.172z"/>
	<g>
		<g>
			<path style="fill:#808080;" d="M95.5,318.641c41.153-0.038,82.307-0.076,123.46-0.114c56.065-0.052,112.129-0.103,168.194-0.155
				c4.615-0.004,9.23-0.009,13.845-0.013c10.902-0.01,20-9.09,20-20c0-10.895-9.098-20.01-20-20
				c-41.153,0.038-82.307,0.076-123.46,0.114c-56.065,0.052-112.129,0.103-168.194,0.155c-4.615,0.004-9.23,0.009-13.845,0.013
				c-10.902,0.01-20,9.09-20,20C75.5,309.536,84.598,318.651,95.5,318.641L95.5,318.641z"/>
		</g>
	</g>
	<g>
		<g>
			<path style="fill:#B3B3B3;" d="M174.496,134.52c1.068,6.402-2.116,12.285-7.111,13.141c-4.995,0.856-9.91-3.64-10.978-10.042
				c-1.068-6.402,2.116-12.285,7.111-13.141C168.514,123.622,173.429,128.118,174.496,134.52z"/>
			<path style="fill:#B3B3B3;" d="M198.409,117.459c1.752,10.504-4.464,20.327-13.884,21.941
				c-9.42,1.614-18.476-5.593-20.228-16.097c-1.752-10.504,4.464-20.327,13.884-21.941S196.657,106.955,198.409,117.459z"/>
			<path style="fill:#B3B3B3;" d="M182.089,140.773c0.689,4.133-1.606,7.973-5.126,8.576s-6.933-2.259-7.623-6.392
				c-0.689-4.133,1.606-7.973,5.126-8.576S181.4,136.639,182.089,140.773z"/>
			<path style="fill:#B3B3B3;" d="M197.088,129.18c1.203,7.21-2.566,13.867-8.418,14.87c-5.852,1.002-11.57-4.03-12.773-11.239
				c-1.203-7.21,2.566-13.867,8.418-14.87C190.167,116.938,195.886,121.971,197.088,129.18z"/>
			<path style="fill:#B3B3B3;" d="M205.503,121.742c0.669,4.009-1.258,7.682-4.302,8.203c-3.045,0.522-6.055-2.305-6.724-6.314
				c-0.669-4.009,1.258-7.682,4.302-8.203C201.824,114.906,204.834,117.733,205.503,121.742z"/>
			<path style="fill:#B3B3B3;" d="M206.803,132.518c0.962,5.769-2.091,11.103-6.819,11.913c-4.728,0.81-9.342-3.21-10.304-8.98
				c-0.962-5.769,2.091-11.103,6.819-11.913S205.841,126.749,206.803,132.518z"/>
			<path style="fill:#B3B3B3;" d="M216.068,105.404c1.462,8.764-4.295,17.057-12.859,18.524c-8.563,1.467-16.69-4.448-18.152-13.212
				s4.295-17.057,12.859-18.524C206.479,90.726,214.606,96.641,216.068,105.404z"/>
			<path style="fill:#B3B3B3;" d="M215.88,122.337c0.715,4.289-1.69,8.277-5.372,8.907c-3.682,0.631-7.247-2.334-7.962-6.623
				s1.69-8.277,5.372-8.907C211.6,115.083,215.164,118.048,215.88,122.337z"/>
		</g>
		<g>
			<polygon style="fill:#808080;" points="197,228 140.697,228 197,163.201 			"/>
			<rect x="141" y="227" style="fill:#808080;" width="56" height="92"/>
			<rect x="157" y="152" style="fill:#808080;" width="15" height="63"/>
		</g>
		<g>
			<polygon style="fill:#808080;" points="251,228 195.554,228 251,163.201 			"/>
			<rect x="196" y="227" style="fill:#808080;" width="55" height="92"/>
			<rect x="212" y="152" style="fill:#808080;" width="16" height="63"/>
		</g>
		<g>
			<polygon style="fill:#808080;" points="307,228 250.983,228 307,163.201 			"/>
			<rect x="251" y="227" style="fill:#808080;" width="56" height="92"/>
			<rect x="267" y="152" style="fill:#808080;" width="16" height="63"/>
		</g>
		<g>
			<path style="fill:#B3B3B3;" d="M230.497,133.94c1.068,6.402-2.116,12.285-7.111,13.141s-9.91-3.64-10.978-10.042
				c-1.068-6.402,2.116-12.285,7.111-13.141S229.429,127.539,230.497,133.94z"/>
			<path style="fill:#B3B3B3;" d="M254.409,116.879c1.752,10.504-4.464,20.327-13.884,21.941
				c-9.42,1.614-18.476-5.593-20.228-16.097s4.464-20.327,13.884-21.941C243.601,99.168,252.657,106.375,254.409,116.879z"/>
			<path style="fill:#B3B3B3;" d="M238.09,140.194c0.689,4.133-1.606,7.973-5.126,8.576s-6.933-2.259-7.623-6.392
				c-0.689-4.133,1.606-7.973,5.126-8.576S237.4,136.06,238.09,140.194z"/>
			<path style="fill:#B3B3B3;" d="M253.089,128.601c1.203,7.21-2.566,13.867-8.418,14.87s-11.57-4.03-12.773-11.239
				c-1.203-7.21,2.566-13.867,8.418-14.87C246.167,116.359,251.886,121.391,253.089,128.601z"/>
			<path style="fill:#B3B3B3;" d="M261.503,121.162c0.669,4.009-1.258,7.682-4.302,8.203c-3.045,0.522-6.055-2.305-6.724-6.314
				c-0.669-4.009,1.258-7.682,4.302-8.203C257.824,114.327,260.834,117.154,261.503,121.162z"/>
			<path style="fill:#B3B3B3;" d="M262.803,131.939c0.962,5.769-2.091,11.103-6.819,11.913c-4.728,0.81-9.342-3.21-10.304-8.98
				c-0.962-5.769,2.091-11.103,6.819-11.913S261.841,126.169,262.803,131.939z"/>
			<path style="fill:#B3B3B3;" d="M272.068,104.825c1.462,8.764-4.295,17.057-12.859,18.524c-8.563,1.467-16.69-4.448-18.152-13.212
				s4.295-17.057,12.859-18.524C262.48,90.146,270.607,96.062,272.068,104.825z"/>
			<path style="fill:#B3B3B3;" d="M271.88,121.758c0.715,4.289-1.69,8.277-5.372,8.907c-3.682,0.631-7.247-2.334-7.962-6.623
				c-0.715-4.289,1.69-8.277,5.372-8.907C267.6,114.504,271.165,117.469,271.88,121.758z"/>
		</g>
		<g>
			<path style="fill:#B3B3B3;" d="M290.497,133.94c1.068,6.402-2.116,12.285-7.111,13.141s-9.91-3.64-10.978-10.042
				c-1.068-6.402,2.116-12.285,7.111-13.141C284.514,123.043,289.43,127.539,290.497,133.94z"/>
			<path style="fill:#B3B3B3;" d="M314.41,116.879c1.752,10.504-4.464,20.327-13.884,21.941c-9.42,1.614-18.476-5.593-20.228-16.097
				c-1.752-10.504,4.464-20.327,13.884-21.941S312.658,106.375,314.41,116.879z"/>
			<path style="fill:#B3B3B3;" d="M298.09,140.194c0.689,4.133-1.606,7.973-5.126,8.576s-6.933-2.259-7.623-6.392
				c-0.689-4.133,1.606-7.973,5.126-8.576S297.401,136.06,298.09,140.194z"/>
			<path style="fill:#B3B3B3;" d="M313.089,128.601c1.203,7.21-2.566,13.867-8.418,14.87s-11.57-4.03-12.773-11.239
				c-1.203-7.21,2.566-13.867,8.418-14.87S311.887,121.391,313.089,128.601z"/>
			<path style="fill:#B3B3B3;" d="M321.503,121.162c0.669,4.009-1.258,7.682-4.302,8.203c-3.045,0.522-6.055-2.305-6.724-6.314
				c-0.669-4.009,1.258-7.682,4.302-8.203C317.824,114.327,320.835,117.154,321.503,121.162z"/>
			<path style="fill:#B3B3B3;" d="M322.804,131.939c0.962,5.769-2.091,11.103-6.819,11.913c-4.728,0.81-9.342-3.21-10.304-8.98
				c-0.962-5.769,2.091-11.103,6.819-11.913C317.228,122.149,321.842,126.169,322.804,131.939z"/>
			<path style="fill:#B3B3B3;" d="M332.069,104.825c1.462,8.764-4.295,17.057-12.859,18.524c-8.563,1.467-16.69-4.448-18.152-13.212
				s4.295-17.057,12.859-18.524C322.48,90.146,330.607,96.062,332.069,104.825z"/>
			<path style="fill:#B3B3B3;" d="M331.881,121.758c0.715,4.289-1.69,8.277-5.372,8.907c-3.682,0.631-7.247-2.334-7.962-6.623
				c-0.715-4.289,1.69-8.277,5.372-8.907C327.6,114.504,331.165,117.469,331.881,121.758z"/>
		</g>
	</g>
	<rect x="163" y="240" style="fill:#F4DA45;" width="48" height="39"/>
	<polygon style="fill:#F4DA45;" points="163.907,241 186.688,220.947 210.533,241 	"/>
	<rect x="182" y="267" style="fill:#087F57;" width="10" height="12"/>
	<g>
		<rect x="170" y="255" style="fill:#FFFFFF;" width="10" height="11"/>
		<rect x="170" y="262" style="fill:#22B573;" width="10" height="4"/>
	</g>
	<g>
		<rect x="194" y="255" style="fill:#FFFFFF;" width="9" height="11"/>
		<rect x="194" y="262" style="fill:#22B573;" width="9" height="4"/>
	</g>
	<g>
		<rect x="250" y="227" style="fill:#F46984;" width="69" height="52"/>
		<polygon style="fill:#F46984;" points="249.797,227 283.609,200.666 319,227 		"/>
		<g>
			<rect x="277" y="258" style="fill:#ED9264;" width="14" height="20"/>
			<g>
				<g>
					<rect x="304" y="232" style="fill:#FFFFFF;" width="8" height="11"/>
					<rect x="304" y="241" style="fill:#ED9264;" width="8" height="2"/>
				</g>
				<g>
					<rect x="291" y="232" style="fill:#FFFFFF;" width="8" height="11"/>
					<rect x="291" y="241" style="fill:#ED9264;" width="8" height="2"/>
				</g>
				<g>
					<rect x="277" y="232" style="fill:#FFFFFF;" width="9" height="11"/>
					<rect x="277" y="241" style="fill:#ED9264;" width="9" height="2"/>
				</g>
				<g>
					<rect x="265" y="231" style="fill:#FFFFFF;" width="9" height="11"/>
					<rect x="265" y="240" style="fill:#ED9264;" width="9" height="3"/>
				</g>
				<g>
					<rect x="252" y="231" style="fill:#FFFFFF;" width="9" height="11"/>
					<rect x="252" y="240" style="fill:#ED9264;" width="9" height="3"/>
				</g>
				<g>
					<rect x="304" y="245" style="fill:#FFFFFF;" width="8" height="11"/>
					<rect x="304" y="254" style="fill:#ED9264;" width="8" height="3"/>
				</g>
				<g>
					<rect x="291" y="245" style="fill:#FFFFFF;" width="8" height="11"/>
					<rect x="291" y="254" style="fill:#ED9264;" width="8" height="3"/>
				</g>
				<g>
					<rect x="277" y="245" style="fill:#FFFFFF;" width="9" height="11"/>
					<rect x="277" y="254" style="fill:#ED9264;" width="9" height="3"/>
				</g>
				<g>
					<rect x="265" y="245" style="fill:#FFFFFF;" width="9" height="11"/>
					<rect x="265" y="254" style="fill:#ED9264;" width="9" height="2"/>
				</g>
				<g>
					<rect x="252" y="245" style="fill:#FFFFFF;" width="9" height="11"/>
					<rect x="252" y="254" style="fill:#ED9264;" width="9" height="2"/>
				</g>
				<g>
					<rect x="258" y="259" style="fill:#FFFFFF;" width="15" height="15"/>
					<rect x="258" y="271" style="fill:#ED9264;" width="15" height="3"/>
				</g>
				<g>
					<rect x="296" y="259" style="fill:#FFFFFF;" width="15" height="15"/>
					<rect x="296" y="271" style="fill:#ED9264;" width="15" height="4"/>
				</g>
			</g>
		</g>
	</g>
	<g>
		<rect x="205" y="211" style="fill:#E89C2D;" width="50" height="68"/>
		<g>
			<rect x="225" y="217" style="fill:#FFFFFF;" width="11" height="11"/>
			<rect x="225" y="225" style="fill:#C1272D;" width="11" height="3"/>
		</g>
		<g>
			<rect x="211" y="217" style="fill:#FFFFFF;" width="9" height="11"/>
			<rect x="211" y="225" style="fill:#C1272D;" width="9" height="3"/>
		</g>
		<g>
			<rect x="240" y="217" style="fill:#FFFFFF;" width="10" height="11"/>
			<rect x="240" y="225" style="fill:#C1272D;" width="10" height="3"/>
		</g>
		<g>
			<rect x="225" y="233" style="fill:#FFFFFF;" width="11" height="11"/>
			<rect x="225" y="241" style="fill:#C1272D;" width="11" height="3"/>
		</g>
		<g>
			<rect x="211" y="233" style="fill:#FFFFFF;" width="9" height="11"/>
			<rect x="211" y="241" style="fill:#C1272D;" width="9" height="3"/>
		</g>
		<g>
			<rect x="240" y="233" style="fill:#FFFFFF;" width="10" height="11"/>
			<rect x="240" y="241" style="fill:#C1272D;" width="10" height="3"/>
		</g>
		<g>
			<rect x="226" y="250" style="fill:#FFFFFF;" width="10" height="10"/>
			<rect x="226" y="257" style="fill:#C1272D;" width="10" height="3"/>
		</g>
		<g>
			<rect x="211" y="250" style="fill:#FFFFFF;" width="9" height="10"/>
			<rect x="211" y="257" style="fill:#C1272D;" width="9" height="3"/>
		</g>
		<g>
			<rect x="241" y="250" style="fill:#FFFFFF;" width="10" height="10"/>
			<rect x="241" y="257" style="fill:#C1272D;" width="10" height="3"/>
		</g>
		<rect x="226" y="267" style="fill:#C1272D;" width="11" height="12"/>
		<g>
			<rect x="211" y="264" style="fill:#FFFFFF;" width="9" height="12"/>
			<rect x="211" y="272" style="fill:#C1272D;" width="9" height="4"/>
		</g>
		<g>
			<rect x="241" y="264" style="fill:#FFFFFF;" width="10" height="12"/>
			<rect x="241" y="272" style="fill:#C1272D;" width="10" height="4"/>
		</g>
	</g>
	<path style="fill:none;stroke:#29ABE2;stroke-miterlimit:10;" d="M111.5,336.065c0,0,13.001-9.616,25.398,0
		c12.397,9.616,23.584,0,23.584,0s13.001-7.929,26.305,0c13.304,7.929,28.119,0,28.119,0s13.606-6.874,27.817,0
		c14.211,6.874,24.793,0,24.793,0s12.094-5.397,22.072,0c9.978,5.397,21.554,0,21.554,0"/>
	<path style="fill:none;stroke:#29ABE2;stroke-miterlimit:10;" d="M225.5,361.926c0,0,9.159-9.928,17.892,0
		c8.733,9.928,16.614,0,16.614,0s9.159-8.185,18.531,0c9.372,8.185,19.809,0,19.809,0s9.585-7.096,19.596,0
		c10.011,7.096,17.466,0,17.466,0s8.52-5.572,15.549,0c7.029,5.572,15.184,0,15.184,0"/>
	<path style="fill:none;stroke:#29ABE2;stroke-miterlimit:10;" d="M159.5,385.926c0,0,7.238-9.928,14.139,0
		c6.901,9.928,13.129,0,13.129,0s7.238-8.185,14.644,0c7.406,8.185,15.654,0,15.654,0s7.575-7.096,15.486,0
		c7.911,7.096,13.803,0,13.803,0s6.733-5.572,12.288,0c5.555,5.572,11.999,0,11.999,0"/>
	<rect x="115" y="211" style="fill:#666666;" width="49" height="69"/>
	<rect x="319" y="210" style="fill:#666666;" width="49" height="69"/>
	<rect x="352" y="188" style="fill:#666666;" width="49" height="91"/>
	<g>
		<rect x="124" y="223" style="fill:#FFFFFF;" width="11" height="13"/>
		<rect x="124" y="233" style="fill:#B3B3B3;" width="11" height="3"/>
	</g>
	<g>
		<rect x="144" y="223" style="fill:#FFFFFF;" width="11" height="13"/>
		<rect x="144" y="233" style="fill:#B3B3B3;" width="11" height="3"/>
	</g>
	<g>
		<rect x="124" y="241" style="fill:#FFFFFF;" width="11" height="13"/>
		<rect x="124" y="251" style="fill:#B3B3B3;" width="11" height="3"/>
	</g>
	<g>
		<rect x="144" y="241" style="fill:#FFFFFF;" width="11" height="13"/>
		<rect x="144" y="251" style="fill:#B3B3B3;" width="11" height="3"/>
	</g>
	<g>
		<rect x="124" y="258" style="fill:#FFFFFF;" width="11" height="13"/>
		<rect x="124" y="268" style="fill:#B3B3B3;" width="11" height="3"/>
	</g>
	<g>
		<rect x="144" y="258" style="fill:#FFFFFF;" width="11" height="13"/>
		<rect x="144" y="268" style="fill:#B3B3B3;" width="11" height="3"/>
	</g>
	<g>
		<rect x="325" y="221" style="fill:#FFFFFF;" width="8" height="11"/>
		<rect x="325" y="229" style="fill:#B3B3B3;" width="8" height="3"/>
	</g>
	<g>
		<rect x="339" y="221" style="fill:#FFFFFF;" width="8" height="11"/>
		<rect x="339" y="229" style="fill:#B3B3B3;" width="8" height="3"/>
	</g>
	<g>
		<rect x="325" y="239" style="fill:#FFFFFF;" width="8" height="11"/>
		<rect x="325" y="247" style="fill:#B3B3B3;" width="8" height="3"/>
	</g>
	<g>
		<rect x="339" y="239" style="fill:#FFFFFF;" width="8" height="11"/>
		<rect x="339" y="247" style="fill:#B3B3B3;" width="8" height="3"/>
	</g>
	<g>
		<rect x="325" y="256" style="fill:#FFFFFF;" width="8" height="11"/>
		<rect x="325" y="264" style="fill:#B3B3B3;" width="8" height="3"/>
	</g>
	<g>
		<rect x="339" y="256" style="fill:#FFFFFF;" width="8" height="11"/>
		<rect x="339" y="264" style="fill:#B3B3B3;" width="8" height="3"/>
	</g>
	<g>
		<rect x="359" y="195" style="fill:#FFFFFF;" width="8" height="11"/>
		<rect x="359" y="203" style="fill:#B3B3B3;" width="8" height="3"/>
	</g>
	<g>
		<rect x="373" y="195" style="fill:#FFFFFF;" width="8" height="11"/>
		<rect x="373" y="203" style="fill:#B3B3B3;" width="8" height="3"/>
	</g>
	<g>
		<rect x="387" y="195" style="fill:#FFFFFF;" width="8" height="11"/>
		<rect x="387" y="203" style="fill:#B3B3B3;" width="8" height="3"/>
	</g>
	<g>
		<rect x="359" y="212" style="fill:#FFFFFF;" width="8" height="11"/>
		<rect x="359" y="220" style="fill:#B3B3B3;" width="8" height="3"/>
	</g>
	<g>
		<rect x="373" y="212" style="fill:#FFFFFF;" width="8" height="11"/>
		<rect x="373" y="220" style="fill:#B3B3B3;" width="8" height="3"/>
	</g>
	<g>
		<rect x="387" y="212" style="fill:#FFFFFF;" width="8" height="11"/>
		<rect x="387" y="220" style="fill:#B3B3B3;" width="8" height="3"/>
	</g>
	<g>
		<rect x="359" y="229" style="fill:#FFFFFF;" width="8" height="11"/>
		<rect x="359" y="237" style="fill:#B3B3B3;" width="8" height="3"/>
	</g>
	<g>
		<rect x="373" y="229" style="fill:#FFFFFF;" width="8" height="11"/>
		<rect x="373" y="237" style="fill:#B3B3B3;" width="8" height="3"/>
	</g>
	<g>
		<rect x="387" y="229" style="fill:#FFFFFF;" width="8" height="11"/>
		<rect x="387" y="237" style="fill:#B3B3B3;" width="8" height="3"/>
	</g>
	<g>
		<rect x="359" y="246" style="fill:#FFFFFF;" width="8" height="11"/>
		<rect x="359" y="254" style="fill:#B3B3B3;" width="8" height="3"/>
	</g>
	<g>
		<rect x="373" y="246" style="fill:#FFFFFF;" width="8" height="11"/>
		<rect x="373" y="254" style="fill:#B3B3B3;" width="8" height="3"/>
	</g>
	<g>
		<rect x="387" y="246" style="fill:#FFFFFF;" width="8" height="11"/>
		<rect x="387" y="254" style="fill:#B3B3B3;" width="8" height="3"/>
	</g>
	<g>
		<rect x="359" y="262" style="fill:#FFFFFF;" width="8" height="11"/>
		<rect x="359" y="270" style="fill:#B3B3B3;" width="8" height="3"/>
	</g>
	<g>
		<rect x="373" y="262" style="fill:#FFFFFF;" width="8" height="11"/>
		<rect x="373" y="270" style="fill:#B3B3B3;" width="8" height="3"/>
	</g>
	<g>
		<rect x="387" y="262" style="fill:#FFFFFF;" width="8" height="11"/>
		<rect x="387" y="270" style="fill:#B3B3B3;" width="8" height="3"/>
	</g>
	<ellipse style="fill:#4D4D4D;" cx="137" cy="299.333" rx="10" ry="9.667"/>
	<ellipse style="fill:#4D4D4D;" cx="339" cy="299.333" rx="10" ry="9.667"/>
	<ellipse style="fill:#4D4D4D;" cx="380" cy="299.333" rx="10" ry="9.667"/>
	
		<ellipse style="fill:#B3B3B3;stroke:#808080;stroke-width:3;stroke-miterlimit:10;" cx="136.987" cy="299.264" rx="6.075" ry="5.968"/>
	
		<ellipse style="fill:#B3B3B3;stroke:#808080;stroke-width:3;stroke-miterlimit:10;" cx="379.987" cy="299.264" rx="6.075" ry="5.968"/>
	
		<ellipse style="fill:#B3B3B3;stroke:#808080;stroke-width:3;stroke-miterlimit:10;" cx="338.987" cy="299.264" rx="6.075" ry="5.968"/>
	<g>
		<line style="fill:#009245;" x1="136.987" y1="306.833" x2="137" y2="335.333"/>
		<g>
			<path style="fill:#006837;" d="M131.987,306.833c0.004,9.5,0.009,19,0.013,28.5c0.003,6.449,10.003,6.449,10,0
				c-0.004-9.5-0.009-19-0.013-28.5C141.984,300.385,131.984,300.385,131.987,306.833L131.987,306.833z"/>
		</g>
	</g>
	<g>
		<line style="fill:#009245;" x1="379.987" y1="305.833" x2="380" y2="334.333"/>
		<g>
			<path style="fill:#006837;" d="M374.987,305.833c0.004,9.5,0.009,19,0.013,28.5c0.003,6.449,10.003,6.449,10,0
				c-0.004-9.5-0.009-19-0.013-28.5C384.984,299.385,374.984,299.385,374.987,305.833L374.987,305.833z"/>
		</g>
	</g>
	<g>
		<line style="fill:#009245;" x1="338.987" y1="303.833" x2="339" y2="322.5"/>
		<g>
			<path style="fill:#006837;" d="M333.987,303.833c0.004,6.222,0.009,12.444,0.013,18.667c0.004,6.448,10.004,6.449,10,0
				c-0.004-6.222-0.009-12.444-0.013-18.667C343.983,297.385,333.983,297.384,333.987,303.833L333.987,303.833z"/>
		</g>
	</g>
	<ellipse style="fill:#009245;" cx="145.667" cy="311" rx="1.25" ry="1.172"/>
	<ellipse style="fill:#009245;" cx="130.667" cy="322" rx="1.25" ry="1.172"/>
	<ellipse style="fill:#009245;" cx="142.667" cy="332" rx="1.25" ry="1.172"/>
	<ellipse style="fill:#009245;" cx="345.667" cy="309" rx="1.25" ry="1.172"/>
	<ellipse style="fill:#009245;" cx="330.667" cy="320" rx="1.25" ry="1.172"/>
	<ellipse style="fill:#009245;" cx="342.667" cy="330" rx="1.25" ry="1.172"/>
	
		<ellipse transform="matrix(0.7612 0.6486 -0.6486 0.7612 286.8227 -154.1313)" style="fill:#009245;" cx="352.685" cy="312.372" rx="1.25" ry="1.172"/>
	
		<ellipse transform="matrix(0.7612 0.6486 -0.6486 0.7612 281.5128 -142.4233)" style="fill:#009245;" cx="334.134" cy="311.016" rx="1.25" ry="1.172"/>
	
		<ellipse transform="matrix(0.7612 0.6486 -0.6486 0.7612 292.1295 -140.4643)" style="fill:#009245;" cx="336.782" cy="326.411" rx="1.25" ry="1.172"/>
	<ellipse style="fill:#009245;" cx="387.667" cy="310" rx="1.25" ry="1.172"/>
	<ellipse style="fill:#009245;" cx="372.667" cy="321" rx="1.25" ry="1.172"/>
	<ellipse style="fill:#009245;" cx="379.667" cy="328" rx="1.25" ry="1.172"/>
	
		<ellipse transform="matrix(-0.3926 0.9197 -0.9197 -0.3926 804.4014 85.7608)" style="fill:#009245;" cx="373.88" cy="308.52" rx="1.25" ry="1.172"/>
	
		<ellipse transform="matrix(-0.3926 0.9197 -0.9197 -0.3926 841.4214 97.0824)" style="fill:#009245;" cx="388.651" cy="326.406" rx="1.25" ry="1.172"/>
	
		<ellipse transform="matrix(-0.3926 0.9197 -0.9197 -0.3926 834.1386 122.1149)" style="fill:#009245;" cx="376.743" cy="336.517" rx="1.25" ry="1.172"/>
	<ellipse style="fill:#009245;" cx="136.667" cy="312" rx="1.25" ry="1.172"/>
	<ellipse style="fill:#009245;" cx="136.667" cy="342" rx="1.25" ry="1.172"/>
	<ellipse style="fill:#009245;" cx="134.667" cy="328" rx="1.25" ry="1.172"/>
</g>
</svg>
